{
.appVersion = "3205";
.formatVersion = 3;
axes = (
{
default = 100;
name = Weight;
tag = wght;
}
);
customParameters = (
{
name = openTypeHeadFlags;
value = (
0,
1
);
},
{
name = openTypeHeadLowestRecPPEM;
value = 6;
},
{
name = openTypeHheaCaretOffset;
value = 0;
},
{
name = openTypeHheaCaretSlopeRise;
value = 1;
},
{
name = openTypeHheaCaretSlopeRun;
value = 0;
},
{
name = licenses;
value = "This Font Software is licensed under the SIL Open Font License, Version 1.1. This license is available with a FAQ at: https://scripts.sil.org/OFL";
},
{
name = licenseURL;
value = "http://scripts.sil.org/OFL";
},
{
name = preferredFamilyNames;
value = Surety;
},
{
name = codePageRanges;
value = (
);
},
{
name = panose;
value = (
0,
0,
0,
0,
0,
0,
0,
0,
0,
0
);
},
{
name = openTypeOS2SubscriptXOffset;
value = 0;
},
{
name = openTypeOS2SubscriptXSize;
value = 650;
},
{
name = openTypeOS2SubscriptYOffset;
value = 75;
},
{
name = openTypeOS2SubscriptYSize;
value = 600;
},
{
name = openTypeOS2SuperscriptXOffset;
value = 0;
},
{
name = openTypeOS2SuperscriptXSize;
value = 650;
},
{
name = openTypeOS2SuperscriptYOffset;
value = 350;
},
{
name = openTypeOS2SuperscriptYSize;
value = 600;
},
{
name = fsType;
value = (
);
},
{
name = vendorID;
value = PYRS;
}
);
date = "2017-03-21 06:32:22 +0000";
familyName = Surety;
fontMaster = (
{
axesValues = (
100
);
customParameters = (
{
name = typoAscender;
value = 1100;
},
{
name = typoDescender;
value = -540;
},
{
name = typoLineGap;
value = 0;
},
{
name = hheaAscender;
value = 1100;
},
{
name = hheaDescender;
value = -540;
},
{
name = hheaLineGap;
value = 0;
},
{
name = winAscent;
value = 1100;
},
{
name = winDescent;
value = 540;
},
{
name = strikeoutPosition;
value = 291;
},
{
name = strikeoutSize;
value = 50;
},
{
name = underlineThickness;
value = 50;
},
{
name = underlinePosition;
value = -125;
}
);
iconName = Light;
id = m001;
metricValues = (
{
pos = 1100;
},
{
pos = 680;
},
{
pos = 485;
},
{
},
{
pos = -540;
},
{
}
);
name = Thin;

glyphs = (
{
color = 5;
glyphname = A;
lastChange = "2023-07-12 06:14:51 +0000";
layers = (
{
anchors = (
{
name = bottom;
pos = (281,0);
},
{
name = top;
pos = (281,680);
}
);
layerId = m001;
shapes = (
{
closed = 1;
nodes = (
(150,252,l),
(281,614,l),
(417,252,l),
(417,252,l)
);
},
{
closed = 1;
nodes = (
(10,0,l),
(59,0,l),
(136,213,l),
(431,213,l),
(512,-6,l),
(562,5,l),
(303,680,l),
(257,680,l),
(257,680,l)
);
}
);
width = 572;
},
{
anchors = (
{
name = bottom;
pos = (354,0);
},
{
name = top;
pos = (354,680);
}
);
layerId = m003;
shapes = (
{
closed = 1;
nodes = (
(288,277,l),
(353,462,l),
(421,277,l),
(421,277,l)
);
},
{
closed = 1;
nodes = (
(10,0,l),
(191,0,l),
(238,134,l),
(473,134,l),
(522,-10,l),
(701,8,l),
(447,680,l),
(265,680,l),
(265,680,l)
);
}
);
width = 711;
}
);
unicode = 65;
},
{
color = 5;
glyphname = Aogonek;
lastChange = "2023-07-12 06:14:51 +0000";
layers = (
{
layerId = m001;
shapes = (
{
closed = 1;
nodes = (
(483.658,-20.822,o),
(460,-70.834,o),
(460,-106,cs),
(460,-160.938,o),
(503.143,-202,o),
(565,-202,cs),
(598.68,-202,o),
(628.924,-188.076,o),
(645,-172,c),
(623,-145,l),
(607,-158.333,o),
(589.333,-166,o),
(568,-166,cs),
(542.667,-166,o),
(506,-147,o),
(506,-107,cs),
(506,-62.685,o),
(526.181,-26.839,o),
(562,5,c),
(522,9,l),
(522,9,l)
);
},
{
closed = 1;
nodes = (
(150,252,l),
(281,614,l),
(417,252,l),
(417,252,l)
);
},
{
closed = 1;
nodes = (
(10,0,l),
(59,0,l),
(136,213,l),
(431,213,l),
(512,-6,l),
(562,5,l),
(303,680,l),
(257,680,l),
(257,680,l)
);
}
);
width = 572;
},
{
layerId = m003;
shapes = (
{
closed = 1;
nodes = (
(515,-21,o),
(506,-65.618,o),
(506,-89,cs),
(506,-160.818,o),
(553.953,-236,o),
(654,-236,cs),
(712.64,-236,o),
(781.321,-214.621,o),
(803,-189,c),
(742,-87,l),
(723.333,-104.333,o),
(711.333,-107,o),
(698,-107,cs),
(680.667,-107,o),
(669,-91,o),
(669,-75,cs),
(669,-53.355,o),
(686.539,-10.281,o),
(701,9,c),
(530,9,l),
(530,9,l)
);
},
{
closed = 1;
nodes = (
(288,277,l),
(353,462,l),
(421,277,l),
(421,277,l)
);
},
{
closed = 1;
nodes = (
(10,0,l),
(191,0,l),
(238,134,l),
(473,134,l),
(522,-10,l),
(701,8,l),
(447,680,l),
(265,680,l),
(265,680,l)
);
}
);
width = 711;
}
);
unicode = 260;
},
{
color = 5;
glyphname = AE;
lastChange = "2023-07-12 06:14:51 +0000";
layers = (
{
layerId = m001;
shapes = (
{
closed = 1;
nodes = (
(809,0,l),
(803,39,l),
(483,39,l),
(483,329,l),
(728,329,l),
(723,368,l),
(483,368,l),
(483,641,l),
(786,641,l),
(781,680,l),
(426,680,l),
(10,5,l),
(60,-5,l),
(190,213,l),
(434,213,l),
(434,0,l),
(434,0,l)
);
},
{
closed = 1;
nodes = (
(434,252,l),
(214,252,l),
(434,611,l),
(434,611,l)
);
}
);
width = 829;
},
{
layerId = m003;
shapes = (
{
closed = 1;
nodes = (
(967,0,l),
(950,143,l),
(651,143,l),
(651,270,l),
(877,270,l),
(860,413,l),
(651,413,l),
(651,537,l),
(937,537,l),
(920,680,l),
(469,680,l),
(10,13,l),
(185,-13,l),
(277,128,l),
(469,128,l),
(469,0,l),
(469,0,l)
);
},
{
closed = 1;
nodes = (
(469,271,l),
(378,271,l),
(469,399,l),
(469,399,l)
);
}
);
width = 987;
}
);
unicode = 198;
},
{
color = 5;
glyphname = B;
lastChange = "2023-07-12 06:14:51 +0000";
layers = (
{
layerId = m001;
shapes = (
{
closed = 1;
nodes = (
(413.003,0,o),
(525,46.946,o),
(525,188,cs),
(525,282.667,o),
(468.667,336.667,o),
(386,362,c),
(440.667,388.667,o),
(487,435,o),
(487,503,cs),
(487,646,o),
(373,680,o),
(242,680,cs),
(100,680,l),
(100,0,l),
(269,0,l),
(269,0,l)
);
},
{
closed = 1;
nodes = (
(361,641,o),
(435,609,o),
(435,502,cs),
(435,399,o),
(334,374,o),
(241,372,cs),
(150,372,l),
(150,641,l),
(254,641,l),
(254,641,l)
);
},
{
closed = 1;
nodes = (
(401.333,333,o),
(473,287.333,o),
(473,186,cs),
(473,84.112,o),
(392.985,39,o),
(281,39,cs),
(150,39,l),
(150,333,l),
(292,333,l),
(292,333,l)
);
}
);
width = 565;
},
{
layerId = m003;
shapes = (
{
closed = 1;
nodes = (
(490.025,0,o),
(625,50.213,o),
(625,203,cs),
(625,268.333,o),
(587.333,323.667,o),
(534,361,c),
(564.667,391.667,o),
(597,430.667,o),
(597,484,cs),
(597,620.549,o),
(472.115,680,o),
(317,680,cs),
(80,680,l),
(80,0,l),
(337,0,l),
(337,0,l)
);
},
{
closed = 1;
nodes = (
(371.653,537,o),
(409,515.654,o),
(409,475,cs),
(409,439.996,o),
(359.599,422,o),
(303,422,cs),
(262,422,l),
(262,537,l),
(311,537,l),
(311,537,l)
);
},
{
closed = 1;
nodes = (
(400.333,279,o),
(437,252.333,o),
(437,207,cs),
(437,165.746,o),
(398.483,143,o),
(341,143,cs),
(262,143,l),
(262,279,l),
(339,279,l),
(339,279,l)
);
}
);
width = 645;
}
);
unicode = 66;
},
{
color = 5;
glyphname = C;
lastChange = "2023-07-12 06:14:51 +0000";
layers = (
{
anchors = (
{
name = bottom;
pos = (352,0);
},
{
name = top;
pos = (359,680);
}
);
layerId = m001;
shapes = (
{
closed = 1;
nodes = (
(490.382,680.558,o),
(409.313,694,o),
(360,694,cs),
(166.214,694,o),
(50,539.409,o),
(50,336,cs),
(50,150.122,o),
(146.619,-14,o),
(354,-14,cs),
(415.709,-14,o),
(487.952,3.529,o),
(523,23,c),
(499,59,l),
(463,43,o),
(421,29,o),
(349,29,cs),
(192.922,29,o),
(105,175.597,o),
(105,337,cs),
(105,465,o),
(152.833,561.167,o),
(229.5,612.5,cs),
(267.833,638.167,o),
(310.667,651,o),
(358,651,cs),
(421.187,651,o),
(461.059,639.873,o),
(503,621,c),
(523,657,l),
(523,657,l),
(523,657,l)
);
}
);
width = 553;
},
{
anchors = (
{
name = bottom;
pos = (357,0);
},
{
name = top;
pos = (364,680);
}
);
layerId = m003;
shapes = (
{
closed = 1;
nodes = (
(531.426,669.936,o),
(454.112,693,o),
(379,693,cs),
(173.301,693,o),
(30,541.874,o),
(30,337,cs),
(30,134.282,o),
(158.739,-13,o),
(383,-13,cs),
(458.634,-13,o),
(539.134,8.159,o),
(586,37,c),
(517,173,l),
(482.333,151.667,o),
(437.333,136,o),
(388,136,cs),
(303.515,136,o),
(218,208.966,o),
(218,338,cs),
(218,420.667,o),
(253.5,484.5,o),
(303.5,518.5,cs),
(328.5,535.5,o),
(354.333,544,o),
(381,544,cs),
(427.713,544,o),
(465.063,535.644,o),
(525,514,c),
(579,637,l),
(579,637,l),
(579,637,l)
);
}
);
width = 596;
}
);
unicode = 67;
},
{
color = 5;
glyphname = D;
lastChange = "2023-07-12 06:14:51 +0000";
layers = (
{
anchors = (
{
name = top;
pos = (316,680);
}
);
layerId = m001;
shapes = (
{
closed = 1;
nodes = (
(517.538,0,o),
(612,150.338,o),
(612,344,cs),
(612,543,o),
(524,680,o),
(324,680,cs),
(100,680,l),
(100,0,l),
(321,0,l),
(321,0,l)
);
},
{
closed = 1;
nodes = (
(481.169,641,o),
(561,514.406,o),
(561,343,cs),
(561,182,o),
(476,39,o),
(322,39,cs),
(149,39,l),
(149,641,l),
(332,641,l),
(332,641,l)
);
}
);
width = 662;
},
{
anchors = (
{
name = top;
pos = (360,680);
}
);
layerId = m003;
shapes = (
{
closed = 1;
nodes = (
(577.256,0,o),
(709,133.935,o),
(709,344,cs),
(709,542.881,o),
(593.684,680,o),
(388,680,cs),
(80,680,l),
(80,0,l),
(384,0,l),
(384,0,l)
);
},
{
closed = 1;
nodes = (
(466.219,537,o),
(521,462.757,o),
(521,344,cs),
(521,214.484,o),
(459.338,143,o),
(372,143,cs),
(262,143,l),
(262,537,l),
(379,537,l),
(379,537,l)
);
}
);
width = 739;
}
);
unicode = 68;
},
{
color = 4;
glyphname = E;
lastChange = "2023-07-12 06:14:51 +0000";
layers = (
{
anchors = (
{
name = bottom;
pos = (306,0);
},
{
name = top;
pos = (296,680);
}
);
layerId = m001;
shapes = (
{
closed = 1;
nodes = (
(469,39,l),
(149,39,l),
(149,329,l),
(394,329,l),
(389,368,l),
(149,368,l),
(149,641,l),
(452,641,l),
(447,680,l),
(100,680,l),
(100,0,l),
(475,0,l),
(475,0,l)
);
}
);
width = 495;
},
{
anchors = (
{
name = bottom;
pos = (416,0);
},
{
name = top;
pos = (336,680);
}
);
layerId = m003;
shapes = (
{
closed = 1;
nodes = (
(561,143,l),
(262,143,l),
(262,270,l),
(488,270,l),
(471,413,l),
(262,413,l),
(262,537,l),
(548,537,l),
(531,680,l),
(80,680,l),
(80,0,l),
(578,0,l),
(578,0,l)
);
}
);
width = 598;
}
);
unicode = 69;
},
{
color = 5;
glyphname = a;
lastChange = "2023-07-12 06:14:51 +0000";
layers = (
{
anchors = (
{
name = bottom;
pos = (234,0);
},
{
name = top;
pos = (241,485);
}
);
layerId = m001;
shapes = (
{
closed = 1;
nodes = (
(103,196,o),
(141,244,o),
(229,244,cs),
(360,244,l),
(360,109,l),
(329.333,63.667,o),
(281.667,28,o),
(219,28,cs),
(148.583,28,o),
(103,73.842,o),
(103,136,cs)
);
},
{
closed = 1;
nodes = (
(276.333,-13,o),
(329.667,14.667,o),
(363,52,c),
(371,0,l),
(409,0,l),
(409,340,ls),
(409,430.026,o),
(358.123,498,o),
(241,498,cs),
(167.408,498,o),
(111.83,471.99,o),
(86,456,c),
(105,423,l),
(149,445.667,o),
(196,457,o),
(244,457,cs),
(322.667,457,o),
(360,407.667,o),
(360,341,cs),
(360,281,l),
(225,281,ls),
(123.667,281,o),
(52,228,o),
(52,136,cs),
(52,52,o),
(105.667,-13,o),
(215,-13,cs)
);
}
);
width = 475;
},
{
anchors = (
{
name = bottom;
pos = (264,0);
},
{
name = top;
pos = (262,485);
}
);
layerId = m003;
shapes = (
{
closed = 1;
nodes = (
(184,181.667,o),
(201,198,o),
(225,198,cs),
(281,198,l),
(281,152,l),
(259.667,134.667,o),
(238.333,125,o),
(217,125,cs),
(198.548,125,o),
(184,139.525,o),
(184,159,cs)
);
},
{
closed = 1;
nodes = (
(255,-11,o),
(292.333,11.333,o),
(323,50,c),
(375,0,l),
(463,0,l),
(463,300,ls),
(463,425.56,o),
(392.109,502,o),
(262,502,cs),
(186.177,502,o),
(106.387,482.948,o),
(48,456,c),
(96,325,l),
(133.333,341,o),
(183.667,354,o),
(217,354,cs),
(247.667,354,o),
(272.333,339,o),
(279,303,cs),
(280,298,l),
(222,298,ls),
(110,298,o),
(32,261.333,o),
(32,156,cs),
(32,56,o),
(91,-11,o),
(214,-11,cs)
);
}
);
width = 509;
}
);
unicode = 97;
},
{
color = 5;
glyphname = "alef-hebr";
lastChange = "2023-07-12 06:14:23 +0000";
layers = (
{
anchors = (
{
name = Anchor_1;
pos = (329,0);
},
{
name = dagesh;
pos = (248,-99);
}
);
layerId = m001;
shapes = (
{
closed = 1;
nodes = (
(358,257,l),
(540,604,l),
(579,579,l),
(389,219,l),
(389,219,l)
);
},
{
closed = 1;
nodes = (
(520,0,l),
(75,587,l),
(122,604,l),
(581,0,l),
(581,0,l)
);
},
{
closed = 1;
nodes = (
(75,0,l),
(75,232,ls),
(75,337,o),
(126,391,o),
(224,439,c),
(251,408,l),
(159,360,o),
(124,320,o),
(124,237,cs),
(124,0,l),
(124,0,l)
);
}
);
width = 631;
},
{
anchors = (
{
name = Anchor_1;
pos = (329,0);
},
{
name = dagesh;
pos = (266,-159);
}
);
layerId = m003;
shapes = (
{
closed = 1;
nodes = (
(335,373,l),
(517,615,l),
(637,498,l),
(448,255,l),
(448,255,l)
);
},
{
closed = 1;
nodes = (
(424,0,l),
(40,555,l),
(200,616,l),
(629,0,l),
(629,0,l)
);
},
{
closed = 1;
nodes = (
(25,0,l),
(25,191,ls),
(25,319,o),
(97,395,o),
(208,449,c),
(276,345,l),
(226,306,o),
(205,285,o),
(205,227,cs),
(205,0,l),
(205,0,l)
);
}
);
width = 657;
},
{
anchors = (
{
name = Anchor_1;
pos = (329,0);
},
{
name = dagesh;
pos = (266,-159);
}
);
associatedMasterId = m003;
layerId = "87F4DE94-8CF7-459A-AC7D-57522B72DD93";
name = "Jul 7, 23, 20:10";
shapes = (
{
closed = 1;
nodes = (
(335,373,l),
(517,615,l),
(637,498,l),
(448,255,l)
);
},
{
closed = 1;
nodes = (
(424,0,l),
(40,555,l),
(200,616,l),
(629,0,l)
);
},
{
closed = 1;
nodes = (
(25,0,l),
(25,191,l),
(25,254,o),
(44,304,o),
(65,336,c),
(94,379,o),
(154,423,o),
(208,449,c),
(276,345,l),
(257,328,o),
(241,312,o),
(227,298,c),
(212,284,o),
(205,260,o),
(205,227,c),
(205,0,l)
);
}
);
visible = 1;
width = 657;
},
{
anchors = (
{
name = Anchor_1;
pos = (329,0);
},
{
name = dagesh;
pos = (248,-99);
}
);
associatedMasterId = m001;
layerId = "75AD5841-AE30-4FE5-B811-6BD72EECCC84";
name = "Jul 7, 23, 20:11";
shapes = (
{
closed = 1;
nodes = (
(358,257,l),
(540,604,l),
(579,579,l),
(389,219,l)
);
},
{
closed = 1;
nodes = (
(520,0,l),
(75,587,l),
(122,604,l),
(581,0,l)
);
},
{
closed = 1;
nodes = (
(75,0,l),
(75,232,l),
(75,293,o),
(94,335,o),
(117,363,c),
(143,395,o),
(187,421,o),
(224,439,c),
(251,408,l),
(238,400,o),
(205,384,o),
(177,360,c),
(143,331,o),
(124,293,o),
(124,237,c),
(124,0,l)
);
}
);
visible = 1;
width = 631;
}
);
unicode = 1488;
},
{
color = 5;
glyphname = "bet-hebr";
lastChange = "2023-07-12 06:14:23 +0000";
layers = (
{
anchors = (
{
name = Anchor_1;
pos = (268,0);
},
{
name = dagesh;
pos = (206,0);
}
);
layerId = m001;
shapes = (
{
closed = 1;
nodes = (
(430,39,l),
(490,39,l),
(485,0,l),
(65,0,l),
(65,39,l),
(381,39,l),
(381,551,l),
(65,551,l),
(75,590,l),
(430,590,l),
(430,590,l)
);
}
);
width = 520;
},
{
anchors = (
{
name = Anchor_1;
pos = (268,0);
},
{
name = dagesh;
pos = (141,0);
}
);
layerId = m003;
shapes = (
{
closed = 1;
nodes = (
(25,0,l),
(25,143,l),
(260,143,l),
(260,447,l),
(25,447,l),
(45,590,l),
(442,590,l),
(442,143,l),
(500,143,l),
(495,0,l),
(495,0,l)
);
}
);
width = 516;
}
);
unicode = 1489;
},
{
color = 5;
glyphname = "gimel-hebr";
lastChange = "2023-07-12 06:14:23 +0000";
layers = (
{
anchors = (
{
name = Anchor_1;
pos = (210,0);
},
{
name = dagesh;
pos = (121,21);
}
);
layerId = m001;
shapes = (
{
closed = 1;
nodes = (
(303,-10,l),
(278,65,ls),
(265.333,104.333,o),
(257,134.333,o),
(253,155,c),
(216,59,o),
(154,-8,o),
(52,-6,c),
(57,40,l),
(162.96,45.728,o),
(237,160.816,o),
(237,258,cs),
(237,551,l),
(68,551,l),
(78,590,l),
(286,590,l),
(286,259,ls),
(286,209.667,o),
(297,153.667,o),
(319,91,cs),
(350,3,l),
(350,3,l)
);
}
);
width = 380;
},
{
anchors = (
{
name = Anchor_1;
pos = (198,0);
},
{
name = dagesh;
pos = (100,36);
}
);
layerId = m003;
shapes = (
{
closed = 1;
nodes = (
(250,-10,l),
(238,52,ls),
(228.667,94,o),
(223,127,o),
(221,151,c),
(194.924,51.299,o),
(126.924,-18.573,o),
(6,-16,c),
(11,150,l),
(66,147,o),
(194,189,o),
(194,354,cs),
(194,447,l),
(26,447,l),
(46,590,l),
(376,590,l),
(376,295,ls),
(376,226.333,o),
(386.333,154.333,o),
(407,79,cs),
(426,3,l),
(426,3,l)
);
}
);
width = 424;
},
{
anchors = (
{
name = Anchor_1;
pos = (198,0);
},
{
name = dagesh;
pos = (100,36);
}
);
associatedMasterId = m003;
layerId = "BA1A0D17-218A-402E-AEDF-08BFA31148C2";
name = "Jul 7, 23, 20:15";
shapes = (
{
closed = 1;
nodes = (
(26,447,l),
(194,447,l),
(194,354,ls),
(194,281,o),
(135,189,o),
(45,148,o),
(11,150,q),
(6,-16,l),
(53,-17,o),
(125,5,o),
(204,86,o),
(221,151,q),
(224,115,o),
(238,52,q),
(250,-10,l),
(426,3,l),
(407,79,l),
(376,192,o),
(376,295,q),
(376,590,l),
(46,590,l)
);
}
);
visible = 1;
width = 424;
}
);
unicode = 1490;
},
{
color = 5;
glyphname = "dalet-hebr";
lastChange = "2023-07-12 06:14:23 +0000";
layers = (
{
anchors = (
{
name = Anchor_1;
pos = (367,0);
},
{
name = dagesh;
pos = (199,0);
}
);
layerId = m001;
shapes = (
{
closed = 1;
nodes = (
(354,0,l),
(354,551,l),
(60,551,l),
(70,590,l),
(485,590,l),
(480,551,l),
(403,551,l),
(403,0,l),
(403,0,l)
);
}
);
width = 523;
},
{
anchors = (
{
name = Anchor_1;
pos = (313,0);
},
{
name = dagesh;
pos = (121,0);
}
);
layerId = m003;
shapes = (
{
closed = 1;
nodes = (
(229,0,l),
(229,447,l),
(20,447,l),
(40,590,l),
(475,590,l),
(470,447,l),
(411,447,l),
(411,0,l),
(411,0,l)
);
}
);
width = 508;
}
);
unicode = 1491;
},
{
color = 5;
glyphname = "he-hebr";
lastChange = "2023-07-12 06:14:23 +0000";
layers = (
{
anchors = (
{
name = Anchor_1;
pos = (304,0);
},
{
name = dagesh;
pos = (295,0);
},
{
name = holam;
pos = (34,0);
}
);
layerId = m001;
shapes = (
{
closed = 1;
nodes = (
(462,0,l),
(462,409,ls),
(462,512,o),
(410,554,o),
(288,554,cs),
(202,554,o),
(136,535,o),
(87,516,c),
(68,553,l),
(106,571,o),
(189,595,o),
(288,595,cs),
(474,595,o),
(511,497,o),
(511,408,cs),
(511,0,l),
(511,0,l)
);
},
{
closed = 1;
nodes = (
(68,0,l),
(68,340,l),
(117,366,l),
(117,0,l),
(117,0,l)
);
}
);
width = 596;
},
{
anchors = (
{
name = Anchor_1;
pos = (304,0);
},
{
name = dagesh;
pos = (303,-24);
},
{
name = holam;
pos = (19,0);
}
);
layerId = m003;
shapes = (
{
closed = 1;
nodes = (
(369,0,l),
(369,319,ls),
(369,402,o),
(346,441,o),
(244,444,cs),
(172,446,o),
(100,429,o),
(41,414,c),
(15,563,l),
(52,574,o),
(144,595,o),
(253,595,cs),
(474,595,o),
(551,497,o),
(551,391,cs),
(551,0,l),
(551,0,l)
);
},
{
closed = 1;
nodes = (
(51,0,l),
(51,316,l),
(233,359,l),
(233,0,l),
(233,0,l)
);
}
);
width = 596;
}
);
unicode = 1492;
},
{
color = 5;
glyphname = "vav-hebr";
lastChange = "2023-07-12 06:14:23 +0000";
layers = (
{
anchors = (
{
name = Anchor_1;
pos = (218,0);
},
{
name = dagesh;
pos = (110,0);
}
);
layerId = m001;
shapes = (
{
closed = 1;
nodes = (
(190,0,l),
(190,551,l),
(60,551,l),
(70,590,l),
(239,590,l),
(239,0,l),
(239,0,l)
);
}
);
width = 329;
},
{
anchors = (
{
name = Anchor_1;
pos = (218,0);
},
{
name = dagesh;
pos = (65,-24);
}
);
layerId = m003;
shapes = (
{
closed = 1;
nodes = (
(123,0,l),
(123,447,l),
(20,447,l),
(40,590,l),
(305,590,l),
(305,0,l),
(305,0,l)
);
}
);
width = 355;
}
);
unicode = 1493;
},
{
color = 5;
glyphname = "zayin-hebr";
lastChange = "2023-07-12 06:14:23 +0000";
layers = (
{
anchors = (
{
name = Anchor_1;
pos = (275,0);
},
{
name = dagesh;
pos = (110,0);
}
);
layerId = m001;
shapes = (
{
closed = 1;
nodes = (
(243,-4,l),
(140,550,l),
(60,550,l),
(70,590,l),
(339,590,l),
(330,550,l),
(189,550,l),
(292,3,l),
(292,3,l)
);
}
);
width = 394;
},
{
anchors = (
{
name = Anchor_1;
pos = (275,0);
},
{
name = dagesh;
pos = (65,-27);
}
);
layerId = m003;
shapes = (
{
closed = 1;
nodes = (
(175,-14,l),
(100,447,l),
(20,447,l),
(40,590,l),
(366,590,l),
(345,447,l),
(283,447,l),
(356,11,l),
(356,11,l)
);
}
);
width = 386;
}
);
unicode = 1494;
},
{
color = 5;
glyphname = "het-hebr";
lastChange = "2023-07-12 06:14:23 +0000";
layers = (
{
anchors = (
{
name = Anchor_1;
pos = (313,0);
},
{
name = dagesh;
pos = (301,0);
}
);
layerId = m001;
shapes = (
{
closed = 1;
nodes = (
(476,0,l),
(476,422,ls),
(476,536,o),
(393,552,o),
(257,552,cs),
(216,552,o),
(176,551,o),
(139,548,c),
(139,0,l),
(90,0,l),
(90,582,l),
(148,590,o),
(221,596,o),
(295,596,cs),
(487,596,o),
(525,519,o),
(525,421,cs),
(525,0,l),
(525,0,l)
);
}
);
width = 610;
},
{
anchors = (
{
name = Anchor_1;
pos = (320,0);
},
{
name = dagesh;
pos = (308,-21);
}
);
layerId = m003;
shapes = (
{
closed = 1;
nodes = (
(399,0,l),
(399,349,ls),
(399,416,o),
(376,444,o),
(298,444,cs),
(264,444,o),
(242,443,o),
(227,442,c),
(227,0,l),
(45,0,l),
(45,574,l),
(90,585,o),
(184,598,o),
(306,595,cs),
(497,590,o),
(581,506,o),
(581,385,cs),
(581,0,l),
(581,0,l)
);
}
);
width = 626;
}
);
unicode = 1495;
},
{
color = 5;
glyphname = "tet-hebr";
lastChange = "2023-07-12 06:14:23 +0000";
layers = (
{
anchors = (
{
name = Anchor_1;
pos = (312,0);
},
{
name = dagesh;
pos = (396,0);
}
);
layerId = m001;
shapes = (
{
closed = 1;
nodes = (
(141,-12,o),
(85,116,o),
(85,253,cs),
(85,590,l),
(132,590,l),
(134,253,ls),
(134,87,o),
(217,33,o),
(319,33,cs),
(421,33,o),
(504,87,o),
(504,253,cs),
(505,551,l),
(459,549,o),
(371,514,o),
(320,346,c),
(281,367,l),
(329,535,o),
(431,590,o),
(524,590,cs),
(553,590,l),
(553,253,ls),
(553,116,o),
(497,-10,o),
(319,-11,cs)
);
}
);
width = 638;
},
{
anchors = (
{
name = Anchor_1;
pos = (312,0);
},
{
name = dagesh;
pos = (337,-9);
}
);
layerId = m003;
shapes = (
{
closed = 1;
nodes = (
(199,-11,o),
(45,54,o),
(45,290,cs),
(45,590,l),
(227,590,l),
(227,265,ls),
(227,180,o),
(272,150,o),
(337,150,cs),
(416,150,o),
(439,197,o),
(439,265,cs),
(439,418,l),
(421,417,o),
(390,381,o),
(362,354,c),
(275,460,l),
(330,535,o),
(410,590,o),
(512,590,cs),
(621,590,l),
(621,290,ls),
(621,54,o),
(480,-11,o),
(337,-11,cs)
);
}
);
width = 666;
}
);
unicode = 1496;
},
{
color = 5;
glyphname = "yod-hebr";
lastChange = "2023-07-12 06:14:23 +0000";
layers = (
{
anchors = (
{
name = Anchor_1;
pos = (210,0);
},
{
name = dagesh;
pos = (108,138);
}
);
layerId = m001;
shapes = (
{
closed = 1;
nodes = (
(191,267,l),
(191,551,l),
(60,551,l),
(70,590,l),
(240,590,l),
(240,284,l),
(240,284,l)
);
}
);
width = 330;
},
{
anchors = (
{
name = Anchor_1;
pos = (210,0);
},
{
name = dagesh;
pos = (54,51);
}
);
layerId = m003;
shapes = (
{
closed = 1;
nodes = (
(123,230,l),
(123,447,l),
(20,447,l),
(40,590,l),
(305,590,l),
(305,270,l),
(305,270,l)
);
}
);
width = 355;
}
);
unicode = 1497;
},
{
color = 5;
glyphname = "finalkaf-hebr";
lastChange = "2023-07-12 06:14:23 +0000";
layers = (
{
anchors = (
{
name = Anchor_1;
pos = (249,351);
},
{
name = dagesh;
pos = (225,0);
}
);
layerId = m001;
shapes = (
{
closed = 1;
nodes = (
(411,-198,l),
(411,329,ls),
(411,446,o),
(381,554,o),
(222,554,cs),
(184,554,o),
(134,549,o),
(79,533,c),
(65,572,l),
(113,585,o),
(169,593,o),
(226,593,cs),
(380,593,o),
(460,522,o),
(460,338,cs),
(460,-179,l),
(460,-179,l)
);
}
);
width = 540;
},
{
anchors = (
{
name = Anchor_1;
pos = (204,351);
},
{
name = dagesh;
pos = (186,-42);
}
);
layerId = m003;
shapes = (
{
closed = 1;
nodes = (
(320,-208,l),
(320,329,ls),
(320,402,o),
(293,444,o),
(214,444,cs),
(165,444,o),
(110,431,o),
(58,414,c),
(35,563,l),
(70,574,o),
(144,595,o),
(234,595,cs),
(425,595,o),
(502,497,o),
(502,391,cs),
(502,-172,l),
(502,-172,l)
);
}
);
width = 547;
}
);
unicode = 1498;
},
{
color = 5;
glyphname = "kaf-hebr";
lastChange = "2023-07-12 06:14:23 +0000";
layers = (
{
anchors = (
{
name = Anchor_1;
pos = (261,0);
},
{
name = dagesh;
pos = (216,0);
}
);
layerId = m001;
shapes = (
{
closed = 1;
nodes = (
(152,-14,o),
(95,-1,o),
(55,17,c),
(71,57,l),
(121,41,o),
(163,29,o),
(222,29,cs),
(318,29,o),
(419,67,o),
(419,289,cs),
(419,509,o),
(332,554,o),
(215,554,cs),
(166,554,o),
(120,547,o),
(73,533,c),
(59,572,l),
(101,585,o),
(158,595,o),
(209,595,cs),
(338,595,o),
(468,552,o),
(468,290,cs),
(468,38,o),
(339,-14,o),
(216,-14,cs)
);
}
);
width = 533;
},
{
anchors = (
{
name = Anchor_1;
pos = (261,0);
},
{
name = dagesh;
pos = (153,0);
}
);
layerId = m003;
shapes = (
{
closed = 1;
nodes = (
(121,-13,o),
(63,0,o),
(15,14,c),
(38,162,l),
(93,149,o),
(130,148,o),
(171,148,cs),
(261,148,o),
(300,177,o),
(300,291,cs),
(300,401,o),
(282,445,o),
(177,445,cs),
(121,445,o),
(81,438,o),
(37,430,c),
(16,575,l),
(53,584,o),
(117,596,o),
(190,596,cs),
(373,596,o),
(482,525,o),
(482,291,cs),
(482,57,o),
(374,-13,o),
(214,-13,cs)
);
}
);
width = 507;
},
{
anchors = (
{
name = Anchor_1;
pos = (261,0);
},
{
name = dagesh;
pos = (153,0);
}
);
associatedMasterId = m003;
layerId = "B9B19AB0-196D-413A-94FD-4514DA15790B";
name = "Jul 7, 23, 20:46";
shapes = (
{
closed = 1;
nodes = (
(121,-13,o),
(63,0,o),
(15,14,c),
(38,162,l),
(93,149,o),
(153,146,o),
(194,149,cs),
(270,155,o),
(300,188,o),
(300,291,cs),
(300,385,o),
(286,437,o),
(205,444,cs),
(143,449,o),
(81,438,o),
(37,430,c),
(16,575,l),
(53,584,o),
(131,600,o),
(214,595,cs),
(377,585,o),
(482,525,o),
(482,291,cs),
(482,57,o),
(374,-13,o),
(214,-13,cs)
);
}
);
width = 507;
},
{
anchors = (
{
name = Anchor_1;
pos = (261,0);
},
{
name = dagesh;
pos = (216,0);
}
);
associatedMasterId = m001;
layerId = "6F01744F-27A4-4A16-A14B-8DA56D9ACBE4";
name = "Jul 7, 23, 20:49";
shapes = (
{
closed = 1;
nodes = (
(342,-6,o),
(468,38,o),
(468,290,c),
(468,552,o),
(334,585,o),
(244,593,c),
(177,599,o),
(101,586,o),
(59,572,c),
(73,533,l),
(120,547,o),
(184,558,o),
(244,553,c),
(311,546,o),
(419,529,o),
(419,289,c),
(419,67,o),
(319,37,o),
(252,31,c),
(189,25,o),
(121,41,o),
(71,57,c),
(55,17,l),
(95,-1,o),
(168,-18,o),
(241,-13,c)
);
}
);
visible = 1;
width = 533;
}
);
unicode = 1499;
},
{
color = 5;
glyphname = "lamed-hebr";
lastChange = "2023-07-12 06:14:23 +0000";
layers = (
{
anchors = (
{
name = Anchor_1;
pos = (261,0);
},
{
name = dagesh;
pos = (201,90);
},
{
name = holam;
pos = (-33,0);
}
);
layerId = m001;
shapes = (
{
closed = 1;
nodes = (
(168,17,l),
(443,550,l),
(60,550,l),
(60,725,l),
(111,725,l),
(111,590,l),
(496,590,l),
(495,553,l),
(211,-8,l),
(211,-8,l)
);
}
);
width = 556;
},
{
anchors = (
{
name = Anchor_1;
pos = (261,0);
},
{
name = dagesh;
pos = (118,57);
},
{
name = holam;
pos = (-33,0);
}
);
layerId = m003;
shapes = (
{
closed = 1;
nodes = (
(59,49,l),
(275,447,l),
(20,447,l),
(20,725,l),
(202,725,l),
(202,590,l),
(486,590,l),
(485,447,l),
(231,-12,l),
(231,-12,l)
);
}
);
width = 506;
}
);
unicode = 1500;
},
{
color = 5;
glyphname = "finalmem-hebr";
lastChange = "2023-07-12 06:14:23 +0000";
layers = (
{
anchors = (
{
name = Anchor_1;
pos = (312,0);
},
{
name = dagesh;
pos = (303,0);
}
);
layerId = m001;
shapes = (
{
closed = 1;
nodes = (
(464,553,l),
(134,553,l),
(134,37,l),
(464,37,l),
(464,37,l)
);
},
{
closed = 1;
nodes = (
(85,0,l),
(85,590,l),
(513,590,l),
(513,0,l),
(513,0,l)
);
}
);
width = 603;
},
{
anchors = (
{
name = Anchor_1;
pos = (312,0);
},
{
name = dagesh;
pos = (319,3);
}
);
layerId = m003;
shapes = (
{
closed = 1;
nodes = (
(402,447,l),
(232,447,l),
(232,143,l),
(402,143,l),
(402,143,l)
);
},
{
closed = 1;
nodes = (
(50,0,l),
(50,590,l),
(584,590,l),
(584,0,l),
(584,0,l)
);
}
);
width = 634;
}
);
unicode = 1501;
},
{
color = 5;
glyphname = "mem-hebr";
lastChange = "2023-07-12 06:14:23 +0000";
layers = (
{
anchors = (
{
name = Anchor_1;
pos = (350,0);
},
{
name = dagesh;
pos = (386,0);
}
);
layerId = m001;
shapes = (
{
closed = 1;
nodes = (
(327,-9,o),
(294,-1,o),
(264,13,c),
(280,54,l),
(313,42,o),
(340,37,o),
(372,37,cs),
(506,37,o),
(523,161,o),
(523,289,cs),
(523,551,l),
(236,551,o),
(197,221,o),
(111,-11,c),
(64,4,l),
(163,289,o),
(212,590,o),
(522,590,cs),
(570,590,l),
(570,258,ls),
(570,64,o),
(494,-9,o),
(363,-9,cs)
);
},
{
closed = 1;
nodes = (
(55,579,l),
(101,598,l),
(233,413,l),
(215,355,l),
(215,355,l)
);
}
);
width = 654;
},
{
anchors = (
{
name = Anchor_1;
pos = (350,0);
},
{
name = dagesh;
pos = (374,-12);
}
);
layerId = m003;
shapes = (
{
closed = 1;
nodes = (
(365,-13,o),
(323,-7,o),
(294,4,c),
(327,153,l),
(348,149,o),
(366,147,o),
(381,147,cs),
(440,147,o),
(454,176,o),
(454,289,cs),
(454,445,l),
(296,445,o),
(238,127,o),
(203,-17,c),
(27,14,l),
(69,263,o),
(202,590,o),
(470,590,cs),
(632,590,l),
(632,259,ls),
(632,73,o),
(542,-13,o),
(410,-13,cs)
);
},
{
closed = 1;
nodes = (
(9,557,l),
(163,614,l),
(258,470,l),
(190,267,l),
(190,267,l)
);
}
);
width = 676;
},
{
anchors = (
{
name = Anchor_1;
pos = (350,0);
},
{
name = dagesh;
pos = (374,-12);
}
);
associatedMasterId = m003;
layerId = "FCC064F0-9D35-4292-8296-D63F7946555B";
name = "Jul 7, 23, 20:55";
shapes = (
{
closed = 1;
nodes = (
(235,115,o),
(263,225,o),
(301,308,c),
(347,408,o),
(399,445,o),
(445,445,c),
(454,445,l),
(454,289,l),
(454,251,o),
(454,220,o),
(449,198,c),
(441,163,o),
(423,147,o),
(381,147,c),
(366,147,o),
(348,149,o),
(327,153,c),
(294,4,l),
(323,-7,o),
(365,-13,o),
(410,-13,cs),
(542,-13,o),
(636,73,o),
(636,259,c),
(636,366,l),
(636,441,o),
(632,525,o),
(632,590,c),
(470,590,l),
(320,590,o),
(232,494,o),
(185,425,c),
(107,309,o),
(52,162,o),
(27,14,c),
(203,-17,l)
);
},
{
closed = 1;
nodes = (
(9,557,l),
(163,614,l),
(258,470,l),
(190,267,l)
);
}
);
visible = 1;
width = 676;
},
{
anchors = (
{
name = Anchor_1;
pos = (350,0);
},
{
name = dagesh;
pos = (386,0);
}
);
associatedMasterId = m001;
layerId = "5C7ADC41-DE7C-456F-9A19-B7C73F6CF2DC";
name = "Jul 7, 23, 20:57";
shapes = (
{
closed = 1;
nodes = (
(327,-9,o),
(294,-1,o),
(264,13,c),
(280,54,l),
(313,42,o),
(340,37,o),
(372,37,cs),
(443,37,o),
(486,74,o),
(506,135,c),
(517,167,o),
(523,218,o),
(523,289,c),
(523,551,l),
(354,551,o),
(279,450,o),
(240,352,c),
(197,248,o),
(163,145,o),
(111,-11,c),
(64,4,l),
(118,158,o),
(165,305,o),
(215,405,c),
(266,505,o),
(362,590,o),
(522,590,c),
(570,590,l),
(572,533,o),
(572,469,o),
(572,403,c),
(572,258,l),
(572,64,o),
(494,-9,o),
(363,-9,cs)
);
},
{
closed = 1;
nodes = (
(55,579,l),
(101,598,l),
(233,413,l),
(215,355,l)
);
}
);
visible = 1;
width = 654;
}
);
unicode = 1502;
},
{
color = 5;
glyphname = "finalnun-hebr";
lastChange = "2023-07-12 06:14:23 +0000";
layers = (
{
anchors = (
{
name = Anchor_1;
pos = (111,375);
},
{
name = dagesh;
pos = (117,0);
}
);
layerId = m001;
shapes = (
{
closed = 1;
nodes = (
(195,-198,l),
(195,551,l),
(60,551,l),
(70,590,l),
(244,590,l),
(244,-179,l),
(244,-179,l)
);
}
);
width = 334;
},
{
anchors = (
{
name = Anchor_1;
pos = (60,360);
},
{
name = dagesh;
pos = (48,-48);
}
);
layerId = m003;
shapes = (
{
closed = 1;
nodes = (
(123,-208,l),
(123,447,l),
(20,447,l),
(40,590,l),
(305,590,l),
(305,-172,l),
(305,-172,l)
);
}
);
width = 355;
}
);
unicode = 1503;
},
{
color = 5;
glyphname = "nun-hebr";
lastChange = "2023-07-12 06:14:23 +0000";
layers = (
{
anchors = (
{
name = Anchor_1;
pos = (220,0);
},
{
name = dagesh;
pos = (160,0);
}
);
layerId = m001;
shapes = (
{
closed = 1;
nodes = (
(60,0,l),
(60,39,l),
(284,39,l),
(284,399,ls),
(284,505,o),
(257,553,o),
(171,553,cs),
(145,553,o),
(117,548,o),
(87,539,c),
(77,575,l),
(106,587,o),
(137,593,o),
(171,593,cs),
(275,593,o),
(333,536,o),
(333,420,cs),
(333,0,l),
(333,0,l)
);
}
);
width = 418;
},
{
anchors = (
{
name = Anchor_1;
pos = (220,0);
},
{
name = dagesh;
pos = (99,0);
}
);
layerId = m003;
shapes = (
{
closed = 1;
nodes = (
(25,0,l),
(25,143,l),
(185,143,l),
(185,368,ls),
(185,421,o),
(160,441,o),
(118,441,cs),
(95,441,o),
(72,437,o),
(47,429,c),
(20,572,l),
(65,586,o),
(115,593,o),
(161,593,cs),
(302,593,o),
(363,520,o),
(363,400,cs),
(363,0,l),
(363,0,l)
);
}
);
width = 408;
},
{
anchors = (
{
name = Anchor_1;
pos = (220,0);
},
{
name = dagesh;
pos = (99,0);
}
);
associatedMasterId = m003;
layerId = "86EF9B81-A823-460D-8655-50440CDB7AEC";
name = "Jul 7, 23, 21:27";
shapes = (
{
closed = 1;
nodes = (
(25,0,l),
(25,143,l),
(185,143,l),
(185,368,l),
(182,421,o),
(160,441,o),
(118,441,cs),
(95,441,o),
(72,437,o),
(47,429,c),
(20,572,l),
(65,586,o),
(115,594,o),
(161,593,c),
(302,590,o),
(363,520,o),
(363,400,c),
(363,0,l)
);
}
);
visible = 1;
width = 408;
}
);
unicode = 1504;
},
{
color = 5;
glyphname = "samekh-hebr";
lastChange = "2023-07-12 06:14:23 +0000";
layers = (
{
anchors = (
{
name = Anchor_1;
pos = (327,0);
},
{
name = dagesh;
pos = (309,0);
}
);
layerId = m001;
shapes = (
{
closed = 1;
nodes = (
(416,25,o),
(505,95,o),
(505,290,cs),
(505,499,o),
(425,553,o),
(255,553,cs),
(216,553,o),
(184,551,o),
(134,544,c),
(134,266,ls),
(134,89,o),
(220,31,o),
(316,28,cs)
);
},
{
closed = 1;
nodes = (
(117,-10,o),
(85,154,o),
(85,284,cs),
(85,581,l),
(130,587,o),
(191,596,o),
(258,596,cs),
(479,596,o),
(554,514,o),
(554,290,cs),
(554,102,o),
(479,-16,o),
(312,-13,cs)
);
}
);
width = 617;
},
{
anchors = (
{
name = Anchor_1;
pos = (327,0);
},
{
name = dagesh;
pos = (316,15);
}
);
layerId = m003;
shapes = (
{
closed = 1;
nodes = (
(379,150,o),
(408,175,o),
(408,300,cs),
(408,401,o),
(384,442,o),
(295,442,cs),
(272,442,o),
(250,442,o),
(227,442,c),
(227,275,ls),
(227,163,o),
(275,150,o),
(314,150,cs)
);
},
{
closed = 1;
nodes = (
(53,-11,o),
(45,216,o),
(45,290,cs),
(45,574,l),
(111,586,o),
(183,595,o),
(298,595,cs),
(534,595,o),
(588,494,o),
(588,300,cs),
(588,80,o),
(478,-11,o),
(318,-11,cs)
);
}
);
width = 618;
},
{
anchors = (
{
name = Anchor_1;
pos = (327,0);
},
{
name = dagesh;
pos = (309,0);
}
);
associatedMasterId = m001;
layerId = "5B57FAD4-E8A3-4E57-AC2F-11387F7BFB7C";
name = "Jul 7, 23, 21:30";
shapes = (
{
closed = 1;
nodes = (
(416,25,o),
(505,95,o),
(505,290,c),
(505,510,o),
(405,544,o),
(316,550,c),
(255,555,o),
(184,551,o),
(134,544,c),
(134,266,ls),
(134,89,o),
(220,31,o),
(316,28,c)
);
},
{
closed = 1;
nodes = (
(117,-10,o),
(85,154,o),
(85,284,cs),
(85,581,l),
(130,587,o),
(207,600,o),
(310,593,c),
(469,583,o),
(554,514,o),
(554,290,c),
(554,102,o),
(479,-16,o),
(312,-13,c)
);
}
);
visible = 1;
width = 617;
},
{
anchors = (
{
name = Anchor_1;
pos = (327,0);
},
{
name = dagesh;
pos = (316,15);
}
);
associatedMasterId = m003;
layerId = "A70D5772-E391-4D18-BB65-CC06130CFBE0";
name = "Jul 7, 23, 21:30";
shapes = (
{
closed = 1;
nodes = (
(379,150,o),
(408,175,o),
(408,300,cs),
(408,401,o),
(384,442,o),
(295,442,cs),
(227,442,l),
(227,275,ls),
(227,163,o),
(275,150,o),
(314,150,cs)
);
},
{
closed = 1;
nodes = (
(53,-11,o),
(45,216,o),
(45,290,cs),
(45,574,l),
(111,586,o),
(183,595,o),
(298,595,cs),
(534,595,o),
(588,494,o),
(588,300,cs),
(588,80,o),
(478,-11,o),
(318,-11,cs)
);
}
);
width = 618;
}
);
unicode = 1505;
},
{
color = 5;
glyphname = "ayin-hebr";
lastChange = "2023-07-12 06:14:23 +0000";
layers = (
{
anchors = (
{
name = Anchor_1;
pos = (303,0);
},
{
name = dagesh;
pos = (321,0);
}
);
layerId = m001;
shapes = (
{
closed = 1;
nodes = (
(178,-13,o),
(100,0,o),
(50,16,c),
(63,57,l),
(125,40,o),
(184,28,o),
(247,28,cs),
(389,28,o),
(452,86,o),
(452,289,cs),
(452,590,l),
(501,590,l),
(501,290,ls),
(501,142,o),
(468,-13,o),
(247,-13,cs)
);
},
{
closed = 1;
nodes = (
(225,18,l),
(78,585,l),
(126,597,l),
(270,26,l),
(270,26,l)
);
}
);
width = 586;
},
{
anchors = (
{
name = Anchor_1;
pos = (303,0);
},
{
name = dagesh;
pos = (326,69);
}
);
layerId = m003;
shapes = (
{
closed = 1;
nodes = (
(138,-13,o),
(69,-4,o),
(10,13,c),
(31,169,l),
(88,155,o),
(142,148,o),
(201,148,cs),
(351,148,o),
(385,208,o),
(385,340,cs),
(385,590,l),
(567,590,l),
(567,323,ls),
(567,80,o),
(426,-13,o),
(233,-13,cs)
);
},
{
closed = 1;
nodes = (
(182,61,l),
(29,576,l),
(208,602,l),
(343,62,l),
(343,62,l)
);
}
);
width = 612;
},
{
anchors = (
{
name = Anchor_1;
pos = (303,0);
},
{
name = dagesh;
pos = (326,69);
}
);
associatedMasterId = m003;
layerId = "AC97674A-D23B-43F7-BF31-7CDCFC8C7AD0";
name = "Jul 7, 23, 21:33";
shapes = (
{
closed = 1;
nodes = (
(426,-12,o),
(567,80,o),
(567,323,c),
(567,590,l),
(385,590,l),
(385,340,l),
(385,208,o),
(351,148,o),
(201,148,c),
(142,148,o),
(88,155,o),
(31,169,c),
(10,13,l),
(69,-4,o),
(138,-13,o),
(233,-13,c)
);
},
{
closed = 1;
nodes = (
(29,576,l),
(208,602,l),
(343,62,l),
(182,61,l)
);
}
);
width = 612;
},
{
anchors = (
{
name = Anchor_1;
pos = (303,0);
},
{
name = dagesh;
pos = (321,0);
}
);
associatedMasterId = m001;
layerId = "82858D8C-3377-4B37-AC1E-F98FDE2A0A49";
name = "Jul 7, 23, 21:33";
shapes = (
{
closed = 1;
nodes = (
(468,-12,o),
(501,142,o),
(501,290,c),
(501,590,l),
(452,590,l),
(452,289,l),
(452,86,o),
(389,28,o),
(247,28,c),
(184,28,o),
(125,40,o),
(63,57,c),
(50,16,l),
(100,0,o),
(178,-13,o),
(247,-13,c)
);
},
{
closed = 1;
nodes = (
(78,585,l),
(126,597,l),
(270,26,l),
(225,18,l)
);
}
);
width = 586;
}
);
unicode = 1506;
},
{
color = 5;
glyphname = "finalpe-hebr";
lastChange = "2023-07-12 06:14:23 +0000";
layers = (
{
anchors = (
{
name = Anchor_1;
pos = (336,336);
},
{
name = dagesh;
pos = (315,0);
}
);
layerId = m001;
shapes = (
{
closed = 1;
nodes = (
(461,-198,l),
(461,320,ls),
(461,470,o),
(407,545,o),
(298,551,cs),
(221,556,o),
(146,550,o),
(124,548,c),
(115,364,ls),
(113,316,o),
(132,283,o),
(214,226,c),
(192,191,l),
(102,239,o),
(62,290,o),
(65,352,cs),
(75,581,l),
(130,589,o),
(183,595,o),
(244,595,cs),
(411,595,o),
(510,551,o),
(510,316,cs),
(510,-179,l),
(510,-179,l)
);
}
);
width = 595;
},
{
anchors = (
{
name = Anchor_1;
pos = (312,336);
},
{
name = dagesh;
pos = (311,-66);
}
);
layerId = m003;
shapes = (
{
closed = 1;
nodes = (
(378,-208,l),
(378,334,ls),
(378,406,o),
(355,444,o),
(295,443,cs),
(262,442,o),
(234,443,o),
(220,443,c),
(220,405,ls),
(220,357,o),
(226,322,o),
(272,280,c),
(174,174,l),
(83,230,o),
(38,286,o),
(42,368,cs),
(52,581,l),
(118,590,o),
(202,598,o),
(288,595,cs),
(451,589,o),
(560,525,o),
(560,322,cs),
(560,-172,l),
(560,-172,l)
);
}
);
width = 605;
}
);
unicode = 1507;
},
{
color = 5;
glyphname = "pe-hebr";
lastChange = "2023-07-12 06:14:23 +0000";
layers = (
{
anchors = (
{
name = Anchor_1;
pos = (314,0);
},
{
name = dagesh;
pos = (320,0);
}
);
layerId = m001;
shapes = (
{
closed = 1;
nodes = (
(179,-13,o),
(115,-1,o),
(65,23,c),
(84,64,l),
(140,40,o),
(199,29,o),
(261,29,cs),
(421,29,o),
(469,131,o),
(469,318,cs),
(469,488,o),
(412,554,o),
(248,554,cs),
(211,554,o),
(190,553,o),
(133,548,c),
(123,364,ls),
(121,320,o),
(140,284,o),
(203,237,c),
(181,202,l),
(108,240,o),
(70,293,o),
(73,352,cs),
(83,581,l),
(140,590,o),
(197,595,o),
(253,595,cs),
(413,595,o),
(518,551,o),
(518,316,cs),
(518,87,o),
(445,-13,o),
(252,-13,cs)
);
}
);
width = 581;
},
{
anchors = (
{
name = Anchor_1;
pos = (314,0);
},
{
name = dagesh;
pos = (288,-57);
}
);
layerId = m003;
shapes = (
{
closed = 1;
nodes = (
(144,-13,o),
(64,6,o),
(30,22,c),
(51,170,l),
(116,152,o),
(158,143,o),
(217,143,cs),
(345,143,o),
(370,198,o),
(370,307,cs),
(370,415,o),
(340,448,o),
(278,448,cs),
(258,448,o),
(237,448,o),
(213,447,c),
(211,412,ls),
(209,372,o),
(217,342,o),
(251,293,c),
(160,195,l),
(64,255,o),
(23,305,o),
(33,414,cs),
(48,575,l),
(108,590,o),
(185,597,o),
(279,597,cs),
(452,597,o),
(552,517,o),
(552,291,cs),
(552,98,o),
(465,-13,o),
(242,-13,cs)
);
}
);
width = 582;
},
{
anchors = (
{
name = Anchor_1;
pos = (314,0);
},
{
name = dagesh;
pos = (320,0);
}
);
associatedMasterId = m001;
layerId = "5D725D3B-CEC9-46F3-A17F-01C479F80369";
name = "Jul 7, 23, 21:37";
shapes = (
{
closed = 1;
nodes = (
(445,-13,o),
(518,87,o),
(518,316,c),
(518,551,o),
(413,595,o),
(253,595,c),
(197,595,o),
(140,590,o),
(83,581,c),
(73,352,l),
(73,293,o),
(108,240,o),
(181,202,c),
(203,237,l),
(140,284,o),
(123,320,o),
(123,364,c),
(133,548,l),
(190,554,o),
(251,555,o),
(296,552,c),
(410,545,o),
(469,477,o),
(469,318,c),
(469,131,o),
(421,29,o),
(261,29,c),
(199,29,o),
(140,40,o),
(84,64,c),
(65,23,l),
(115,-1,o),
(179,-13,o),
(252,-13,c)
);
}
);
visible = 1;
width = 581;
},
{
anchors = (
{
name = Anchor_1;
pos = (314,0);
},
{
name = dagesh;
pos = (288,-57);
}
);
associatedMasterId = m003;
layerId = "5C70D3C6-15EF-48D3-84CE-FB29936C9546";
name = "Jul 7, 23, 21:37";
shapes = (
{
closed = 1;
nodes = (
(465,-13,o),
(552,98,o),
(552,291,c),
(552,517,o),
(452,595,o),
(279,597,c),
(185,597,o),
(108,590,o),
(48,575,c),
(33,414,l),
(24,305,o),
(64,255,o),
(160,195,c),
(251,293,l),
(217,342,o),
(211,372,o),
(211,412,c),
(213,447,l),
(237,448,o),
(258,448,o),
(278,448,c),
(340,448,o),
(370,415,o),
(370,307,c),
(370,198,o),
(345,138,o),
(217,143,c),
(154,146,o),
(116,152,o),
(51,170,c),
(30,22,l),
(64,6,o),
(144,-13,o),
(242,-13,c)
);
}
);
width = 582;
}
);
unicode = 1508;
},
{
color = 5;
glyphname = "finaltsadi-hebr";
lastChange = "2023-07-12 06:14:23 +0000";
layers = (
{
anchors = (
{
name = Anchor_1;
pos = (175,252);
},
{
name = dagesh;
pos = (295,153);
}
);
layerId = m001;
shapes = (
{
closed = 1;
nodes = (
(441,-211,l),
(50,582,l),
(94,602,l),
(484,-187,l),
(484,-187,l)
);
},
{
closed = 1;
nodes = (
(271,188,l),
(488,604,l),
(527,577,l),
(302,154,l),
(302,154,l)
);
}
);
width = 565;
},
{
anchors = (
{
name = Anchor_1;
pos = (170,252);
},
{
name = dagesh;
pos = (281,231);
}
);
layerId = m003;
shapes = (
{
closed = 1;
nodes = (
(417,-229,l),
(0,557,l),
(158,610,l),
(561,-147,l),
(561,-147,l)
);
},
{
closed = 1;
nodes = (
(238,366,l),
(462,621,l),
(581,509,l),
(350,233,l),
(350,233,l)
);
}
);
width = 589;
},
{
anchors = (
{
name = Anchor_1;
pos = (175,252);
},
{
name = dagesh;
pos = (295,153);
}
);
associatedMasterId = m001;
layerId = "C1ABFB15-D822-4B92-B824-BCF1C87565EE";
name = "Jul 7, 23, 21:40";
shapes = (
{
closed = 1;
nodes = (
(441,-211,l),
(484,-187,l),
(94,602,l),
(50,582,l)
);
},
{
closed = 1;
nodes = (
(527,577,l),
(488,604,l),
(271,188,l),
(302,154,l)
);
}
);
width = 565;
},
{
anchors = (
{
name = Anchor_1;
pos = (170,252);
},
{
name = dagesh;
pos = (281,231);
}
);
associatedMasterId = m003;
layerId = "53FD6DC7-7870-4EA6-814A-6BF8D085E75B";
name = "Jul 7, 23, 21:40";
shapes = (
{
closed = 1;
nodes = (
(417,-229,l),
(561,-147,l),
(158,610,l),
(0,557,l)
);
},
{
closed = 1;
nodes = (
(581,509,l),
(462,621,l),
(238,366,l),
(350,233,l)
);
}
);
width = 589;
}
);
unicode = 1509;
},
{
color = 5;
glyphname = "tsadi-hebr";
lastChange = "2023-07-12 06:14:23 +0000";
layers = (
{
anchors = (
{
name = Anchor_1;
pos = (300,0);
},
{
name = dagesh;
pos = (189,-99);
}
);
layerId = m001;
shapes = (
{
closed = 1;
nodes = (
(75,0,l),
(75,39,l),
(444,39,l),
(45,586,l),
(91,603,l),
(498,39,l),
(485,0,l),
(485,0,l)
);
},
{
closed = 1;
nodes = (
(306,257,l),
(488,604,l),
(526,579,l),
(336,219,l),
(336,219,l)
);
}
);
width = 570;
},
{
anchors = (
{
name = Anchor_1;
pos = (300,0);
},
{
name = dagesh;
pos = (162,-75);
}
);
layerId = m003;
shapes = (
{
closed = 1;
nodes = (
(45,0,l),
(45,143,l),
(310,143,l),
(5,557,l),
(158,619,l),
(520,143,l),
(495,0,l),
(495,0,l)
);
},
{
closed = 1;
nodes = (
(271,372,l),
(467,618,l),
(581,503,l),
(378,259,l),
(378,259,l)
);
}
);
width = 585;
},
{
anchors = (
{
name = Anchor_1;
pos = (300,0);
},
{
name = dagesh;
pos = (189,-99);
}
);
associatedMasterId = m001;
layerId = "74B13810-4BCA-46A1-920F-04FD0F2714F2";
name = "Jul 7, 23, 21:41";
shapes = (
{
closed = 1;
nodes = (
(91,603,l),
(45,586,l),
(444,39,l),
(75,39,l),
(75,0,l),
(485,0,l),
(498,39,l)
);
},
{
closed = 1;
nodes = (
(526,579,l),
(488,604,l),
(306,257,l),
(336,219,l)
);
}
);
width = 570;
},
{
anchors = (
{
name = Anchor_1;
pos = (300,0);
},
{
name = dagesh;
pos = (162,-75);
}
);
associatedMasterId = m003;
layerId = "6CADA5F7-5B48-4F6A-8CA9-53B5A96ADDE3";
name = "Jul 7, 23, 21:41";
shapes = (
{
closed = 1;
nodes = (
(158,619,l),
(5,557,l),
(310,143,l),
(45,143,l),
(45,0,l),
(495,0,l),
(520,143,l)
);
},
{
closed = 1;
nodes = (
(581,503,l),
(467,618,l),
(271,372,l),
(378,259,l)
);
}
);
width = 585;
}
);
unicode = 1510;
},
{
color = 5;
glyphname = "qof-hebr";
lastChange = "2023-07-12 06:14:23 +0000";
layers = (
{
anchors = (
{
name = Anchor_1;
pos = (356,0);
},
{
name = dagesh;
pos = (281,0);
}
);
layerId = m001;
shapes = (
{
closed = 1;
nodes = (
(317,6,l),
(490,551,l),
(65,551,l),
(74,590,l),
(529,590,l),
(534,540,l),
(364,-12,l),
(364,-12,l)
);
},
{
closed = 1;
nodes = (
(117,-198,l),
(117,372,l),
(166,397,l),
(166,-179,l),
(166,-179,l)
);
}
);
width = 599;
},
{
anchors = (
{
name = Anchor_1;
pos = (380,0);
},
{
name = dagesh;
pos = (295,39);
}
);
layerId = m003;
shapes = (
{
closed = 1;
nodes = (
(264,71,l),
(396,447,l),
(25,447,l),
(43,590,l),
(582,590,l),
(581,447,l),
(427,-12,l),
(427,-12,l)
);
},
{
closed = 1;
nodes = (
(53,-208,l),
(53,342,l),
(235,367,l),
(235,-172,l),
(235,-172,l)
);
}
);
width = 607;
}
);
unicode = 1511;
},
{
color = 5;
glyphname = "resh-hebr";
lastChange = "2023-07-12 06:14:23 +0000";
layers = (
{
anchors = (
{
name = Anchor_1;
pos = (399,0);
},
{
name = dagesh;
pos = (225,0);
}
);
layerId = m001;
shapes = (
{
closed = 1;
nodes = (
(411,0,l),
(411,329,ls),
(411,456,o),
(374,553,o),
(231,553,cs),
(200,553,o),
(139,550,o),
(79,533,c),
(65,572,l),
(113,585,o),
(169,593,o),
(223,593,cs),
(380,593,o),
(460,522,o),
(460,338,cs),
(460,0,l),
(460,0,l)
);
}
);
width = 540;
},
{
anchors = (
{
name = Anchor_1;
pos = (399,0);
},
{
name = dagesh;
pos = (192,-21);
}
);
layerId = m003;
shapes = (
{
closed = 1;
nodes = (
(310,0,l),
(310,319,ls),
(310,406,o),
(289,444,o),
(203,444,cs),
(159,444,o),
(107,437,o),
(49,428,c),
(26,572,l),
(67,582,o),
(136,595,o),
(226,595,cs),
(427,595,o),
(492,497,o),
(492,391,cs),
(492,0,l),
(492,0,l)
);
}
);
width = 532;
},
{
anchors = (
{
name = Anchor_1;
pos = (399,0);
},
{
name = dagesh;
pos = (225,0);
}
);
associatedMasterId = m001;
layerId = "C57230F9-DDB4-4E28-9C35-2D4E0CC7E97B";
name = "Jul 7, 23, 21:44";
shapes = (
{
closed = 1;
nodes = (
(411,0,l),
(411,329,ls),
(411,456,o),
(374,548,o),
(231,553,cs),
(200,554,o),
(139,550,o),
(79,533,c),
(65,572,l),
(113,585,o),
(169,593,o),
(223,593,cs),
(380,593,o),
(460,522,o),
(460,338,cs),
(460,0,l)
);
}
);
width = 540;
}
);
unicode = 1512;
},
{
color = 5;
glyphname = "shin-hebr";
lastChange = "2023-07-12 06:14:23 +0000";
layers = (
{
anchors = (
{
name = Anchor_1;
pos = (363,0);
},
{
name = dagesh;
pos = (477,-24);
},
{
name = "shin - liga";
pos = (600,0);
},
{
name = sin;
pos = (108,0);
}
);
layerId = m001;
shapes = (
{
closed = 1;
nodes = (
(332,183,l),
(332,590,l),
(381,590,l),
(381,199,l),
(381,199,l)
);
},
{
closed = 1;
nodes = (
(164,-13,o),
(85,96,o),
(85,275,cs),
(85,590,l),
(134,590,l),
(134,270,ls),
(134,113,o),
(208,30,o),
(356,30,cs),
(504,30,o),
(578,113,o),
(578,270,cs),
(578,590,l),
(627,590,l),
(627,275,ls),
(627,96,o),
(548,-13,o),
(356,-13,cs)
);
}
);
width = 712;
},
{
anchors = (
{
name = Anchor_1;
pos = (396,0);
},
{
name = dagesh;
pos = (459,-69);
},
{
name = "shin - liga";
pos = (651,0);
},
{
name = sin;
pos = (135,0);
}
);
layerId = m003;
shapes = (
{
closed = 1;
nodes = (
(312,250,l),
(312,590,l),
(486,590,l),
(486,290,l),
(486,290,l)
);
},
{
closed = 1;
nodes = (
(166,-13,o),
(45,99,o),
(45,290,cs),
(45,590,l),
(223,590,l),
(223,300,ls),
(223,207,o),
(261,148,o),
(395,148,cs),
(529,148,o),
(565,217,o),
(565,300,cs),
(565,590,l),
(744,590,l),
(744,290,ls),
(744,99,o),
(625,-13,o),
(395,-13,cs)
);
}
);
width = 789;
}
);
unicode = 1513;
},
{
color = 5;
glyphname = "tav-hebr";
lastChange = "2023-07-12 06:14:23 +0000";
layers = (
{
anchors = (
{
name = Anchor_1;
pos = (362,0);
},
{
name = dagesh;
pos = (365,0);
}
);
layerId = m001;
shapes = (
{
closed = 1;
nodes = (
(514,0,l),
(514,551,l),
(232,551,l),
(232,189,ls),
(232,67,o),
(185,-7,o),
(85,-7,cs),
(58,-7,o),
(42,-5,o),
(28,-1,c),
(32,45,l),
(49,41,o),
(64,39,o),
(78,39,cs),
(144,39,o),
(183,77,o),
(183,177,cs),
(183,551,l),
(63,551,l),
(73,590,l),
(563,590,l),
(563,0,l),
(563,0,l)
);
}
);
width = 653;
},
{
anchors = (
{
name = Anchor_1;
pos = (362,0);
},
{
name = dagesh;
pos = (363,0);
}
);
layerId = m003;
shapes = (
{
closed = 1;
nodes = (
(438,0,l),
(438,447,l),
(292,447,l),
(292,209,ls),
(292,65,o),
(239,-7,o),
(107,-7,cs),
(65,-7,o),
(35,-4,o),
(7,2,c),
(12,152,l),
(32,149,o),
(46,148,o),
(56,148,cs),
(100,148,o),
(113,167,o),
(113,199,cs),
(113,447,l),
(24,447,l),
(44,590,l),
(620,590,l),
(620,0,l),
(620,0,l)
);
}
);
width = 670;
},
{
anchors = (
{
name = Anchor_1;
pos = (362,0);
},
{
name = dagesh;
pos = (365,0);
}
);
associatedMasterId = m001;
layerId = "1B23A24A-9DBE-4BA7-9C77-824193B9CF60";
name = "Jul 7, 23, 21:48";
shapes = (
{
closed = 1;
nodes = (
(514,0,l),
(514,551,l),
(232,551,l),
(232,189,l),
(232,67,o),
(185,-6,o),
(85,-7,c),
(58,-7,o),
(42,-5,o),
(28,-1,c),
(32,45,l),
(49,41,o),
(64,39,o),
(78,39,c),
(144,39,o),
(183,77,o),
(183,177,c),
(183,551,l),
(63,551,l),
(73,590,l),
(563,590,l),
(563,0,l)
);
}
);
visible = 1;
width = 653;
},
{
anchors = (
{
name = Anchor_1;
pos = (362,0);
},
{
name = dagesh;
pos = (363,0);
}
);
associatedMasterId = m003;
layerId = "FBE1451E-4DB2-45A8-BB70-2D5574675A45";
name = "Jul 7, 23, 21:48";
shapes = (
{
closed = 1;
nodes = (
(65,-8,o),
(35,-4,o),
(7,2,c),
(12,152,l),
(32,149,o),
(47,148,o),
(56,148,c),
(100,148,o),
(111,167,o),
(113,199,c),
(113,447,l),
(24,447,l),
(44,590,l),
(620,590,l),
(620,0,l),
(438,0,l),
(438,447,l),
(292,447,l),
(292,209,l),
(292,65,o),
(239,-5,o),
(107,-7,c)
);
}
);
width = 670;
}
);
unicode = 1514;
},
{
color = 5;
glyphname = zero;
lastChange = "2023-07-12 06:14:02 +0000";
layers = (
{
layerId = m001;
shapes = (
{
closed = 1;
nodes = (
(40,113.921,o),
(142.376,-13,o),
(286,-13,cs),
(428.457,-13,o),
(530,114.845,o),
(530,289,cs),
(530,457.063,o),
(428.571,579,o),
(286,579,cs),
(143.443,579,o),
(40,459.351,o),
(40,288,cs)
);
},
{
closed = 1;
nodes = (
(91,439.033,o),
(176.497,538,o),
(286,538,cs),
(398.398,538,o),
(479,431.311,o),
(479,286,cs),
(479,136.531,o),
(398.772,28,o),
(286,28,cs),
(176.693,28,o),
(91,133.279,o),
(91,291,cs)
);
}
);
width = 570;
},
{
layerId = m003;
shapes = (
{
closed = 1;
nodes = (
(20,110.614,o),
(153.094,-14,o),
(338,-14,cs),
(524.507,-14,o),
(658,111.588,o),
(658,286,cs),
(658,456.489,o),
(524.97,579,o),
(339,579,cs),
(152.632,579,o),
(20,456.638,o),
(20,284,cs)
);
},
{
closed = 1;
nodes = (
(208,374.126,o),
(265.963,431,o),
(338,431,cs),
(415.823,431,o),
(470,369.422,o),
(470,283,cs),
(470,197.103,o),
(415.16,134,o),
(339,134,cs),
(262.452,134,o),
(208,197.14,o),
(208,287,cs)
);
}
);
width = 678;
}
);
unicode = 48;
},
{
color = 5;
glyphname = one;
lastChange = "2023-07-12 06:14:02 +0000";
layers = (
{
layerId = m001;
shapes = (
{
closed = 1;
nodes = (
(220,566,l),
(185,566,l),
(10,481,l),
(28,445,l),
(171,508,l),
(171,0,l),
(220,0,l),
(220,0,l),
(220,0,l)
);
}
);
width = 300;
},
{
layerId = m003;
shapes = (
{
closed = 1;
nodes = (
(379,566,l),
(258,566,l),
(10,459,l),
(81,313,l),
(197,363,l),
(197,0,l),
(379,0,l),
(379,0,l),
(379,0,l)
);
}
);
width = 439;
}
);
unicode = 49;
},
{
color = 5;
glyphname = two;
lastChange = "2023-07-12 06:14:02 +0000";
layers = (
{
layerId = m001;
shapes = (
{
closed = 1;
nodes = (
(25,0,l),
(25,50,l),
(250,238,ls),
(308,287,o),
(367,335,o),
(367,417,cs),
(367,487.667,o),
(303.667,539,o),
(217,539,cs),
(146.763,539,o),
(96.819,513.455,o),
(60,493,c),
(38,527,l),
(75.333,549.667,o),
(133.667,579,o),
(219,579,cs),
(334.252,579,o),
(419,511.676,o),
(419,418,cs),
(419,342.697,o),
(367.377,273.902,o),
(270,196,cs),
(75,39,l),
(442,39,l),
(450,0,l),
(450,0,l),
(450,0,l)
);
}
);
width = 470;
},
{
layerId = m003;
shapes = (
{
closed = 1;
nodes = (
(25,0,l),
(25,106,l),
(214,270,ls),
(259.922,309.66,o),
(308,344.734,o),
(308,382,cs),
(308,415.333,o),
(276,430,o),
(225,430,cs),
(165,430,o),
(100.372,400.873,o),
(61,379,c),
(38,527,l),
(75.333,549.667,o),
(142,579,o),
(231,579,cs),
(359,579,o),
(470,538,o),
(470,403,cs),
(470,309,o),
(396,239,o),
(324,178,cs),
(283,143,l),
(465,143,l),
(477,0,l),
(477,0,l),
(477,0,l)
);
}
);
width = 497;
}
);
unicode = 50;
},
{
color = 5;
glyphname = three;
lastChange = "2023-07-12 06:14:02 +0000";
layers = (
{
layerId = m001;
shapes = (
{
closed = 1;
nodes = (
(125,579,o),
(63,553.333,o),
(11,520,c),
(42,489,l),
(74,510.333,o),
(130,538,o),
(202,538,cs),
(285.09,538,o),
(339,477.893,o),
(339,416,cs),
(339,340,o),
(272,286,o),
(160,286,cs),
(126,286,l),
(136,247,l),
(154,247,ls),
(292.667,247,o),
(351,189.333,o),
(351,104,cs),
(351,25.465,o),
(275.17,-35,o),
(193,-35,cs),
(119.667,-35,o),
(79.667,-18,o),
(33,10,c),
(0,-24,l),
(45.333,-49.333,o),
(115.333,-76,o),
(190,-76,cs),
(317.94,-76,o),
(402,2.038,o),
(402,106,cs),
(402,187.226,o),
(351.425,252.121,o),
(276,268,c),
(343.271,289.022,o),
(390,349.411,o),
(390,417,cs),
(390,523,o),
(303,579,o),
(205,579,cs)
);
}
);
width = 447;
},
{
layerId = m003;
shapes = (
{
closed = 1;
nodes = (
(176.333,579,o),
(91.667,561,o),
(21,505,c),
(108,382,l),
(154.667,414,o),
(199.667,431,o),
(237,431,cs),
(287.124,431,o),
(312,411.966,o),
(312,386,cs),
(312,352.667,o),
(275.333,330,o),
(218,330,cs),
(136,330,l),
(151,187,l),
(254,187,ls),
(294,187,o),
(323,164.667,o),
(323,126,cs),
(323,92.659,o),
(290.293,69,o),
(244,69,cs),
(197.333,69,o),
(154.333,83,o),
(97,119,c),
(0,-2,l),
(76,-51.333,o),
(169.667,-78,o),
(243,-78,cs),
(402.614,-78,o),
(511,3.768,o),
(511,121,cs),
(511,182.54,o),
(471.109,245.103,o),
(425,272,c),
(462.894,293.052,o),
(500,353.069,o),
(500,402,cs),
(500,507.915,o),
(401.087,579,o),
(255,579,cs)
);
}
);
width = 536;
}
);
unicode = 51;
},
{
color = 5;
glyphname = four;
lastChange = "2023-07-12 06:14:02 +0000";
layers = (
{
layerId = m001;
shapes = (
{
closed = 1;
nodes = (
(375,113,l),
(375,571,l),
(347,571,l),
(10,125,l),
(19,74,l),
(326,74,l),
(326,-69,l),
(375,-69,l),
(375,74,l),
(484,74,l),
(492,113,l),
(492,113,l),
(492,113,l)
);
},
{
closed = 1;
nodes = (
(326,113,l),
(60,113,l),
(326,470,l),
(326,470,l),
(326,470,l)
);
}
);
width = 512;
},
{
layerId = m003;
shapes = (
{
closed = 1;
nodes = (
(491,197,l),
(491,571,l),
(355,571,l),
(10,187,l),
(31,54,l),
(309,54,l),
(309,-63,l),
(491,-63,l),
(491,54,l),
(582,54,l),
(591,197,l),
(591,197,l),
(591,197,l)
);
},
{
closed = 1;
nodes = (
(309,197,l),
(224,197,l),
(309,297,l),
(309,297,l),
(309,297,l)
);
}
);
width = 611;
}
);
unicode = 52;
},
{
color = 5;
glyphname = five;
lastChange = "2023-07-12 06:14:02 +0000";
layers = (
{
layerId = m001;
shapes = (
{
closed = 1;
nodes = (
(142.667,259.333,o),
(193.667,289,o),
(247,289,cs),
(339,289,o),
(399,226,o),
(399,130,cs),
(399,34,o),
(336,-35,o),
(224,-35,cs),
(162.667,-35,o),
(110.667,-18,o),
(64,10,c),
(40,-26,l),
(87.169,-49.585,o),
(146.979,-76,o),
(220,-76,cs),
(375,-76,o),
(451,24,o),
(451,130,cs),
(451,261,o),
(368,330,o),
(243,330,cs),
(209.667,330,o),
(165,315.667,o),
(129,289,c),
(140,527,l),
(409,527,l),
(412,566,l),
(95,566,l),
(80,230,l),
(116,230,l),
(116,230,l)
);
}
);
width = 491;
},
{
layerId = m003;
shapes = (
{
closed = 1;
nodes = (
(232,200,o),
(254.333,223,o),
(285,223,cs),
(322.333,223,o),
(349,196.667,o),
(349,154,cs),
(349,106,o),
(311.333,76,o),
(262,76,cs),
(212.667,76,o),
(171,92.667,o),
(111,126,c),
(20,-3,l),
(88.437,-49.295,o),
(182.675,-79,o),
(259,-79,cs),
(417.814,-79,o),
(513,19.656,o),
(513,154,cs),
(513,273.577,o),
(439.775,374,o),
(305,374,cs),
(277,374,o),
(259,367.333,o),
(243,358,c),
(243,423,l),
(466,423,l),
(484,566,l),
(90,566,l),
(71,180,l),
(224,180,l),
(224,180,l)
);
}
);
width = 533;
}
);
unicode = 53;
},
{
color = 5;
glyphname = six;
lastChange = "2023-07-12 06:14:02 +0000";
layers = (
{
layerId = m001;
shapes = (
{
closed = 1;
nodes = (
(82,248,l),
(114,299,o),
(181.183,346,o),
(253,346,cs),
(343.971,346,o),
(401,279.366,o),
(401,185,cs),
(401,106.22,o),
(346.299,28,o),
(252,28,cs),
(146.001,28,o),
(87,115.949,o),
(87,270,cs),
(87,447,o),
(244,586,o),
(393,594,c),
(375,634,l),
(191,611,o),
(40,464,o),
(40,260,cs),
(40,81.697,o),
(128.976,-13,o),
(254,-13,cs),
(373,-13,o),
(452,87,o),
(452,190,cs),
(452,304,o),
(370,387,o),
(253,387,cs),
(159,387,o),
(102,332,o),
(65,285,c)
);
}
);
width = 492;
},
{
layerId = m003;
shapes = (
{
closed = 1;
nodes = (
(139,181,l),
(187.652,233.706,o),
(239.105,280,o),
(295,280,cs),
(343.163,280,o),
(377,251.582,o),
(377,209,cs),
(377,167.141,o),
(343.679,134,o),
(307,134,cs),
(249.029,134,o),
(211,185.223,o),
(211,261,cs),
(211,423,o),
(334,445,o),
(498,467,c),
(480,634,l),
(233,619,o),
(20,509,o),
(20,252,cs),
(20,96.376,o),
(139.537,-13,o),
(312,-13,cs),
(468.115,-13,o),
(565,74.03,o),
(565,195,cs),
(565,314.728,o),
(462.719,398,o),
(319,398,cs),
(250.586,398,o),
(174.737,352.642,o),
(114,294,c)
);
}
);
width = 585;
},
{
associatedMasterId = m001;
layerId = "8E259778-3E7B-4E91-A305-085F6D491047";
name = "Jul 11, 23, 08:15";
shapes = (
{
closed = 1;
nodes = (
(82,248,l),
(113.599,298.558,o),
(181.183,346,o),
(253,346,cs),
(343.971,346,o),
(401,279.366,o),
(401,185,cs),
(401,106.22,o),
(346.299,28,o),
(252,28,cs),
(146.001,28,o),
(87,115.949,o),
(87,270,cs),
(87,383.34,o),
(146.948,475.563,o),
(229,533,cs),
(282.333,570.333,o),
(341,591.333,o),
(393,594,c),
(375,634,l),
(280.298,622.162,o),
(179.641,572.499,o),
(111.5,483,cs),
(66.833,424.333,o),
(40,350.667,o),
(40,260,cs),
(40,81.697,o),
(128.976,-13,o),
(254,-13,cs),
(332.667,-13,o),
(393.667,29.5,o),
(427,91.5,cs),
(443.667,122.5,o),
(452,155.333,o),
(452,190,cs),
(452,258,o),
(420.833,321.667,o),
(361.5,359,cs),
(331.833,377.667,o),
(295.667,387,o),
(253,387,cs),
(185,387,o),
(137.167,358.833,o),
(104.5,327.5,cs),
(88.167,311.833,o),
(75,297.667,o),
(65,285,c)
);
}
);
width = 492;
},
{
associatedMasterId = m003;
layerId = "6DCF6AB2-B83B-4092-8719-982F65D124B3";
name = "Jul 11, 23, 08:15";
shapes = (
{
closed = 1;
nodes = (
(139,181,l),
(187.652,233.706,o),
(239.105,280,o),
(295,280,cs),
(343.163,280,o),
(377,251.582,o),
(377,209,cs),
(377,167.141,o),
(343.679,134,o),
(307,134,cs),
(249.029,134,o),
(211,185.223,o),
(211,261,cs),
(211,337,o),
(240.167,383,o),
(283.5,411,cs),
(305.167,425,o),
(328.667,435.5,o),
(354,442.5,cs),
(379.333,449.5,o),
(404.667,454.667,o),
(430,458,cs),
(455.333,461.333,o),
(478,464.333,o),
(498,467,c),
(480,634,l),
(377.399,627.587,o),
(236.903,598.786,o),
(135,515.5,cs),
(65.667,458.833,o),
(20,374.667,o),
(20,252,cs),
(20,96.376,o),
(139.537,-13,o),
(312,-13,cs),
(468.115,-13,o),
(565,74.03,o),
(565,195,cs),
(565,314.728,o),
(462.719,398,o),
(319,398,cs),
(250.586,398,o),
(174.737,352.642,o),
(114,294,c)
);
}
);
width = 585;
}
);
unicode = 54;
},
{
color = 5;
glyphname = seven;
lastChange = "2023-07-12 06:14:02 +0000";
layers = (
{
layerId = m001;
shapes = (
{
closed = 1;
nodes = (
(409,537,l),
(387,566,l),
(10,566,l),
(18,527,l),
(360,527,l),
(123,-49,l),
(169,-69,l),
(169,-69,l),
(169,-69,l)
);
}
);
width = 429;
},
{
layerId = m003;
shapes = (
{
closed = 1;
nodes = (
(498,494,l),
(464,566,l),
(10,566,l),
(27,423,l),
(299,423,l),
(108,-30,l),
(289,-77,l),
(289,-77,l),
(289,-77,l)
);
}
);
width = 518;
}
);
unicode = 55;
},
{
color = 5;
glyphname = eight;
lastChange = "2023-07-12 06:14:02 +0000";
layers = (
{
layerId = m001;
shapes = (
{
closed = 1;
nodes = (
(119,643,o),
(68,561,o),
(68,481,cs),
(68,414.333,o),
(115.667,363,o),
(177,339,c),
(101.765,323.161,o),
(40,241.766,o),
(40,169,cs),
(40,50,o),
(129,-13,o),
(251,-13,cs),
(379,-13,o),
(461,61,o),
(461,169,cs),
(461,252.493,o),
(397.577,322.872,o),
(325,339,c),
(383.442,364.974,o),
(433,416.656,o),
(433,481,cs),
(433,585,o),
(355,643,o),
(251,643,cs)
);
},
{
closed = 1;
nodes = (
(341.333,602,o),
(384,545.333,o),
(384,484,cs),
(384,435.191,o),
(338,372,o),
(251,360,c),
(166,372,o),
(118,428,o),
(118,484,cs),
(118,542.219,o),
(157.848,602,o),
(248,602,cs)
);
},
{
closed = 1;
nodes = (
(356,303,o),
(410,238,o),
(410,162,cs),
(410,88.582,o),
(343.431,28,o),
(251,28,cs),
(155.776,28,o),
(91,88.395,o),
(91,162,cs),
(91,238,o),
(144,303,o),
(251,316,c)
);
}
);
width = 501;
},
{
layerId = m003;
shapes = (
{
closed = 1;
nodes = (
(161,643,o),
(42,577,o),
(42,457,cs),
(42,411.667,o),
(71,369,o),
(103,341,c),
(54.982,306.078,o),
(20,251.555,o),
(20,197,cs),
(20,64.444,o),
(125.748,-13,o),
(287,-13,cs),
(453.046,-13,o),
(552,71.878,o),
(552,197,cs),
(552,254.19,o),
(516.627,307.564,o),
(470,340,c),
(503.504,367.592,o),
(530,410.876,o),
(530,457,cs),
(530,582,o),
(404,643,o),
(287,643,cs)
);
},
{
closed = 1;
nodes = (
(325,494,o),
(341,465.667,o),
(341,447,cs),
(341,423.155,o),
(325,395,o),
(287,389,c),
(250,394,o),
(231,422,o),
(231,446,cs),
(231,467.119,o),
(250.118,494,o),
(285,494,cs)
);
},
{
closed = 1;
nodes = (
(336,274,o),
(365,234.333,o),
(365,205,cs),
(365,171.287,o),
(328.831,135,o),
(286,135,cs),
(245.299,135,o),
(208,168.647,o),
(208,205,cs),
(208,234.333,o),
(234,274,o),
(287,283,c)
);
}
);
width = 572;
},
{
associatedMasterId = m003;
layerId = "67C85887-EC3F-4E47-B65F-2B3666A8C153";
name = "Jul 11, 23, 08:16";
shapes = (
{
closed = 1;
nodes = (
(197.667,643,o),
(119,610.833,o),
(75,555.5,cs),
(53,527.833,o),
(42,495,o),
(42,457,cs),
(42,411.667,o),
(71,369,o),
(103,341,c),
(54.982,306.078,o),
(20,251.555,o),
(20,197,cs),
(20,64.444,o),
(125.748,-13,o),
(287,-13,cs),
(453.046,-13,o),
(552,71.878,o),
(552,197,cs),
(552,254.19,o),
(516.627,307.564,o),
(470,340,c),
(503.504,367.592,o),
(530,410.876,o),
(530,457,cs),
(530,533,o),
(482.5,589.333,o),
(408.5,620,cs),
(371.5,635.333,o),
(331,643,o),
(287,643,cs)
);
},
{
closed = 1;
nodes = (
(325,494,o),
(341,465.667,o),
(341,447,cs),
(341,423.155,o),
(324.552,395.259,o),
(287,389,c),
(249.667,394.333,o),
(231,422,o),
(231,446,cs),
(231,467.119,o),
(250.118,494,o),
(285,494,cs)
);
},
{
closed = 1;
nodes = (
(336.333,273.667,o),
(365,234.333,o),
(365,205,cs),
(365,171.287,o),
(328.831,135,o),
(286,135,cs),
(245.299,135,o),
(208,168.647,o),
(208,205,cs),
(208,234.333,o),
(233.667,273.667,o),
(287,283,c)
);
}
);
width = 572;
},
{
associatedMasterId = m001;
layerId = "D390F930-6E7A-49D1-8F93-6ABF4143EB6F";
name = "Jul 11, 23, 08:16";
shapes = (
{
closed = 1;
nodes = (
(165.667,643,o),
(112.333,609.333,o),
(87,560,cs),
(74.333,535.333,o),
(68,509,o),
(68,481,cs),
(68,414.333,o),
(115.667,363,o),
(177,339,c),
(101.765,323.161,o),
(40,241.766,o),
(40,169,cs),
(40,102.333,o),
(70.333,44.167,o),
(133,11.5,cs),
(164.333,-4.833,o),
(203.667,-13,o),
(251,-13,cs),
(345.667,-13,o),
(407.333,24.167,o),
(438,79.5,cs),
(453.333,107.167,o),
(461,137,o),
(461,169,cs),
(461,252.493,o),
(397.577,322.872,o),
(325,339,c),
(383.442,364.974,o),
(433,416.656,o),
(433,481,cs),
(433,534.333,o),
(409.333,587,o),
(356,619,cs),
(329.333,635,o),
(294.333,643,o),
(251,643,cs)
);
},
{
closed = 1;
nodes = (
(341.333,602,o),
(384,545.333,o),
(384,484,cs),
(384,435.191,o),
(338.428,372.49,o),
(251,360,c),
(165.667,372,o),
(118,428,o),
(118,484,cs),
(118,542.219,o),
(157.848,602,o),
(248,602,cs)
);
},
{
closed = 1;
nodes = (
(356.333,302.667,o),
(410,238,o),
(410,162,cs),
(410,88.582,o),
(343.431,28,o),
(251,28,cs),
(155.776,28,o),
(91,88.395,o),
(91,162,cs),
(91,238,o),
(144.333,302.667,o),
(251,316,c)
);
}
);
width = 501;
}
);
unicode = 56;
},
{
color = 5;
glyphname = nine;
lastChange = "2023-07-12 06:14:02 +0000";
layers = (
{
layerId = m001;
shapes = (
{
closed = 1;
nodes = (
(410,317,l),
(382.123,271.201,o),
(315.355,219,o),
(239,219,cs),
(145.767,219,o),
(91,289.933,o),
(91,380,cs),
(91,455.72,o),
(144.767,537,o),
(240,537,cs),
(345.327,537,o),
(405,451.993,o),
(405,295,cs),
(405,118,o),
(248,-21,o),
(99,-29,c),
(117,-69,l),
(310,-45,o),
(452,110,o),
(452,305,cs),
(452,478.606,o),
(367.632,578,o),
(238,578,cs),
(122.111,578,o),
(40,481.502,o),
(40,375,cs),
(40,278.509,o),
(105.039,178,o),
(239,178,cs),
(330,178,o),
(388,230,o),
(427,280,c)
);
}
);
width = 492;
},
{
layerId = m003;
shapes = (
{
closed = 1;
nodes = (
(446,385,l),
(399.674,334.646,o),
(347,286,o),
(290,286,cs),
(242,286,o),
(208,315,o),
(208,357,cs),
(208,401,o),
(242.385,432,o),
(278,432,cs),
(335.971,432,o),
(374,381,o),
(374,305,cs),
(374,163,o),
(282,116,o),
(87,99,c),
(105,-68,l),
(349,-53,o),
(565,56,o),
(565,314,cs),
(565,468.616,o),
(446.969,579,o),
(273,579,cs),
(119.662,579,o),
(20,495,o),
(20,371,cs),
(20,251,o),
(122,168,o),
(266,168,cs),
(335,168,o),
(410.038,213.14,o),
(471,272,c)
);
}
);
width = 585;
},
{
associatedMasterId = m003;
layerId = "8281E60B-D033-4D30-B466-56018ACCBE67";
name = "Jul 11, 23, 08:19";
shapes = (
{
closed = 1;
nodes = (
(446,385,l),
(399.674,334.646,o),
(347.334,286,o),
(290,286,cs),
(242.313,286,o),
(208,315.353,o),
(208,357,cs),
(208,400.556,o),
(242.385,432,o),
(278,432,cs),
(335.971,432,o),
(374,380.777,o),
(374,305,cs),
(374,189.508,o),
(303.779,143.213,o),
(231.5,123.5,cs),
(205.833,116.5,o),
(180.333,111.5,o),
(155,108.5,cs),
(129.667,105.5,o),
(107,102.333,o),
(87,99,c),
(105,-68,l),
(207.601,-61.587,o),
(348.097,-32.786,o),
(450,50.5,cs),
(519.333,107.167,o),
(565,192.667,o),
(565,314,cs),
(565,468.616,o),
(446.969,579,o),
(273,579,cs),
(119.662,579,o),
(20,494.555,o),
(20,371,cs),
(20,251.272,o),
(122.281,168,o),
(266,168,cs),
(335.211,168,o),
(410.038,213.14,o),
(471,272,c)
);
}
);
visible = 1;
width = 585;
},
{
associatedMasterId = m001;
layerId = "D5700597-303B-431B-95CC-8EBA95DA5E58";
name = "Jul 11, 23, 08:19";
shapes = (
{
closed = 1;
nodes = (
(410,317,l),
(382.123,271.201,o),
(315.355,219,o),
(239,219,cs),
(145.767,219,o),
(91,289.933,o),
(91,380,cs),
(91,455.72,o),
(144.767,537,o),
(240,537,cs),
(345.327,537,o),
(405,451.993,o),
(405,295,cs),
(405,181.66,o),
(345.052,89.437,o),
(263,32,cs),
(209.667,-5.333,o),
(151,-26.333,o),
(99,-29,c),
(117,-69,l),
(211.702,-57.162,o),
(312.359,-7.499,o),
(380.5,82,cs),
(425.167,140.667,o),
(452,215.667,o),
(452,305,cs),
(452,478.606,o),
(367.632,578,o),
(238,578,cs),
(122.111,578,o),
(40,481.502,o),
(40,375,cs),
(40,278.509,o),
(105.039,178,o),
(239,178,cs),
(307,178,o),
(354.667,206,o),
(388,238,cs),
(404.667,254,o),
(417.667,268,o),
(427,280,c)
);
}
);
width = 492;
}
);
unicode = 57;
},
{
color = 5;
glyphname = zero.zero;
lastChange = "2023-07-12 06:14:02 +0000";
layers = (
{
layerId = m001;
shapes = (
{
closed = 1;
nodes = (
(40,113.921,o),
(142.376,-13,o),
(286,-13,cs),
(428.457,-13,o),
(530,114.845,o),
(530,289,cs),
(530,457.063,o),
(428.571,579,o),
(286,579,cs),
(143.443,579,o),
(40,459.351,o),
(40,288,cs)
);
},
{
closed = 1;
nodes = (
(91,439.033,o),
(176.497,538,o),
(286,538,cs),
(398.398,538,o),
(479,431.311,o),
(479,286,cs),
(479,136.531,o),
(398.772,28,o),
(286,28,cs),
(176.693,28,o),
(91,133.279,o),
(91,291,cs)
);
},
{
closed = 1;
nodes = (
(455,453,l),
(426,485,l),
(110,114,l),
(143,88,l),
(143,88,l)
);
}
);
width = 570;
},
{
layerId = m003;
shapes = (
{
closed = 1;
nodes = (
(20,110.614,o),
(153.094,-14,o),
(338,-14,cs),
(524.507,-14,o),
(658,111.588,o),
(658,286,cs),
(658,456.489,o),
(524.97,579,o),
(339,579,cs),
(152.632,579,o),
(20,456.638,o),
(20,284,cs)
);
},
{
closed = 1;
nodes = (
(208,374.126,o),
(265.963,431,o),
(338,431,cs),
(415.823,431,o),
(470,369.422,o),
(470,283,cs),
(470,197.103,o),
(415.16,134,o),
(339,134,cs),
(262.452,134,o),
(208,197.14,o),
(208,287,cs)
);
},
{
closed = 1;
nodes = (
(561,413,l),
(486,468,l),
(126,170,l),
(190,101,l),
(190,101,l)
);
}
);
width = 678;
}
);
},
{
glyphname = "punctuationpaseq-hebr";
lastChange = "2023-07-12 06:13:43 +0000";
layers = (
{
layerId = m001;
shapes = (
{
closed = 1;
nodes = (
(100,0,l),
(149,-4,l),
(149,706,l),
(100,710,l),
(100,710,l)
);
}
);
width = 249;
},
{
layerId = m003;
shapes = (
{
closed = 1;
nodes = (
(100,0,l),
(149,-4,l),
(149,706,l),
(100,710,l),
(100,710,l)
);
}
);
width = 249;
}
);
unicode = 1472;
},
{
glyphname = "punctuationsofpasuq-hebr";
lastChange = "2023-07-12 06:13:43 +0000";
layers = (
{
layerId = m001;
shapes = (
{
closed = 1;
nodes = (
(84,415,l),
(84,506,l),
(159,506,l),
(159,415,l),
(159,415,l)
);
},
{
closed = 1;
nodes = (
(84,1,l),
(84,92,l),
(159,92,l),
(159,1,l),
(159,1,l)
);
}
);
width = 254;
},
{
layerId = m003;
shapes = (
{
closed = 1;
nodes = (
(84,415,l),
(84,506,l),
(159,506,l),
(159,415,l),
(159,415,l)
);
},
{
closed = 1;
nodes = (
(84,1,l),
(84,92,l),
(159,92,l),
(159,1,l),
(159,1,l)
);
}
);
width = 254;
}
);
unicode = 1475;
},
{
glyphname = "punctuationgeresh-hebr";
lastChange = "2023-07-12 06:13:43 +0000";
layers = (
{
layerId = m001;
shapes = (
{
closed = 1;
nodes = (
(66,485,l),
(66,518,l),
(110,543.333,o),
(120,570.333,o),
(120,621,cs),
(120,635,l),
(65,635,l),
(65,710,l),
(147,710,l),
(147,627,ls),
(147,555,o),
(128.667,521,o),
(70,485,c)
);
}
);
width = 212;
},
{
layerId = m003;
shapes = (
{
closed = 1;
nodes = (
(51,409,l),
(51,480,l),
(103,492,o),
(117,521.667,o),
(117,555,cs),
(117,573,l),
(40,573,l),
(40,727,l),
(195,727,l),
(195,604,ls),
(195,492,o),
(150.667,435.667,o),
(60,409,c)
);
}
);
width = 235;
}
);
unicode = 1523;
},
{
glyphname = "punctuationgershayim-hebr";
lastChange = "2023-07-12 06:13:43 +0000";
layers = (
{
layerId = m001;
shapes = (
{
closed = 1;
nodes = (
(204,485,l),
(204,518,l),
(248,543.333,o),
(258,570.333,o),
(258,621,cs),
(258,635,l),
(203,635,l),
(203,710,l),
(285,710,l),
(285,627,ls),
(285,555,o),
(266.667,521,o),
(208,485,c)
);
},
{
closed = 1;
nodes = (
(66,485,l),
(66,518,l),
(110,543.333,o),
(120,570.333,o),
(120,621,cs),
(120,635,l),
(65,635,l),
(65,710,l),
(147,710,l),
(147,627,ls),
(147,555,o),
(128.667,521,o),
(70,485,c)
);
}
);
width = 350;
},
{
layerId = m003;
shapes = (
{
closed = 1;
nodes = (
(247,409,l),
(247,480,l),
(299,492,o),
(312,521.667,o),
(312,555,cs),
(312,573,l),
(236,573,l),
(236,727,l),
(391,727,l),
(391,594,ls),
(391,495.333,o),
(345.667,435.667,o),
(255,409,c)
);
},
{
closed = 1;
nodes = (
(51,409,l),
(51,480,l),
(103,492,o),
(117,521.667,o),
(117,555,cs),
(117,573,l),
(40,573,l),
(40,727,l),
(195,727,l),
(195,604,ls),
(195,492,o),
(150.667,435.667,o),
(60,409,c)
);
}
);
width = 431;
}
);
unicode = 1524;
},
{
glyphname = "maqaf-hebr";
lastChange = "2023-07-12 06:13:43 +0000";
layers = (
{
anchors = (
{
name = Anchor_1;
}
);
layerId = m001;
shapes = (
{
closed = 1;
nodes = (
(29,546,l),
(37,589,l),
(239,589,l),
(229,546,l),
(229,546,l)
);
}
);
width = 262;
},
{
anchors = (
{
name = Anchor_1;
}
);
layerId = m003;
shapes = (
{
closed = 1;
nodes = (
(29,446,l),
(47,589,l),
(239,589,l),
(219,446,l),
(219,446,l)
);
}
);
width = 262;
}
);
unicode = 1470;
},
{
color = 5;
glyphname = period;
lastChange = "2023-07-12 06:13:43 +0000";
layers = (
{
layerId = m001;
shapes = (
{
closed = 1;
nodes = (
(89.333,0,o),
(107,16.667,o),
(107,38,cs),
(107,59.333,o),
(89.333,76,o),
(68,76,cs),
(45.333,76,o),
(30,59.333,o),
(30,38,cs),
(30,16.667,o),
(45.333,0,o),
(68,0,cs)
);
}
);
width = 137;
},
{
layerId = m003;
shapes = (
{
closed = 1;
nodes = (
(172.667,0,o),
(213,39,o),
(213,91,cs),
(213,143,o),
(172.667,183,o),
(122,183,cs),
(70,183,o),
(30,143,o),
(30,91,cs),
(30,39,o),
(70,0,o),
(122,0,cs)
);
}
);
width = 243;
}
);
unicode = 46;
},
{
glyphname = comma;
lastChange = "2023-07-12 06:13:43 +0000";
layers = (
{
layerId = m001;
shapes = (
{
closed = 1;
nodes = (
(61.245,76,o),
(45,59.932,o),
(45,37,cs),
(45,21.399,o),
(59.149,-1,o),
(81,-1,c),
(79.667,-37,o),
(54.667,-64.333,o),
(20,-83,c),
(36,-108,l),
(90.072,-80.964,o),
(122,-31.431,o),
(122,33,cs),
(122,53,o),
(107,76,o),
(83,76,cs)
);
}
);
width = 152;
},
{
layerId = m003;
shapes = (
{
closed = 1;
nodes = (
(71.738,147,o),
(29,104.563,o),
(29,55,cs),
(29,22.251,o),
(47.214,-6.476,o),
(72,-23,c),
(66.667,-40.333,o),
(38.667,-63.333,o),
(20,-74,c),
(56,-154,l),
(148.889,-118.111,o),
(213,-35.588,o),
(213,40,cs),
(213,104,o),
(171.667,147,o),
(121,147,cs)
);
}
);
width = 243;
}
);
unicode = 44;
},
{
color = 5;
glyphname = colon;
lastChange = "2023-07-12 06:13:43 +0000";
layers = (
{
layerId = m001;
shapes = (
{
closed = 1;
nodes = (
(89.333,365,o),
(107,381.667,o),
(107,403,cs),
(107,424.333,o),
(89.333,441,o),
(68,441,cs),
(45.333,441,o),
(30,424.333,o),
(30,403,cs),
(30,381.667,o),
(45.333,365,o),
(68,365,cs)
);
},
{
closed = 1;
nodes = (
(89.333,46,o),
(107,62.667,o),
(107,84,cs),
(107,105.333,o),
(89.333,122,o),
(68,122,cs),
(45.333,122,o),
(30,105.333,o),
(30,84,cs),
(30,62.667,o),
(45.333,46,o),
(68,46,cs)
);
}
);
width = 137;
},
{
layerId = m003;
shapes = (
{
closed = 1;
nodes = (
(172.667,293,o),
(213,332,o),
(213,384,cs),
(213,436,o),
(172.667,476,o),
(122,476,cs),
(70,476,o),
(30,436,o),
(30,384,cs),
(30,332,o),
(70,293,o),
(122,293,cs)
);
},
{
closed = 1;
nodes = (
(172.667,0,o),
(213,39,o),
(213,91,cs),
(213,143,o),
(172.667,183,o),
(122,183,cs),
(70,183,o),
(30,143,o),
(30,91,cs),
(30,39,o),
(70,0,o),
(122,0,cs)
);
}
);
width = 243;
}
);
unicode = 58;
},
{
glyphname = semicolon;
lastChange = "2023-07-12 06:13:43 +0000";
layers = (
{
layerId = m001;
shapes = (
{
closed = 1;
nodes = (
(104.333,365,o),
(122,381.667,o),
(122,403,cs),
(122,424.333,o),
(104.333,441,o),
(83,441,cs),
(60.333,441,o),
(45,424.333,o),
(45,403,cs),
(45,381.667,o),
(60.333,365,o),
(83,365,cs)
);
},
{
closed = 1;
nodes = (
(61.245,122,o),
(45,105.932,o),
(45,83,cs),
(45,69.566,o),
(57.453,45,o),
(81,45,c),
(79.667,9,o),
(54.667,-18.333,o),
(20,-37,c),
(36,-62,l),
(92.628,-33.686,o),
(122,17.848,o),
(122,79,cs),
(122,99,o),
(107,122,o),
(83,122,cs)
);
}
);
width = 152;
},
{
layerId = m003;
shapes = (
{
closed = 1;
nodes = (
(173.667,293,o),
(214,332,o),
(214,384,cs),
(214,436,o),
(173.667,476,o),
(123,476,cs),
(71,476,o),
(31,436,o),
(31,384,cs),
(31,332,o),
(71,293,o),
(123,293,cs)
);
},
{
closed = 1;
nodes = (
(71.738,183,o),
(29,140.563,o),
(29,91,cs),
(29,58.251,o),
(47.214,29.524,o),
(72,13,c),
(66.667,-4.333,o),
(38.667,-27.333,o),
(20,-38,c),
(56,-118,l),
(148.889,-82.111,o),
(213,0.412,o),
(213,76,cs),
(213,140,o),
(171.667,183,o),
(121,183,cs)
);
}
);
width = 244;
}
);
unicode = 59;
},
{
color = 5;
glyphname = ellipsis;
lastChange = "2023-07-12 06:13:43 +0000";
layers = (
{
layerId = m001;
shapes = (
{
closed = 1;
nodes = (
(88,0,o),
(103,14.667,o),
(103,36,cs),
(103,57.333,o),
(88,72,o),
(68,72,cs),
(46.667,72,o),
(30,57.333,o),
(30,36,cs),
(30,14.667,o),
(46.667,0,o),
(68,0,cs)
);
},
{
closed = 1;
nodes = (
(200,0,o),
(215,14.667,o),
(215,36,cs),
(215,57.333,o),
(200,72,o),
(180,72,cs),
(158.667,72,o),
(142,57.333,o),
(142,36,cs),
(142,14.667,o),
(158.667,0,o),
(180,0,cs)
);
},
{
closed = 1;
nodes = (
(312,0,o),
(327,14.667,o),
(327,36,cs),
(327,57.333,o),
(312,72,o),
(292,72,cs),
(270.667,72,o),
(254,57.333,o),
(254,36,cs),
(254,14.667,o),
(270.667,0,o),
(292,0,cs)
);
}
);
width = 357;
},
{
layerId = m003;
shapes = (
{
closed = 1;
nodes = (
(159.667,0,o),
(196,35,o),
(196,83,cs),
(196,129.667,o),
(159.667,166,o),
(113,166,cs),
(66.333,166,o),
(30,129.667,o),
(30,83,cs),
(30,35,o),
(66.333,0,o),
(113,0,cs)
);
},
{
closed = 1;
nodes = (
(356.667,0,o),
(393,35,o),
(393,83,cs),
(393,129.667,o),
(356.667,166,o),
(310,166,cs),
(263.333,166,o),
(227,129.667,o),
(227,83,cs),
(227,35,o),
(263.333,0,o),
(310,0,cs)
);
},
{
closed = 1;
nodes = (
(553.667,0,o),
(590,35,o),
(590,83,cs),
(590,129.667,o),
(553.667,166,o),
(507,166,cs),
(460.333,166,o),
(424,129.667,o),
(424,83,cs),
(424,35,o),
(461.667,0,o),
(507,0,cs)
);
}
);
width = 620;
}
);
unicode = 8230;
},
{
color = 5;
glyphname = exclam;
lastChange = "2023-07-12 06:13:43 +0000";
layers = (
{
layerId = m001;
shapes = (
{
closed = 1;
nodes = (
(99,164,l),
(108,702,l),
(54,702,l),
(54,185,l),
(54,185,l)
);
},
{
closed = 1;
nodes = (
(45.333,76,o),
(30,59.333,o),
(30,38,cs),
(30,16.667,o),
(45.333,0,o),
(68,0,cs),
(89.333,0,o),
(107,16.667,o),
(107,38,cs),
(107,59.333,o),
(89.333,76,o),
(68,76,cs)
);
}
);
width = 138;
},
{
layerId = m003;
shapes = (
{
closed = 1;
nodes = (
(193,208,l),
(213,714,l),
(31,714,l),
(51,248,l),
(51,248,l)
);
},
{
closed = 1;
nodes = (
(70,183,o),
(30,143,o),
(30,91,cs),
(30,39,o),
(70,0,o),
(122,0,cs),
(172.667,0,o),
(213,39,o),
(213,91,cs),
(213,143,o),
(172.667,183,o),
(122,183,cs)
);
}
);
width = 243;
}
);
unicode = 33;
},
{
glyphname = exclamdown;
lastChange = "2023-07-12 06:13:43 +0000";
layers = (
{
layerId = m001;
shapes = (
{
closed = 1;
nodes = (
(92.667,626,o),
(108,642.667,o),
(108,664,cs),
(108,685.333,o),
(92.667,702,o),
(70,702,cs),
(48.667,702,o),
(31,685.333,o),
(31,664,cs),
(31,642.667,o),
(48.667,626,o),
(70,626,cs)
);
},
{
closed = 1;
nodes = (
(39,538,l),
(30,0,l),
(84,0,l),
(84,517,l),
(84,517,l),
(84,517,l)
);
}
);
width = 138;
},
{
layerId = m003;
shapes = (
{
closed = 1;
nodes = (
(173,531,o),
(213,571,o),
(213,623,cs),
(213,675,o),
(173,714,o),
(121,714,cs),
(70.333,714,o),
(30,675,o),
(30,623,cs),
(30,571,o),
(70.333,531,o),
(121,531,cs)
);
},
{
closed = 1;
nodes = (
(50,506,l),
(30,0,l),
(212,0,l),
(192,466,l),
(192,466,l),
(192,466,l)
);
}
);
width = 243;
}
);
unicode = 161;
},
{
glyphname = question;
lastChange = "2023-07-12 06:13:43 +0000";
layers = (
{
layerId = m001;
shapes = (
{
closed = 1;
nodes = (
(107.333,702,o),
(44.667,671.667,o),
(10,641,c),
(18,600,l),
(70,637.333,o),
(112,661,o),
(184,661,cs),
(260,661,o),
(309,617,o),
(309,537,cs),
(309,461,o),
(243,396.333,o),
(139,363,c),
(146,158,l),
(179,137,l),
(189,332,l),
(301.177,382.079,o),
(362,462.611,o),
(362,538,cs),
(362,630.555,o),
(309.371,702,o),
(186,702,cs)
);
},
{
closed = 1;
nodes = (
(131.333,76,o),
(116,59.333,o),
(116,38,cs),
(116,16.667,o),
(131.333,0,o),
(154,0,cs),
(175.333,0,o),
(193,16.667,o),
(193,38,cs),
(193,59.333,o),
(175.333,76,o),
(154,76,cs)
);
}
);
width = 392;
},
{
layerId = m003;
shapes = (
{
closed = 1;
nodes = (
(142.333,701,o),
(78,687.667,o),
(10,649,c),
(33,500,l),
(113,545.333,o),
(164.667,553,o),
(198,553,cs),
(227.333,553,o),
(249,537.333,o),
(249,512,cs),
(249,476,o),
(186,430,o),
(98,402,c),
(105,243,l),
(248,204,l),
(260,319,l),
(383.956,363.547,o),
(437,427.142,o),
(437,509,cs),
(437,624.359,o),
(340.671,701,o),
(201,701,cs)
);
},
{
closed = 1;
nodes = (
(115,183,o),
(75,143,o),
(75,91,cs),
(75,39,o),
(115,0,o),
(167,0,cs),
(217.667,0,o),
(258,39,o),
(258,91,cs),
(258,143,o),
(217.667,183,o),
(167,183,cs)
);
}
);
width = 467;
}
);
unicode = 63;
},
{
glyphname = questiondown;
lastChange = "2023-07-12 06:13:43 +0000";
layers = (
{
layerId = m001;
shapes = (
{
closed = 1;
nodes = (
(260.667,546,o),
(276,562.667,o),
(276,584,cs),
(276,605.333,o),
(260.667,622,o),
(238,622,cs),
(216.667,622,o),
(199,605.333,o),
(199,584,cs),
(199,562.667,o),
(216.667,546,o),
(238,546,cs)
);
},
{
closed = 1;
nodes = (
(284.667,-80,o),
(347.333,-49.667,o),
(382,-19,c),
(374,22,l),
(322,-15.333,o),
(280,-39,o),
(208,-39,cs),
(132,-39,o),
(83,5,o),
(83,85,cs),
(83,161,o),
(149,225.667,o),
(253,259,c),
(246,464,l),
(213,485,l),
(203,290,l),
(95.738,243.195,o),
(30,161.935,o),
(30,84,cs),
(30,-14.26,o),
(88.985,-80,o),
(206,-80,cs)
);
}
);
width = 392;
},
{
layerId = m003;
shapes = (
{
closed = 1;
nodes = (
(352,481,o),
(392,521,o),
(392,573,cs),
(392,625,o),
(352,664,o),
(300,664,cs),
(249.333,664,o),
(209,625,o),
(209,573,cs),
(209,521,o),
(249.333,481,o),
(300,481,cs)
);
},
{
closed = 1;
nodes = (
(324.667,-37,o),
(389,-23.667,o),
(457,15,c),
(434,164,l),
(354,118.667,o),
(302.333,111,o),
(269,111,cs),
(239.667,111,o),
(218,126.667,o),
(218,152,cs),
(218,188,o),
(281,234,o),
(369,262,c),
(362,421,l),
(219,460,l),
(207,345,l),
(107,310,o),
(30,253,o),
(30,155,cs),
(30,43.569,o),
(122.482,-37,o),
(266,-37,cs)
);
}
);
width = 467;
}
);
unicode = 191;
},
{
glyphname = periodcentered;
lastChange = "2023-07-12 06:13:43 +0000";
layers = (
{
layerId = m001;
shapes = (
{
closed = 1;
nodes = (
(89.333,224,o),
(107,240.667,o),
(107,262,cs),
(107,283.333,o),
(89.333,300,o),
(68,300,cs),
(45.333,300,o),
(30,283.333,o),
(30,262,cs),
(30,240.667,o),
(45.333,224,o),
(68,224,cs)
);
}
);
width = 137;
},
{
layerId = m003;
shapes = (
{
closed = 1;
nodes = (
(172.667,172,o),
(213,211,o),
(213,263,cs),
(213,315,o),
(172.667,355,o),
(122,355,cs),
(70,355,o),
(30,315,o),
(30,263,cs),
(30,211,o),
(70,172,o),
(122,172,cs)
);
}
);
width = 243;
}
);
unicode = 183;
},
{
glyphname = bullet;
lastChange = "2023-07-12 06:13:43 +0000";
layers = (
{
layerId = m001;
shapes = (
{
closed = 1;
nodes = (
(126.601,265,o),
(153,294.972,o),
(153,326,cs),
(153,360.638,o),
(126.795,388,o),
(92,388,cs),
(56.428,388,o),
(30,362.38,o),
(30,326,cs),
(30,293.498,o),
(56.394,265,o),
(92,265,cs)
);
}
);
width = 183;
},
{
layerId = m003;
shapes = (
{
closed = 1;
nodes = (
(221.93,208,o),
(278,262.386,o),
(278,331,cs),
(278,399.064,o),
(221.534,455,o),
(153,455,cs),
(84.737,455,o),
(30,399.114,o),
(30,331,cs),
(30,262.335,o),
(84.335,208,o),
(153,208,cs)
);
}
);
width = 308;
}
);
unicode = 8226;
},
{
color = 5;
glyphname = asterisk;
lastChange = "2023-07-12 06:13:43 +0000";
layers = (
{
layerId = m001;
shapes = (
{
closed = 1;
nodes = (
(137,774,l),
(137,654,l),
(22,685,l),
(10,653,l),
(125,624,l),
(46,505,l),
(82,489,l),
(156,602,l),
(235,489,l),
(266,505,l),
(187,624,l),
(303,653,l),
(290,685,l),
(172,654,l),
(172,774,l),
(172,774,l),
(172,774,l)
);
}
);
width = 313;
},
{
layerId = m003;
shapes = (
{
closed = 1;
nodes = (
(141,782,l),
(141,686,l),
(44,714,l),
(10,585,l),
(104,568,l),
(32,477,l),
(149,403,l),
(212,496,l),
(275,403,l),
(392,477,l),
(320,568,l),
(414,585,l),
(380,714,l),
(285,686,l),
(285,782,l),
(285,782,l),
(285,782,l)
);
}
);
width = 424;
}
);
unicode = 42;
},
{
color = 5;
glyphname = numbersign;
lastChange = "2023-07-12 06:13:43 +0000";
layers = (
{
layerId = m001;
shapes = (
{
closed = 1;
nodes = (
(347,371,l),
(216,371,l),
(249,502,l),
(202,502,l),
(169,371,l),
(30,371,l),
(38,332,l),
(159,332,l),
(121,179,l),
(30,179,l),
(38,140,l),
(111,140,l),
(77,4,l),
(123,0,l),
(158,140,l),
(289,140,l),
(255,4,l),
(301,0,l),
(336,140,l),
(467,140,l),
(460,179,l),
(346,179,l),
(384,332,l),
(467,332,l),
(460,371,l),
(394,371,l),
(427,502,l),
(380,502,l),
(380,502,l),
(380,502,l)
);
},
{
closed = 1;
nodes = (
(299,179,l),
(168,179,l),
(206,332,l),
(337,332,l),
(337,332,l),
(337,332,l)
);
}
);
width = 497;
},
{
layerId = m003;
shapes = (
{
closed = 1;
nodes = (
(411,426,l),
(316,426,l),
(338,517,l),
(189,517,l),
(167,426,l),
(30,426,l),
(41,293,l),
(135,293,l),
(117,215,l),
(30,215,l),
(41,82,l),
(85,82,l),
(64,-10,l),
(211,-15,l),
(234,82,l),
(329,82,l),
(308,-10,l),
(455,-15,l),
(478,82,l),
(617,82,l),
(607,215,l),
(510,215,l),
(528,293,l),
(617,293,l),
(607,426,l),
(560,426,l),
(582,517,l),
(433,517,l),
(433,517,l),
(433,517,l)
);
},
{
closed = 1;
nodes = (
(361,215,l),
(266,215,l),
(284,293,l),
(379,293,l),
(379,293,l),
(379,293,l)
);
}
);
width = 647;
}
);
unicode = 35;
},
{
color = 5;
glyphname = slash;
lastChange = "2023-07-12 06:13:43 +0000";
layers = (
{
layerId = m001;
shapes = (
{
closed = 1;
nodes = (
(10,0,l),
(56,-4,l),
(365,706,l),
(318,710,l),
(318,710,l),
(318,710,l)
);
}
);
width = 375;
},
{
layerId = m003;
shapes = (
{
closed = 1;
nodes = (
(10,0,l),
(197,0,l),
(496,706,l),
(308,706,l),
(308,706,l),
(308,706,l)
);
}
);
width = 506;
}
);
unicode = 47;
},
{
color = 5;
glyphname = backslash;
lastChange = "2023-07-12 06:13:43 +0000";
layers = (
{
layerId = m001;
shapes = (
{
closed = 1;
nodes = (
(57,710,l),
(10,706,l),
(318,-4,l),
(365,0,l),
(365,0,l),
(365,0,l)
);
}
);
width = 375;
},
{
layerId = m003;
shapes = (
{
closed = 1;
nodes = (
(198,710,l),
(10,710,l),
(309,0,l),
(496,0,l),
(496,0,l),
(496,0,l)
);
}
);
width = 506;
}
);
unicode = 92;
},
{
glyphname = hyphenminus;
lastChange = "2023-07-12 06:13:43 +0000";
layers = (
{
layerId = m001;
shapes = (
{
closed = 1;
nodes = (
(30,292,l),
(38,253,l),
(281,253,l),
(273,292,l),
(273,292,l),
(273,292,l)
);
}
);
width = 311;
},
{
layerId = m003;
shapes = (
{
closed = 1;
nodes = (
(30,345,l),
(41,202,l),
(322,202,l),
(312,345,l),
(312,345,l),
(312,345,l)
);
}
);
width = 352;
}
);
unicode = 45;
},
{
glyphname = endash;
lastChange = "2023-07-12 06:13:43 +0000";
layers = (
{
layerId = m001;
shapes = (
{
closed = 1;
nodes = (
(30,293,l),
(38,254,l),
(402,254,l),
(394,293,l),
(394,293,l),
(394,293,l)
);
}
);
width = 432;
},
{
layerId = m003;
shapes = (
{
closed = 1;
nodes = (
(30,345,l),
(41,202,l),
(426,202,l),
(416,345,l),
(416,345,l),
(416,345,l)
);
}
);
width = 456;
}
);
unicode = 8211;
},
{
glyphname = emdash;
lastChange = "2023-07-12 06:13:43 +0000";
layers = (
{
layerId = m001;
shapes = (
{
closed = 1;
nodes = (
(30,293,l),
(38,254,l),
(494,254,l),
(486,293,l),
(486,293,l),
(486,293,l)
);
}
);
width = 524;
},
{
layerId = m003;
shapes = (
{
closed = 1;
nodes = (
(30,345,l),
(41,202,l),
(543,202,l),
(533,345,l),
(533,345,l),
(533,345,l)
);
}
);
width = 573;
}
);
unicode = 8212;
},
{
glyphname = underscore;
lastChange = "2023-07-12 06:13:43 +0000";
layers = (
{
layerId = m001;
shapes = (
{
closed = 1;
nodes = (
(30,39,l),
(38,0,l),
(399,0,l),
(391,39,l),
(391,39,l),
(391,39,l)
);
}
);
width = 429;
},
{
layerId = m003;
shapes = (
{
closed = 1;
nodes = (
(30,143,l),
(41,0,l),
(426,0,l),
(416,143,l),
(416,143,l),
(416,143,l)
);
}
);
width = 456;
}
);
unicode = 95;
},
{
color = 5;
glyphname = parenleft;
lastChange = "2023-07-12 06:13:43 +0000";
layers = (
{
layerId = m001;
shapes = (
{
closed = 1;
nodes = (
(150.113,42.564,o),
(101,222.853,o),
(101,321,cs),
(101,417.334,o),
(150.054,592.695,o),
(209,657,c),
(169,675,l),
(86.943,571.452,o),
(50,428.175,o),
(50,320,cs),
(50,210.644,o),
(86.624,68.912,o),
(169,-37,c),
(209,-19,l),
(209,-19,l),
(209,-19,l)
);
}
);
width = 239;
},
{
layerId = m003;
shapes = (
{
closed = 1;
nodes = (
(285.463,65.284,o),
(232,210.281,o),
(232,322,cs),
(232,418.391,o),
(277.457,555.653,o),
(340,645,c),
(177,682,l),
(97.15,566.217,o),
(50,450.484,o),
(50,321,cs),
(50,188.042,o),
(99.004,64.994,o),
(177,-39,c),
(339,-1,l),
(339,-1,l),
(339,-1,l)
);
}
);
width = 370;
}
);
unicode = 40;
},
{
color = 5;
glyphname = parenright;
lastChange = "2023-07-12 06:13:43 +0000";
layers = (
{
layerId = m001;
shapes = (
{
closed = 1;
nodes = (
(90.916,587.382,o),
(138,408.853,o),
(138,319,cs),
(138,222.163,o),
(88.021,44.547,o),
(30,-19,c),
(70,-37,l),
(150.166,68.585,o),
(189,211.495,o),
(189,320,cs),
(189,426.319,o),
(150.348,571.136,o),
(70,675,c),
(30,657,l),
(30,657,l),
(30,657,l)
);
}
);
width = 239;
},
{
layerId = m003;
shapes = (
{
closed = 1;
nodes = (
(84.537,577.716,o),
(138,432.719,o),
(138,321,cs),
(138,216.932,o),
(87.287,79.839,o),
(30,-2,c),
(193,-39,l),
(273.608,75.031,o),
(320,193.956,o),
(320,322,cs),
(320,452.118,o),
(273.003,577.996,o),
(193,682,c),
(31,644,l),
(31,644,l),
(31,644,l)
);
}
);
width = 370;
}
);
unicode = 41;
},
{
color = 5;
glyphname = braceleft;
lastChange = "2023-07-12 06:13:43 +0000";
layers = (
{
layerId = m001;
shapes = (
{
closed = 1;
nodes = (
(162.333,323,o),
(193,360.333,o),
(193,419,cs),
(193,467,o),
(155,511,o),
(155,560,cs),
(155,588,o),
(177.667,620,o),
(227,620,cs),
(246,620,l),
(255,659,l),
(229,659,ls),
(145,659,o),
(105,618,o),
(105,554,cs),
(105,499,o),
(141,465,o),
(141,410,cs),
(141,360.667,o),
(103,326,o),
(63,326,cs),
(30,326,l),
(30,288,l),
(63,288,ls),
(103,288,o),
(141,253.333,o),
(141,204,cs),
(141,149,o),
(105,115,o),
(105,60,cs),
(105,-4,o),
(145,-45,o),
(229,-45,cs),
(255,-45,l),
(246,-6,l),
(227,-6,ls),
(177.667,-6,o),
(155,26,o),
(155,54,cs),
(155,104,o),
(193,147,o),
(193,195,cs),
(193,253.667,o),
(162.333,291,o),
(129,307,c)
);
}
);
width = 265;
},
{
layerId = m003;
shapes = (
{
closed = 1;
nodes = (
(265.333,319.333,o),
(286,333.333,o),
(286,372,cs),
(286,426,o),
(251,437,o),
(251,482,cs),
(251,500.667,o),
(259.667,517,o),
(289,517,cs),
(326,517,l),
(339,659,l),
(226,659,ls),
(127.333,659,o),
(84,609,o),
(84,533,cs),
(84,477,o),
(117,449,o),
(117,411,cs),
(117,388,o),
(96.333,373,o),
(75,373,cs),
(30,373,l),
(30,247,l),
(75,247,ls),
(96.333,247,o),
(117,232,o),
(117,209,cs),
(117,175,o),
(84,128,o),
(84,87,cs),
(84,11,o),
(127.333,-39,o),
(226,-39,cs),
(339,-39,l),
(326,103,l),
(289,103,ls),
(259.667,103,o),
(251,119.333,o),
(251,138,cs),
(251,188,o),
(286,196,o),
(286,248,cs),
(286,285.333,o),
(265.333,300.667,o),
(252,310,c)
);
}
);
width = 349;
},
{
associatedMasterId = m001;
layerId = "6D279DE6-C92A-488B-A8D5-EB1CCF22A2E7";
name = "Jul 11, 23, 08:31";
shapes = (
{
closed = 1;
nodes = (
(162.333,323,o),
(193,360.333,o),
(193,419,cs),
(193,436.333,o),
(187.333,459.667,o),
(174,489,cs),
(160.667,518.333,o),
(155,542.667,o),
(155,560,cs),
(155,588,o),
(177.667,620,o),
(227,620,cs),
(246,620,l),
(255,659,l),
(229,659,ls),
(145,659,o),
(105,618,o),
(105,554,cs),
(105,532.667,o),
(111,508.667,o),
(123,482,cs),
(135,455.333,o),
(141,431.333,o),
(141,410,cs),
(141,360.667,o),
(103,326,o),
(63,326,cs),
(30,326,l),
(30,288,l),
(63,288,ls),
(103,288,o),
(141,253.333,o),
(141,204,cs),
(141,182.667,o),
(135,158.667,o),
(123,132,cs),
(111,105.333,o),
(105,81.333,o),
(105,60,cs),
(105,-4,o),
(145,-45,o),
(229,-45,cs),
(255,-45,l),
(246,-6,l),
(227,-6,ls),
(177.667,-6,o),
(155,26,o),
(155,54,cs),
(155,72.667,o),
(160.667,95.667,o),
(174,125,cs),
(187.333,154.333,o),
(193,177.667,o),
(193,195,cs),
(193,253.667,o),
(162.333,291,o),
(129,307,c)
);
}
);
visible = 1;
width = 265;
},
{
associatedMasterId = m003;
layerId = "00057A6B-E8E2-4069-9544-59F7D04C6B29";
name = "Jul 11, 23, 08:31";
shapes = (
{
closed = 1;
nodes = (
(265.333,319.333,o),
(286,333.333,o),
(286,372,cs),
(286,402.667,o),
(277.333,416.667,o),
(268,430,cs),
(260,444.667,o),
(251,456.667,o),
(251,482,cs),
(251,500.667,o),
(259.667,517,o),
(289,517,cs),
(326,517,l),
(339,659,l),
(226,659,ls),
(127.333,659,o),
(84,609,o),
(84,533,cs),
(84,511.667,o),
(90,491.667,o),
(98,473,cs),
(107.333,449,o),
(117,427,o),
(117,411,cs),
(117,388.333,o),
(96.333,373,o),
(75,373,cs),
(30,373,l),
(30,247,l),
(75,247,ls),
(96.333,247,o),
(117,231.667,o),
(117,209,cs),
(117,200.333,o),
(115.167,191.333,o),
(111.5,182,cs),
(107.833,172.667,o),
(104,162.333,o),
(100,151,cs),
(92,131,o),
(84,109.667,o),
(84,87,cs),
(84,11,o),
(127.333,-39,o),
(226,-39,cs),
(339,-39,l),
(326,103,l),
(289,103,ls),
(259.667,103,o),
(251,119.333,o),
(251,138,cs),
(251,164.667,o),
(259.667,178.333,o),
(269,193,cs),
(277,207.667,o),
(286,221.333,o),
(286,248,cs),
(286,285.333,o),
(265.333,300.667,o),
(252,310,c)
);
}
);
width = 349;
}
);
unicode = 123;
},
{
color = 5;
glyphname = braceright;
lastChange = "2023-07-12 06:13:43 +0000";
layers = (
{
layerId = m001;
shapes = (
{
closed = 1;
nodes = (
(102.667,291,o),
(72,253.667,o),
(72,195,cs),
(72,147,o),
(110,104,o),
(110,54,cs),
(110,26,o),
(87.333,-6,o),
(38,-6,cs),
(19,-6,l),
(10,-45,l),
(36,-45,ls),
(120,-45,o),
(160,-4,o),
(160,60,cs),
(160,115,o),
(124,149,o),
(124,204,cs),
(124,253.333,o),
(162,288,o),
(202,288,cs),
(235,288,l),
(235,326,l),
(202,326,ls),
(162,326,o),
(124,360.667,o),
(124,410,cs),
(124,465,o),
(160,499,o),
(160,554,cs),
(160,618,o),
(120,659,o),
(36,659,cs),
(10,659,l),
(19,620,l),
(38,620,ls),
(87.333,620,o),
(110,588,o),
(110,560,cs),
(110,511,o),
(72,467,o),
(72,419,cs),
(72,360.333,o),
(102.667,323,o),
(136,307,c)
);
}
);
width = 265;
},
{
layerId = m003;
shapes = (
{
closed = 1;
nodes = (
(83.667,300.667,o),
(63,286.667,o),
(63,248,cs),
(63,197,o),
(98,189,o),
(98,138,cs),
(98,119.333,o),
(89.333,103,o),
(60,103,cs),
(23,103,l),
(10,-39,l),
(123,-39,ls),
(221.667,-39,o),
(265,11,o),
(265,87,cs),
(265,134,o),
(232,184,o),
(232,209,cs),
(232,232,o),
(252.667,247,o),
(274,247,cs),
(319,247,l),
(319,373,l),
(274,373,ls),
(252.667,373,o),
(232,388,o),
(232,411,cs),
(232,444,o),
(265,482,o),
(265,533,cs),
(265,609,o),
(221.667,659,o),
(123,659,cs),
(10,659,l),
(23,517,l),
(60,517,ls),
(89.333,517,o),
(98,500.667,o),
(98,482,cs),
(98,429,o),
(63,426,o),
(63,372,cs),
(63,334.667,o),
(83.667,319.333,o),
(97,310,c)
);
}
);
width = 349;
},
{
associatedMasterId = m001;
layerId = "56A264AB-865E-42D6-8692-B75A086FE55F";
name = "Jul 11, 23, 08:28";
shapes = (
{
closed = 1;
nodes = (
(102.667,291,o),
(72,253.667,o),
(72,195,cs),
(72,177.667,o),
(77.667,154.333,o),
(91,125,cs),
(104.333,95.667,o),
(110,72.667,o),
(110,54,cs),
(110,26,o),
(87.333,-6,o),
(38,-6,cs),
(19,-6,l),
(10,-45,l),
(36,-45,ls),
(120,-45,o),
(160,-4,o),
(160,60,cs),
(160,81.333,o),
(154,105.333,o),
(142,132,cs),
(130,158.667,o),
(124,182.667,o),
(124,204,cs),
(124,253.333,o),
(162,288,o),
(202,288,cs),
(235,288,l),
(235,326,l),
(202,326,ls),
(162,326,o),
(124,360.667,o),
(124,410,cs),
(124,431.333,o),
(130,455.333,o),
(142,482,cs),
(154,508.667,o),
(160,532.667,o),
(160,554,cs),
(160,618,o),
(120,659,o),
(36,659,cs),
(10,659,l),
(19,620,l),
(38,620,ls),
(87.333,620,o),
(110,588,o),
(110,560,cs),
(110,542.667,o),
(104.333,518.333,o),
(91,489,cs),
(77.667,459.667,o),
(72,436.333,o),
(72,419,cs),
(72,360.333,o),
(102.667,323,o),
(136,307,c)
);
}
);
width = 265;
},
{
associatedMasterId = m003;
layerId = "FE1A4282-2E2B-4831-8C44-47C798AAC228";
name = "Jul 11, 23, 08:28";
shapes = (
{
closed = 1;
nodes = (
(83.667,300.667,o),
(63,286.667,o),
(63,248,cs),
(63,221.333,o),
(70.667,207.333,o),
(80,194,cs),
(89.333,180.667,o),
(98,166,o),
(98,138,cs),
(98,119.333,o),
(89.333,103,o),
(60,103,cs),
(23,103,l),
(10,-39,l),
(123,-39,ls),
(221.667,-39,o),
(265,11,o),
(265,87,cs),
(265,109.667,o),
(256,135.333,o),
(248,158,cs),
(240,178,o),
(232,195.667,o),
(232,209,cs),
(232,231.667,o),
(252.667,247,o),
(274,247,cs),
(319,247,l),
(319,373,l),
(274,373,ls),
(252.667,373,o),
(232,388.333,o),
(232,411,cs),
(232,419.667,o),
(234.167,429.333,o),
(238.5,440,cs),
(242.833,450.667,o),
(247.333,462,o),
(252,474,cs),
(258.667,492.667,o),
(265,513,o),
(265,533,cs),
(265,609,o),
(221.667,659,o),
(123,659,cs),
(10,659,l),
(23,517,l),
(60,517,ls),
(89.333,517,o),
(98,500.667,o),
(98,482,cs),
(98,456.667,o),
(90,443.333,o),
(82,430,cs),
(72.667,415.333,o),
(63,401.333,o),
(63,372,cs),
(63,334.667,o),
(83.667,319.333,o),
(97,310,c)
);
}
);
visible = 1;
width = 349;
}
);
unicode = 125;
},
{
color = 5;
glyphname = bracketleft;
lastChange = "2023-07-12 06:13:43 +0000";
layers = (
{
layerId = m001;
shapes = (
{
closed = 1;
nodes = (
(255,-88,l),
(247,-49,l),
(149,-49,l),
(149,657,l),
(247,657,l),
(255,696,l),
(100,696,l),
(100,-88,l),
(100,-88,l),
(100,-88,l)
);
}
);
width = 265;
},
{
layerId = m003;
shapes = (
{
closed = 1;
nodes = (
(468,-87,l),
(451,56,l),
(282,56,l),
(282,553,l),
(452,553,l),
(468,696,l),
(100,696,l),
(100,-87,l),
(100,-87,l),
(100,-87,l)
);
}
);
width = 478;
}
);
unicode = 91;
},
{
color = 5;
glyphname = bracketright;
lastChange = "2023-07-12 06:13:43 +0000";
layers = (
{
layerId = m001;
shapes = (
{
closed = 1;
nodes = (
(10,696,l),
(18,657,l),
(116,657,l),
(116,-49,l),
(18,-49,l),
(10,-88,l),
(165,-88,l),
(165,696,l),
(165,696,l),
(165,696,l)
);
}
);
width = 265;
},
{
layerId = m003;
shapes = (
{
closed = 1;
nodes = (
(10,696,l),
(26,553,l),
(196,553,l),
(196,56,l),
(27,56,l),
(10,-87,l),
(378,-87,l),
(378,696,l),
(378,696,l),
(378,696,l)
);
}
);
width = 478;
}
);
unicode = 93;
},
{
glyphname = quotesinglbase;
lastChange = "2023-07-12 06:13:43 +0000";
layers = (
{
layerId = m001;
shapes = (
{
closed = 1;
nodes = (
(61.245,76,o),
(45,59.932,o),
(45,37,cs),
(45,21.399,o),
(59.149,-1,o),
(81,-1,c),
(79.667,-37,o),
(54.667,-64.333,o),
(20,-83,c),
(36,-108,l),
(90.072,-80.964,o),
(122,-31.431,o),
(122,33,cs),
(122,53,o),
(107,76,o),
(83,76,cs)
);
}
);
width = 152;
},
{
layerId = m003;
shapes = (
{
closed = 1;
nodes = (
(71.738,147,o),
(29,104.563,o),
(29,55,cs),
(29,22.251,o),
(47.214,-6.476,o),
(72,-23,c),
(66.667,-40.333,o),
(38.667,-63.333,o),
(20,-74,c),
(56,-154,l),
(148.889,-118.111,o),
(213,-35.588,o),
(213,40,cs),
(213,104,o),
(171.667,147,o),
(121,147,cs)
);
}
);
width = 243;
}
);
unicode = 8218;
},
{
glyphname = quotedblbase;
lastChange = "2023-07-12 06:13:43 +0000";
layers = (
{
layerId = m001;
shapes = (
{
closed = 1;
nodes = (
(61.245,76,o),
(45,59.932,o),
(45,37,cs),
(45,21.399,o),
(59.149,-1,o),
(81,-1,c),
(79.667,-37,o),
(54.667,-64.333,o),
(20,-83,c),
(36,-108,l),
(90.072,-80.964,o),
(122,-31.431,o),
(122,33,cs),
(122,53,o),
(107,76,o),
(83,76,cs)
);
},
{
closed = 1;
nodes = (
(184.245,76,o),
(168,59.932,o),
(168,37,cs),
(168,23.667,o),
(180,-1,o),
(204,-1,c),
(202.667,-37,o),
(177.667,-64.333,o),
(143,-83,c),
(159,-108,l),
(213.072,-80.964,o),
(245,-31.431,o),
(245,33,cs),
(245,53,o),
(230,76,o),
(206,76,cs)
);
}
);
width = 275;
},
{
layerId = m003;
shapes = (
{
closed = 1;
nodes = (
(71.738,147,o),
(29,104.563,o),
(29,55,cs),
(29,22.251,o),
(47.214,-6.476,o),
(72,-23,c),
(66.667,-40.333,o),
(38.667,-63.333,o),
(20,-74,c),
(56,-154,l),
(148.889,-118.111,o),
(213,-35.588,o),
(213,40,cs),
(213,104,o),
(171.667,147,o),
(121,147,cs)
);
},
{
closed = 1;
nodes = (
(281.738,147,o),
(239,104.563,o),
(239,55,cs),
(239,21.667,o),
(258,-8.333,o),
(282,-23,c),
(276.667,-40.333,o),
(248.667,-63.333,o),
(230,-74,c),
(266,-154,l),
(358.889,-118.111,o),
(423,-35.588,o),
(423,40,cs),
(423,104,o),
(381.667,147,o),
(331,147,cs)
);
}
);
width = 453;
}
);
unicode = 8222;
},
{
color = 5;
glyphname = quotedblleft;
lastChange = "2023-07-12 06:13:43 +0000";
layers = (
{
layerId = m001;
shapes = (
{
closed = 1;
nodes = (
(94.892,518,o),
(107,537.527,o),
(107,557,cs),
(107,570.333,o),
(95,595,o),
(71,595,c),
(72.333,631,o),
(97.333,658.333,o),
(132,677,c),
(116,702,l),
(62.766,677.284,o),
(30,625.215,o),
(30,561,cs),
(30,541,o),
(45,518,o),
(69,518,cs)
);
},
{
closed = 1;
nodes = (
(217.892,518,o),
(230,537.527,o),
(230,557,cs),
(230,572.601,o),
(215.851,595,o),
(194,595,c),
(195.333,631,o),
(220.333,658.333,o),
(255,677,c),
(239,702,l),
(185.766,677.284,o),
(153,625.215,o),
(153,561,cs),
(153,541,o),
(168,518,o),
(192,518,cs)
);
}
);
width = 275;
},
{
layerId = m003;
shapes = (
{
closed = 1;
nodes = (
(174.458,441,o),
(214,487.296,o),
(214,533,cs),
(214,566.333,o),
(195,596.333,o),
(171,611,c),
(176.333,628.333,o),
(204.333,651.333,o),
(223,662,c),
(187,742,l),
(100.537,710.559,o),
(30,628.038,o),
(30,548,cs),
(30,484,o),
(71.333,441,o),
(122,441,cs)
);
},
{
closed = 1;
nodes = (
(384.458,441,o),
(424,487.296,o),
(424,533,cs),
(424,564.431,o),
(408.453,594.986,o),
(381,611,c),
(386.333,628.333,o),
(414.333,651.333,o),
(433,662,c),
(397,742,l),
(310.537,710.559,o),
(240,628.038,o),
(240,548,cs),
(240,484,o),
(281.333,441,o),
(332,441,cs)
);
}
);
width = 453;
}
);
unicode = 8220;
},
{
color = 5;
glyphname = quotedblright;
lastChange = "2023-07-12 06:13:43 +0000";
layers = (
{
layerId = m001;
shapes = (
{
closed = 1;
nodes = (
(184.245,702,o),
(168,685.932,o),
(168,663,cs),
(168,649.667,o),
(180,625,o),
(204,625,c),
(202.667,589,o),
(177.667,561.667,o),
(143,543,c),
(159,518,l),
(215.628,546.314,o),
(245,597.848,o),
(245,659,cs),
(245,679,o),
(230,702,o),
(206,702,cs)
);
},
{
closed = 1;
nodes = (
(61.245,702,o),
(45,685.932,o),
(45,663,cs),
(45,649.566,o),
(57.453,625,o),
(81,625,c),
(79.667,589,o),
(54.667,561.667,o),
(20,543,c),
(36,518,l),
(92.628,546.314,o),
(122,597.848,o),
(122,659,cs),
(122,679,o),
(107,702,o),
(83,702,cs)
);
}
);
width = 275;
},
{
layerId = m003;
shapes = (
{
closed = 1;
nodes = (
(281.738,742,o),
(239,699.563,o),
(239,650,cs),
(239,616.667,o),
(258,586.667,o),
(282,572,c),
(276.667,554.667,o),
(248.667,531.667,o),
(230,521,c),
(266,441,l),
(358.889,476.889,o),
(423,559.412,o),
(423,635,cs),
(423,699,o),
(381.667,742,o),
(331,742,cs)
);
},
{
closed = 1;
nodes = (
(71.738,742,o),
(29,699.563,o),
(29,650,cs),
(29,617.251,o),
(47.214,588.524,o),
(72,572,c),
(66.667,554.667,o),
(38.667,531.667,o),
(20,521,c),
(56,441,l),
(148.889,476.889,o),
(213,559.412,o),
(213,635,cs),
(213,699,o),
(171.667,742,o),
(121,742,cs)
);
}
);
width = 453;
}
);
unicode = 8221;
},
{
color = 5;
glyphname = quoteleft;
lastChange = "2023-07-12 06:13:43 +0000";
layers = (
{
layerId = m001;
shapes = (
{
closed = 1;
nodes = (
(94.892,518,o),
(107,537.527,o),
(107,557,cs),
(107,570.333,o),
(95,595,o),
(71,595,c),
(72.333,631,o),
(97.333,658.333,o),
(132,677,c),
(116,702,l),
(62.766,677.284,o),
(30,625.215,o),
(30,561,cs),
(30,541,o),
(45,518,o),
(69,518,cs)
);
}
);
width = 152;
},
{
layerId = m003;
shapes = (
{
closed = 1;
nodes = (
(174.458,441,o),
(214,487.296,o),
(214,533,cs),
(214,566.333,o),
(195,596.333,o),
(171,611,c),
(176.333,628.333,o),
(204.333,651.333,o),
(223,662,c),
(187,742,l),
(100.537,710.559,o),
(30,628.038,o),
(30,548,cs),
(30,484,o),
(71.333,441,o),
(122,441,cs)
);
}
);
width = 243;
}
);
unicode = 8216;
},
{
color = 5;
glyphname = quoteright;
lastChange = "2023-07-12 06:13:43 +0000";
layers = (
{
layerId = m001;
shapes = (
{
closed = 1;
nodes = (
(61.245,702,o),
(45,685.932,o),
(45,663,cs),
(45,649.566,o),
(57.453,625,o),
(81,625,c),
(79.667,589,o),
(54.667,561.667,o),
(20,543,c),
(36,518,l),
(92.628,546.314,o),
(122,597.848,o),
(122,659,cs),
(122,679,o),
(107,702,o),
(83,702,cs)
);
}
);
width = 152;
},
{
layerId = m003;
shapes = (
{
closed = 1;
nodes = (
(71.738,742,o),
(29,699.563,o),
(29,650,cs),
(29,617.251,o),
(47.214,588.524,o),
(72,572,c),
(66.667,554.667,o),
(38.667,531.667,o),
(20,521,c),
(56,441,l),
(148.889,476.889,o),
(213,559.412,o),
(213,635,cs),
(213,699,o),
(171.667,742,o),
(121,742,cs)
);
}
);
width = 243;
}
);
unicode = 8217;
},
{
color = 5;
glyphname = guillemetleft;
lastChange = "2023-07-12 06:13:43 +0000";
layers = (
{
layerId = m001;
shapes = (
{
closed = 1;
nodes = (
(322,84,l),
(343,115,l),
(220,245,l),
(343,375,l),
(322,406,l),
(182,261,l),
(182,229,l),
(182,229,l),
(182,229,l)
);
},
{
closed = 1;
nodes = (
(170,84,l),
(191,115,l),
(69,245,l),
(191,375,l),
(170,406,l),
(30,261,l),
(30,229,l),
(30,229,l),
(30,229,l)
);
}
);
width = 363;
},
{
layerId = m003;
shapes = (
{
closed = 1;
nodes = (
(368,73,l),
(401,179,l),
(335,247,l),
(401,314,l),
(368,421,l),
(211,269,l),
(211,224,l),
(211,224,l),
(211,224,l)
);
},
{
closed = 1;
nodes = (
(187,73,l),
(220,179,l),
(154,247,l),
(220,314,l),
(187,421,l),
(30,269,l),
(30,224,l),
(30,224,l),
(30,224,l)
);
}
);
width = 421;
}
);
unicode = 171;
},
{
color = 5;
glyphname = guillemetright;
lastChange = "2023-07-12 06:13:43 +0000";
layers = (
{
layerId = m001;
shapes = (
{
closed = 1;
nodes = (
(41,406,l),
(20,375,l),
(143,245,l),
(20,115,l),
(41,84,l),
(181,229,l),
(181,261,l),
(181,261,l),
(181,261,l)
);
},
{
closed = 1;
nodes = (
(193,406,l),
(172,375,l),
(294,245,l),
(172,115,l),
(193,84,l),
(333,229,l),
(333,261,l),
(333,261,l),
(333,261,l)
);
}
);
width = 363;
},
{
layerId = m003;
shapes = (
{
closed = 1;
nodes = (
(53,421,l),
(20,315,l),
(86,247,l),
(20,180,l),
(53,73,l),
(210,225,l),
(210,270,l),
(210,270,l),
(210,270,l)
);
},
{
closed = 1;
nodes = (
(234,421,l),
(201,315,l),
(267,247,l),
(201,180,l),
(234,73,l),
(391,225,l),
(391,270,l),
(391,270,l),
(391,270,l)
);
}
);
width = 421;
}
);
unicode = 187;
},
{
glyphname = guilsinglleft;
lastChange = "2023-07-12 06:13:43 +0000";
layers = (
{
layerId = m001;
shapes = (
{
closed = 1;
nodes = (
(170,83,l),
(191,117,l),
(72,245,l),
(191,373,l),
(170,408,l),
(30,259,l),
(30,231,l),
(30,231,l),
(30,231,l)
);
}
);
width = 211;
},
{
layerId = m003;
shapes = (
{
closed = 1;
nodes = (
(217,58,l),
(250,194,l),
(184,252,l),
(250,309,l),
(217,446,l),
(30,284,l),
(30,219,l),
(30,219,l),
(30,219,l)
);
}
);
width = 270;
}
);
unicode = 8249;
},
{
glyphname = guilsinglright;
lastChange = "2023-07-12 06:13:43 +0000";
layers = (
{
layerId = m001;
shapes = (
{
closed = 1;
nodes = (
(41,408,l),
(20,374,l),
(139,246,l),
(20,118,l),
(41,83,l),
(181,232,l),
(181,260,l),
(181,260,l),
(181,260,l)
);
}
);
width = 211;
},
{
layerId = m003;
shapes = (
{
closed = 1;
nodes = (
(53,446,l),
(20,310,l),
(86,252,l),
(20,195,l),
(53,58,l),
(240,220,l),
(240,285,l),
(240,285,l),
(240,285,l)
);
}
);
width = 270;
}
);
unicode = 8250;
},
{
color = 5;
glyphname = quotedbl;
lastChange = "2023-07-12 06:13:43 +0000";
layers = (
{
layerId = m001;
shapes = (
{
closed = 1;
nodes = (
(184.245,702,o),
(168,685.932,o),
(168,663,cs),
(168,649.667,o),
(180,625,o),
(204,625,c),
(202.667,589,o),
(177.667,561.667,o),
(143,543,c),
(159,518,l),
(215.628,546.314,o),
(245,597.848,o),
(245,659,cs),
(245,679,o),
(230,702,o),
(206,702,cs)
);
},
{
closed = 1;
nodes = (
(61.245,702,o),
(45,685.932,o),
(45,663,cs),
(45,649.566,o),
(57.453,625,o),
(81,625,c),
(79.667,589,o),
(54.667,561.667,o),
(20,543,c),
(36,518,l),
(92.628,546.314,o),
(122,597.848,o),
(122,659,cs),
(122,679,o),
(107,702,o),
(83,702,cs)
);
}
);
width = 275;
},
{
layerId = m003;
shapes = (
{
closed = 1;
nodes = (
(281.738,742,o),
(239,699.563,o),
(239,650,cs),
(239,616.667,o),
(258,586.667,o),
(282,572,c),
(276.667,554.667,o),
(248.667,531.667,o),
(230,521,c),
(266,441,l),
(358.889,476.889,o),
(423,559.412,o),
(423,635,cs),
(423,699,o),
(381.667,742,o),
(331,742,cs)
);
},
{
closed = 1;
nodes = (
(71.738,742,o),
(29,699.563,o),
(29,650,cs),
(29,617.251,o),
(47.214,588.524,o),
(72,572,c),
(66.667,554.667,o),
(38.667,531.667,o),
(20,521,c),
(56,441,l),
(148.889,476.889,o),
(213,559.412,o),
(213,635,cs),
(213,699,o),
(171.667,742,o),
(121,742,cs)
);
}
);
width = 453;
}
);
unicode = 34;
},
{
color = 5;
glyphname = quotesingle;
lastChange = "2023-07-12 06:13:43 +0000";
layers = (
{
layerId = m001;
shapes = (
{
closed = 1;
nodes = (
(61.245,702,o),
(45,685.932,o),
(45,663,cs),
(45,649.566,o),
(57.453,625,o),
(81,625,c),
(79.667,589,o),
(54.667,561.667,o),
(20,543,c),
(36,518,l),
(92.628,546.314,o),
(122,597.848,o),
(122,659,cs),
(122,679,o),
(107,702,o),
(83,702,cs)
);
}
);
width = 152;
},
{
layerId = m003;
shapes = (
{
closed = 1;
nodes = (
(71.738,742,o),
(29,699.563,o),
(29,650,cs),
(29,617.251,o),
(47.214,588.524,o),
(72,572,c),
(66.667,554.667,o),
(38.667,531.667,o),
(20,521,c),
(56,441,l),
(148.889,476.889,o),
(213,559.412,o),
(213,635,cs),
(213,699,o),
(171.667,742,o),
(121,742,cs)
);
}
);
width = 243;
}
);
unicode = 39;
},
{
color = 5;
glyphname = at;
lastChange = "2023-07-12 06:13:24 +0000";
layers = (
{
layerId = m001;
shapes = (
{
closed = 1;
nodes = (
(511,404,l),
(440,404,ls),
(324.039,404,o),
(227,322.798,o),
(227,211,cs),
(227,125.667,o),
(290.667,66,o),
(384,66,cs),
(414.667,66,o),
(452.667,80.333,o),
(478,99,c),
(495.333,76.333,o),
(522,61,o),
(558,61,cs),
(660.649,61,o),
(720,148.467,o),
(720,304,cs),
(720,464.897,o),
(603.416,594,o),
(417,594,cs),
(171.634,594,o),
(40,418.756,o),
(40,213,cs),
(40,22.224,o),
(181.561,-96,o),
(348,-96,cs),
(413.333,-96,o),
(479,-87.333,o),
(535,-58,c),
(522,-20,l),
(482.075,-41.959,o),
(418.318,-55,o),
(359,-55,cs),
(212.279,-55,o),
(91,44.664,o),
(91,214,cs),
(91,418.612,o),
(227.676,553,o),
(414,553,cs),
(574.004,553,o),
(672,450.345,o),
(672,297,cs),
(672,174.27,o),
(625.169,102,o),
(560,102,cs),
(518.667,102,o),
(496.333,125.667,o),
(503,183,cs),
(527,384,l),
(527,384,l)
);
},
{
closed = 1;
nodes = (
(318.836,103,o),
(278,143.599,o),
(278,211,cs),
(278,304.883,o),
(349.015,367,o),
(435,367,cs),
(480,367,l),
(457,190,ls),
(455.667,171.333,o),
(452.667,147.667,o),
(462,125,c),
(444.667,113,o),
(413.333,103,o),
(384,103,cs)
);
}
);
width = 760;
},
{
layerId = m003;
shapes = (
{
closed = 1;
nodes = (
(548,444,l),
(459,444,ls),
(349.078,444,o),
(221,395.626,o),
(221,229,cs),
(221,127.667,o),
(280,57,o),
(408,57,cs),
(437.333,57,o),
(463,64,o),
(487,76,c),
(505.667,60,o),
(531.667,54,o),
(557,54,cs),
(665.462,54,o),
(792,144.957,o),
(792,309,cs),
(792,483.61,o),
(637.144,630,o),
(433,630,cs),
(165.657,630,o),
(20,438.343,o),
(20,238,cs),
(20,10.574,o),
(204.15,-111,o),
(414,-111,cs),
(479.333,-111,o),
(550,-106,o),
(634,-62,c),
(590,39,l),
(548.112,23.768,o),
(473.865,16,o),
(423,16,cs),
(278.888,16,o),
(179,100.262,o),
(179,231,cs),
(179,390.274,o),
(287.07,494,o),
(439,494,cs),
(588,494,o),
(643,395,o),
(643,304,cs),
(643,232.006,o),
(587.257,191,o),
(571,191,cs),
(567,191,o),
(564.667,193.333,o),
(566,200,cs),
(589,383,l),
(589,383,l)
);
},
{
closed = 1;
nodes = (
(377.901,199,o),
(367,220.215,o),
(367,237,cs),
(367,285.837,o),
(389.532,325,o),
(438,325,cs),
(440,325,l),
(428,231,l),
(426.667,225.667,o),
(426,211.667,o),
(426,205,c),
(424.667,201,o),
(412.667,199,o),
(406,199,cs)
);
}
);
width = 812;
},
{
associatedMasterId = m003;
layerId = "C6EEEE2B-B308-4A0D-8726-EDB330A91F13";
name = "Jul 11, 23, 08:44";
shapes = (
{
closed = 1;
nodes = (
(548,444,l),
(459,444,ls),
(349.078,444,o),
(221,395.626,o),
(221,229,cs),
(221,127.667,o),
(280,57,o),
(408,57,cs),
(437.333,57,o),
(463,64,o),
(487,76,c),
(505.667,60,o),
(531.667,54,o),
(557,54,cs),
(665.462,54,o),
(792,144.957,o),
(792,309,cs),
(792,483.61,o),
(637.144,630,o),
(433,630,cs),
(165.657,630,o),
(20,438.343,o),
(20,238,cs),
(20,10.574,o),
(204.15,-111,o),
(414,-111,cs),
(479.333,-111,o),
(550,-106,o),
(634,-62,c),
(590,39,l),
(548.112,23.768,o),
(473.865,16,o),
(423,16,cs),
(278.888,16,o),
(179,100.262,o),
(179,231,cs),
(179,390.274,o),
(287.07,494,o),
(439,494,cs),
(535,494,o),
(594,453.5,o),
(622,395.5,cs),
(636,366.5,o),
(643,336,o),
(643,304,cs),
(643,232.006,o),
(587.257,191,o),
(571,191,cs),
(567,191,o),
(564.667,193.333,o),
(566,200,cs),
(589,383,l)
);
},
{
closed = 1;
nodes = (
(377.901,199,o),
(367,220.215,o),
(367,237,cs),
(367,285.837,o),
(389.532,325,o),
(438,325,cs),
(440,325,l),
(428,231,l),
(426.667,225.667,o),
(426,211.667,o),
(426,205,c),
(424.667,201,o),
(412.667,199,o),
(406,199,cs)
);
}
);
width = 812;
}
);
unicode = 64;
},
{
color = 5;
glyphname = ampersand;
lastChange = "2023-07-12 06:13:24 +0000";
layers = (
{
layerId = m001;
shapes = (
{
closed = 1;
nodes = (
(414.333,65,o),
(357,28,o),
(289,28,cs),
(189.5,28,o),
(97,96.487,o),
(97,202,cs),
(97,270,o),
(124.667,329.667,o),
(182,371,c),
(199.333,349.667,o),
(220.667,328.667,o),
(242,310,cs),
(453,117,l),
(453,117,l)
);
},
{
closed = 1;
nodes = (
(607,27,l),
(507,120,l),
(544.333,181.333,o),
(563,256,o),
(563,328,c),
(527,339,l),
(527,277.667,o),
(508.333,207.333,o),
(475,150,c),
(277,335,ls),
(210.823,399.231,o),
(168,452.433,o),
(168,526,cs),
(168,598.776,o),
(227.698,655,o),
(299,655,cs),
(360.333,655,o),
(387.667,638,o),
(421,622,c),
(441,657,l),
(410.333,675.667,o),
(356.667,696,o),
(290,696,cs),
(197.627,696,o),
(121,623.145,o),
(121,522,cs),
(121,476.667,o),
(135.333,438.667,o),
(158,404,c),
(94,361.333,o),
(50,288,o),
(50,200,cs),
(50,71.724,o),
(147.443,-13,o),
(286,-13,cs),
(370,-13,o),
(439.667,26.667,o),
(485,88,c),
(582,0,l),
(582,0,l)
);
}
);
width = 647;
},
{
layerId = m003;
shapes = (
{
closed = 1;
nodes = (
(349.333,135.333,o),
(330.333,126,o),
(309,126,cs),
(250.244,126,o),
(218,162.342,o),
(218,218,cs),
(218,235.333,o),
(222,254,o),
(230,270,c),
(239,263,o),
(256,247,o),
(265,239,cs),
(368,150,l),
(368,150,l)
);
},
{
closed = 1;
nodes = (
(669,113,l),
(593,177,l),
(622.333,233,o),
(642.333,295.667,o),
(649,357,c),
(489,421,l),
(483.667,383.667,o),
(473.333,337,o),
(456,293,c),
(327,403,l),
(286.863,441.312,o),
(261,462.587,o),
(261,490,cs),
(261,519.779,o),
(287.759,547,o),
(333,547,cs),
(374.333,547,o),
(416.667,536.333,o),
(462,511,c),
(511,635,l),
(453.667,676.333,o),
(386.333,696,o),
(309,696,cs),
(175.204,696,o),
(83,600.979,o),
(83,493,cs),
(83,451.667,o),
(94.667,419,o),
(116,387,c),
(64,341.667,o),
(30,274.667,o),
(30,212,cs),
(30,59.736,o),
(145.328,-24,o),
(305,-24,cs),
(373,-24,o),
(436,3.667,o),
(488,45,c),
(562,-19,l),
(562,-19,l)
);
}
);
width = 689;
}
);
unicode = 38;
},
{
color = 5;
glyphname = paragraph;
lastChange = "2023-07-12 06:13:24 +0000";
layers = (
{
layerId = m001;
shapes = (
{
closed = 1;
nodes = (
(383,641,l),
(607,641,l),
(607,0,l),
(656,0,l),
(656,641,l),
(768,641,l),
(768,680,l),
(285,680,ls),
(136.145,680,o),
(40,610.414,o),
(40,475,cs),
(40,338.197,o),
(151.878,264,o),
(296,264,cs),
(334,264,l),
(334,0,l),
(383,0,l),
(383,0,l)
);
}
);
width = 808;
},
{
layerId = m003;
shapes = (
{
closed = 1;
nodes = (
(534,537,l),
(713,537,l),
(713,0,l),
(895,0,l),
(895,537,l),
(1033,537,l),
(1033,680,l),
(315,680,ls),
(145,680,o),
(20,609,o),
(20,439,cs),
(20,271.571,o),
(158.89,191,o),
(328,191,cs),
(353,191,l),
(353,0,l),
(534,0,l),
(534,0,l)
);
}
);
width = 1053;
}
);
unicode = 182;
},
{
color = 5;
glyphname = section;
lastChange = "2023-07-12 06:13:24 +0000";
layers = (
{
layerId = m001;
shapes = (
{
closed = 1;
nodes = (
(496.557,123.244,o),
(530,176.539,o),
(530,241,cs),
(530,332.85,o),
(466.588,389.352,o),
(349,439,cs),
(234.114,487.68,o),
(168,536.428,o),
(168,614,cs),
(168,683.333,o),
(228,739,o),
(324,739,cs),
(393.726,739,o),
(433.914,721.041,o),
(468,705,c),
(490,741,l),
(450,761,o),
(388.667,780,o),
(322,780,cs),
(196.595,780,o),
(116,712.73,o),
(116,619,cs),
(116,522.97,o),
(181.224,461.772,o),
(298,414,cs),
(415.176,365.977,o),
(479,319.57,o),
(479,244,cs),
(479,202.667,o),
(458.333,165,o),
(417,141,c),
(432,95,l),
(432,95,l),
(432,95,l)
);
},
{
closed = 1;
nodes = (
(84.474,-99.924,o),
(190.128,-119,o),
(237,-119,cs),
(385.926,-119,o),
(464,-48.337,o),
(464,51,cs),
(464,142.85,o),
(400.588,199.352,o),
(283,249,cs),
(168.114,297.68,o),
(102,346.428,o),
(102,424,cs),
(102,466.667,o),
(125.667,506.667,o),
(167,528,c),
(147,569,l),
(85.526,543.22,o),
(50,491.368,o),
(50,429,cs),
(50,332.97,o),
(115.224,271.772,o),
(232,224,cs),
(349.176,175.977,o),
(413,129.57,o),
(413,54,cs),
(413,-17.121,o),
(345.478,-77,o),
(236,-77,cs),
(165.838,-77,o),
(106.949,-54.422,o),
(70,-38,c),
(55,-77,l),
(55,-77,l),
(55,-77,l)
);
}
);
width = 570;
},
{
layerId = m003;
shapes = (
{
closed = 1;
nodes = (
(584.307,74,o),
(690,158.131,o),
(690,274,cs),
(690,383.775,o),
(586.335,446.305,o),
(484,506,cs),
(434.229,535.494,o),
(381,552.929,o),
(381,583,cs),
(381,608.333,o),
(406.667,631,o),
(448,631,cs),
(494.713,631,o),
(532.063,622.644,o),
(592,601,c),
(646,724,l),
(592.667,760,o),
(514,780,o),
(446,780,cs),
(293.404,780,o),
(195.043,699.412,o),
(193,585,cs),
(193,469.295,o),
(304.184,411.252,o),
(397,355,cs),
(450.598,324.078,o),
(502,299.964,o),
(502,276,cs),
(502,250.667,o),
(471.333,223,o),
(414,223,c),
(419,74,l),
(419,74,l),
(419,74,l)
);
},
{
closed = 1;
nodes = (
(89.441,-97.864,o),
(190.746,-119,o),
(256,-119,cs),
(421.412,-119,o),
(527,-36.284,o),
(527,81,cs),
(527,190.775,o),
(423.335,253.305,o),
(321,313,cs),
(271.229,342.494,o),
(218,359.929,o),
(218,390,cs),
(218,415.333,o),
(243.667,438,o),
(285,438,c),
(283,587,l),
(130.404,587,o),
(32.043,506.412,o),
(30,392,cs),
(30,276.295,o),
(141.184,218.252,o),
(234,162,cs),
(287.598,131.078,o),
(339,106.964,o),
(339,83,cs),
(339,58.035,o),
(307.715,30,o),
(251,30,cs),
(195.698,30,o),
(125.486,54.952,o),
(93,73,c),
(33,-64,l),
(33,-64,l),
(33,-64,l)
);
}
);
width = 710;
}
);
unicode = 167;
},
{
color = 5;
glyphname = copyright;
lastChange = "2023-07-12 06:13:24 +0000";
layers = (
{
layerId = m001;
shapes = (
{
closed = 1;
nodes = (
(747,535.621,o),
(605.868,686,o),
(393,686,cs),
(179.347,686,o),
(40,536.618,o),
(40,336,cs),
(40,137.716,o),
(172.643,-12,o),
(393,-12,cs),
(605.112,-12,o),
(747,137.346,o),
(747,336,cs)
);
},
{
closed = 1;
nodes = (
(87,512,o),
(205,648,o),
(393,648,cs),
(581,648,o),
(700,511,o),
(700,337,cs),
(700,156,o),
(574,25,o),
(393,25,cs),
(207,25,o),
(87,161,o),
(87,337,cs)
);
},
{
closed = 1;
nodes = (
(445.052,120,o),
(504.135,137.258,o),
(533,162,c),
(513,193,l),
(486.333,175.667,o),
(448,159,o),
(404,159,cs),
(314.667,159,o),
(249,228,o),
(249,341,cs),
(249,458,o),
(318.188,523,o),
(404,523,cs),
(447.798,523,o),
(487.987,506.317,o),
(513,489,c),
(533,520,l),
(508.648,542.612,o),
(449.354,562,o),
(406,562,cs),
(274,562,o),
(200,467,o),
(200,341,cs),
(200,190,o),
(299,120,o),
(406,120,cs)
);
}
);
width = 787;
},
{
layerId = m003;
shapes = (
{
closed = 1;
nodes = (
(805,547.299,o),
(650.762,716,o),
(412,716,cs),
(179.533,716,o),
(20,549.601,o),
(20,336,cs),
(20,128.524,o),
(179.274,-42,o),
(412,-42,cs),
(649.41,-42,o),
(805,128.736,o),
(805,336,cs)
);
},
{
closed = 1;
nodes = (
(155,484.056,o),
(258.899,593,o),
(412,593,cs),
(583.395,593,o),
(668,482.504,o),
(668,337,cs),
(668,191.178,o),
(566.09,82,o),
(412,82,cs),
(258.875,82,o),
(155,191.235,o),
(155,337,cs)
);
},
{
closed = 1;
nodes = (
(464.409,115,o),
(521.615,120.487,o),
(569,158,c),
(525,267,l),
(491.667,249.667,o),
(468,244,o),
(440,244,cs),
(397.333,244,o),
(357,276,o),
(357,336,cs),
(357,399.402,o),
(400.104,434,o),
(440,434,cs),
(472.103,434,o),
(495.432,427.632,o),
(525,411,c),
(569,520,l),
(522.482,558.765,o),
(462.278,563,o),
(424,563,cs),
(294.526,563,o),
(193,484.339,o),
(193,336,cs),
(193,195.159,o),
(286.042,115,o),
(424,115,cs)
);
}
);
width = 825;
},
{
associatedMasterId = m001;
layerId = "387AC014-195A-49BB-A01A-0DB8D04B5C66";
name = "Jul 11, 23, 08:49";
shapes = (
{
closed = 1;
nodes = (
(747,535.621,o),
(605.868,686,o),
(393,686,cs),
(179.347,686,o),
(40,536.618,o),
(40,336,cs),
(40,137.716,o),
(172.643,-12,o),
(393,-12,cs),
(605.112,-12,o),
(747,137.346,o),
(747,336,cs)
);
},
{
closed = 1;
nodes = (
(87,454.333,o),
(139,551.167,o),
(231,606.5,cs),
(277,634.167,o),
(331,648,o),
(393,648,cs),
(518.333,648,o),
(611.333,588.333,o),
(662,495,cs),
(687.333,448.333,o),
(700,395.667,o),
(700,337,cs),
(700,221,o),
(646.833,121.833,o),
(555.5,66.5,cs),
(509.833,38.833,o),
(455.667,25,o),
(393,25,cs),
(269,25,o),
(174.5,84.333,o),
(124.5,179,cs),
(99.5,226.333,o),
(87,279,o),
(87,337,cs)
);
},
{
closed = 1;
nodes = (
(445.052,120,o),
(504.135,137.258,o),
(533,162,c),
(513,193,l),
(486.333,175.667,o),
(448,159,o),
(404,159,cs),
(314.667,159,o),
(249,227.667,o),
(249,341,cs),
(249,457.606,o),
(318.188,523,o),
(404,523,cs),
(447.798,523,o),
(487.987,506.317,o),
(513,489,c),
(533,520,l),
(508.648,542.612,o),
(449.354,562,o),
(406,562,cs),
(331.333,562,o),
(265.333,528.333,o),
(228,463,cs),
(209.333,430.333,o),
(200,389.667,o),
(200,341,cs),
(200,245,o),
(240.333,178.333,o),
(303,145,cs),
(334.333,128.333,o),
(368.667,120,o),
(406,120,cs)
);
}
);
width = 787;
}
);
unicode = 169;
},
{
color = 5;
glyphname = registered;
lastChange = "2023-07-12 06:13:24 +0000";
layers = (
{
layerId = m001;
shapes = (
{
closed = 1;
nodes = (
(675,652,o),
(557,798,o),
(358,798,cs),
(172,798,o),
(40,669,o),
(40,487,cs),
(40,316,o),
(168,178,o),
(358,178,cs),
(547,178,o),
(675,314,o),
(675,487,cs)
);
},
{
closed = 1;
nodes = (
(88,650.108,o),
(198.038,760,o),
(358,760,cs),
(521.818,760,o),
(626,644.411,o),
(626,488,cs),
(626,336.769,o),
(522.965,217.012,o),
(358,215,cs),
(196.481,216.97,o),
(88,331.369,o),
(88,488,cs)
);
},
{
closed = 1;
nodes = (
(395.968,647,o),
(437,635.3,o),
(437,571,cs),
(437,511.228,o),
(390.08,494,o),
(332,494,cs),
(297,494,l),
(297,647,l),
(337,647,l),
(337,647,l)
);
},
{
closed = 1;
nodes = (
(407,469,l),
(444.333,485,o),
(480,521.333,o),
(480,572,cs),
(480,649.45,o),
(426.568,680,o),
(344,680,cs),
(257,680,l),
(257,304,l),
(297,304,l),
(297,462,l),
(339,462,ls),
(343.667,462,o),
(362.667,463,o),
(368,463,c),
(458,304,l),
(505,304,l),
(505,304,l)
);
}
);
width = 715;
},
{
layerId = m003;
shapes = (
{
closed = 1;
nodes = (
(703,659,o),
(582,815,o),
(361,815,cs),
(154.822,815,o),
(20,671.319,o),
(20,475,cs),
(20,284.111,o),
(153.218,138,o),
(361,138,cs),
(575,138,o),
(703,289,o),
(703,475,cs)
);
},
{
closed = 1;
nodes = (
(131,616.052,o),
(221.156,710,o),
(361,710,cs),
(502.775,710,o),
(592,613.188,o),
(592,476,cs),
(592,349.319,o),
(511.207,244.086,o),
(361,242,cs),
(211.826,244.072,o),
(131,347.225,o),
(131,476,cs)
);
},
{
closed = 1;
nodes = (
(382.645,574,o),
(401,565.078,o),
(401,534,cs),
(401,507.057,o),
(382.374,492,o),
(350,492,cs),
(319,492,l),
(319,574,l),
(350,574,l),
(350,574,l)
);
},
{
closed = 1;
nodes = (
(459,436,l),
(492.333,456,o),
(517,488.667,o),
(517,534,cs),
(517,615.139,o),
(447.469,656,o),
(363,656,cs),
(214,656,l),
(214,300,l),
(319,300,l),
(319,412,l),
(337,412,ls),
(340.333,412,o),
(352.333,412,o),
(355,412,c),
(398,300,l),
(517,300,l),
(517,300,l)
);
}
);
width = 723;
},
{
associatedMasterId = m001;
layerId = "465BFE65-B718-46A9-8B74-1460ACD1D04E";
name = "Jul 11, 23, 08:51";
shapes = (
{
closed = 1;
nodes = (
(675,604.333,o),
(617.667,702.333,o),
(523,757,cs),
(475.667,784.333,o),
(420.667,798,o),
(358,798,cs),
(231.333,798,o),
(132.167,739.5,o),
(79.5,645.5,cs),
(53.167,598.5,o),
(40,545.667,o),
(40,487,cs),
(40,371,o),
(97,273.667,o),
(193,219,cs),
(241,191.667,o),
(296,178,o),
(358,178,cs),
(483.333,178,o),
(580.5,236.667,o),
(634.5,330,cs),
(661.5,376.667,o),
(675,429,o),
(675,487,cs)
);
},
{
closed = 1;
nodes = (
(88,650.108,o),
(198.038,760,o),
(358,760,cs),
(521.818,760,o),
(626,644.411,o),
(626,488,cs),
(626,336.769,o),
(522.965,217.012,o),
(358,215,cs),
(196.481,216.97,o),
(88,331.369,o),
(88,488,cs)
);
},
{
closed = 1;
nodes = (
(395.968,647,o),
(437,635.3,o),
(437,571,cs),
(437,511.228,o),
(390.08,494,o),
(332,494,cs),
(297,494,l),
(297,647,l),
(337,647,l),
(337,647,l)
);
},
{
closed = 1;
nodes = (
(407,469,l),
(444.333,485,o),
(480,521.333,o),
(480,572,cs),
(480,649.45,o),
(426.568,680,o),
(344,680,cs),
(257,680,l),
(257,304,l),
(297,304,l),
(297,462,l),
(339,462,ls),
(343.667,462,o),
(348.333,462.167,o),
(353,462.5,cs),
(357.667,462.833,o),
(362.667,463,o),
(368,463,c),
(458,304,l),
(505,304,l),
(505,304,l)
);
}
);
width = 715;
},
{
associatedMasterId = m003;
layerId = "5E4E384C-6C56-4180-B9BC-05D6F8E7533F";
name = "Jul 11, 23, 08:51";
shapes = (
{
closed = 1;
nodes = (
(703,603,o),
(645.5,710,o),
(543.5,770,cs),
(492.5,800,o),
(431.667,815,o),
(361,815,cs),
(154.822,815,o),
(20,671.319,o),
(20,475,cs),
(20,284.111,o),
(153.218,138,o),
(361,138,cs),
(502.333,138,o),
(606.167,202.5,o),
(661.5,304.5,cs),
(689.167,355.5,o),
(703,412.333,o),
(703,475,cs)
);
},
{
closed = 1;
nodes = (
(131,616.052,o),
(221.156,710,o),
(361,710,cs),
(502.775,710,o),
(592,613.188,o),
(592,476,cs),
(592,349.319,o),
(511.207,244.086,o),
(361,242,cs),
(211.826,244.072,o),
(131,347.225,o),
(131,476,cs)
);
},
{
closed = 1;
nodes = (
(382.645,574,o),
(401,565.078,o),
(401,534,cs),
(401,507.057,o),
(382.374,492,o),
(350,492,cs),
(319,492,l),
(319,574,l),
(350,574,l),
(350,574,l)
);
},
{
closed = 1;
nodes = (
(459,436,l),
(492.333,456,o),
(517,488.667,o),
(517,534,cs),
(517,615.139,o),
(447.469,656,o),
(363,656,cs),
(214,656,l),
(214,300,l),
(319,300,l),
(319,412,l),
(337,412,ls),
(340.333,412,o),
(343.5,412,o),
(346.5,412,cs),
(349.5,412,o),
(352.333,412,o),
(355,412,c),
(398,300,l),
(517,300,l),
(517,300,l)
);
}
);
width = 723;
}
);
unicode = 174;
},
{
color = 5;
glyphname = trademark;
lastChange = "2023-07-12 06:13:24 +0000";
layers = (
{
layerId = m001;
shapes = (
{
closed = 1;
nodes = (
(10,680,l),
(10,648,l),
(129,648,l),
(129,306,l),
(173,306,l),
(173,648,l),
(291,648,l),
(288,680,l),
(288,680,l),
(288,680,l)
);
},
{
closed = 1;
nodes = (
(623,584,l),
(623,306,l),
(661,306,l),
(661,680,l),
(641,680,l),
(513,483,l),
(380,680,l),
(361,680,l),
(361,306,l),
(402,306,l),
(402,583,l),
(507,429,l),
(519,431,l),
(519,431,l),
(519,431,l)
);
}
);
width = 711;
},
{
layerId = m003;
shapes = (
{
closed = 1;
nodes = (
(10,680,l),
(10,576,l),
(117,576,l),
(117,290,l),
(242,290,l),
(242,576,l),
(359,576,l),
(347,680,l),
(347,680,l),
(347,680,l)
);
},
{
closed = 1;
nodes = (
(648,460,l),
(648,290,l),
(774,290,l),
(774,680,l),
(685,680,l),
(585,553,l),
(477,680,l),
(386,680,l),
(386,290,l),
(511,290,l),
(511,465,l),
(559,413,l),
(611,419,l),
(611,419,l),
(611,419,l)
);
}
);
width = 804;
}
);
unicode = 8482;
},
{
color = 5;
glyphname = degree;
lastChange = "2023-07-12 06:13:24 +0000";
layers = (
{
layerId = m001;
shapes = (
{
closed = 1;
nodes = (
(58.134,702,o),
(10,658.653,o),
(10,599,cs),
(10,537.905,o),
(57.536,498,o),
(116,498,cs),
(177.905,498,o),
(223,539.643,o),
(223,599,cs),
(223,656.794,o),
(177.358,702,o),
(116,702,cs)
);
},
{
closed = 1;
nodes = (
(77.333,529,o),
(50,566.667,o),
(50,600,cs),
(50,633.333,o),
(74.667,670,o),
(116,670,cs),
(157.333,670,o),
(184,633.333,o),
(184,600,cs),
(184,566.667,o),
(164,529,o),
(120,529,cs)
);
}
);
width = 243;
},
{
layerId = m003;
shapes = (
{
closed = 1;
nodes = (
(72.016,720,o),
(10,661.739,o),
(10,588,cs),
(10,516.446,o),
(67.145,457,o),
(148,457,cs),
(223.707,457,o),
(285,515.115,o),
(285,588,cs),
(285,663.296,o),
(218.782,720,o),
(148,720,cs)
);
},
{
closed = 1;
nodes = (
(175,572.667,o),
(163.667,560,o),
(149,560,cs),
(135.667,560,o),
(123,574.667,o),
(123,588,cs),
(123,601.333,o),
(135.667,614,o),
(149,614,cs),
(163.667,614,o),
(175,600.667,o),
(175,586,cs)
);
}
);
width = 295;
}
);
unicode = 176;
},
{
color = 5;
glyphname = bar;
lastChange = "2023-07-12 06:13:24 +0000";
layers = (
{
layerId = m001;
shapes = (
{
closed = 1;
nodes = (
(100,0,l),
(149,-4,l),
(149,706,l),
(100,710,l),
(100,710,l),
(100,710,l)
);
}
);
width = 249;
},
{
layerId = m003;
shapes = (
{
closed = 1;
nodes = (
(80,0,l),
(262,-16,l),
(262,697,l),
(80,713,l),
(80,713,l),
(80,713,l)
);
}
);
width = 342;
}
);
unicode = 124;
},
{
color = 5;
glyphname = brokenbar;
lastChange = "2023-07-12 06:13:24 +0000";
layers = (
{
layerId = m001;
shapes = (
{
closed = 1;
nodes = (
(100,410,l),
(149,406,l),
(149,706,l),
(100,710,l),
(100,710,l),
(100,710,l)
);
},
{
closed = 1;
nodes = (
(100,0,l),
(149,-4,l),
(149,288,l),
(100,292,l),
(100,292,l),
(100,292,l)
);
}
);
width = 249;
},
{
layerId = m003;
shapes = (
{
closed = 1;
nodes = (
(80,410,l),
(262,394,l),
(262,697,l),
(80,713,l),
(80,713,l),
(80,713,l)
);
},
{
closed = 1;
nodes = (
(80,0,l),
(262,-16,l),
(262,287,l),
(80,303,l),
(80,303,l),
(80,303,l)
);
}
);
width = 342;
}
);
unicode = 166;
},
{
color = 5;
glyphname = lscript;
lastChange = "2023-07-12 06:13:24 +0000";
layers = (
{
layerId = m001;
shapes = (
{
closed = 1;
nodes = (
(58.467,210.527,o),
(47.64,202.375,o),
(87,231,c),
(87,127,ls),
(87,39.931,o),
(138.27,-12,o),
(214,-12,cs),
(228.738,-12,o),
(253.844,-6.104,o),
(272,6,c),
(260,43,l),
(252,39,o),
(236.333,29,o),
(215,29,cs),
(166.615,29,o),
(136,70.838,o),
(136,122,cs),
(136,274,l),
(230.259,363.974,o),
(308,473.259,o),
(308,574,cs),
(308,654.636,o),
(262.133,702,o),
(195,702,cs),
(131.162,702,o),
(87,653.106,o),
(87,566,cs),
(87,291,l),
(63.314,271.261,o),
(37.572,251.089,o),
(10,232,c),
(22,185,l),
(22,185,l)
);
},
{
closed = 1;
nodes = (
(136,566,ls),
(136,631.333,o),
(161.333,661,o),
(196,661,cs),
(229.333,661,o),
(258,630.667,o),
(258,572,cs),
(258,492,o),
(204,407.667,o),
(136,337,c)
);
}
);
width = 338;
},
{
layerId = m003;
shapes = (
{
closed = 1;
nodes = (
(63,168,o),
(93.927,178.385,o),
(107,181,c),
(107,155,ls),
(107,19,o),
(231,-11,o),
(344,-11,cs),
(396.072,-11,o),
(455.228,13.024,o),
(478,32,c),
(426,156,l),
(403.333,142.667,o),
(373.333,137,o),
(356,137,cs),
(311.497,137,o),
(289,149.447,o),
(289,185,cs),
(289,275,l),
(398.025,349.055,o),
(484,442.584,o),
(484,544,cs),
(484,643.951,o),
(406.971,702,o),
(300,702,cs),
(202,702,o),
(107,638,o),
(107,532,cs),
(107,350,l),
(81.506,340.73,o),
(42.984,322.995,o),
(10,312,c),
(51,162,l),
(51,162,l)
);
},
{
closed = 1;
nodes = (
(283,527,ls),
(283,543,o),
(288.333,560,o),
(303,560,cs),
(316.333,560,o),
(323,551,o),
(323,539,cs),
(323,503,o),
(305.667,469.333,o),
(283,440,c)
);
}
);
width = 514;
}
);
unicode = 8467;
},
{
color = 5;
glyphname = dagger;
lastChange = "2023-07-12 06:13:24 +0000";
layers = (
{
layerId = m001;
shapes = (
{
closed = 1;
nodes = (
(154,619,l),
(30,619,l),
(49,582,l),
(154,582,l),
(154,0,l),
(203,-4,l),
(203,582,l),
(336,582,l),
(317,619,l),
(203,619,l),
(203,780,l),
(154,783,l),
(154,783,l),
(154,783,l)
);
}
);
width = 366;
},
{
layerId = m003;
shapes = (
{
closed = 1;
nodes = (
(165,625,l),
(30,625,l),
(49,483,l),
(165,483,l),
(165,0,l),
(334,0,l),
(334,483,l),
(476,483,l),
(458,625,l),
(345,625,l),
(345,780,l),
(165,780,l),
(165,780,l),
(165,780,l)
);
}
);
width = 506;
}
);
unicode = 8224;
},
{
color = 5;
glyphname = daggerdbl;
lastChange = "2023-07-12 06:13:24 +0000";
layers = (
{
layerId = m001;
shapes = (
{
closed = 1;
nodes = (
(211,192,l),
(346,192,l),
(327,229,l),
(211,229,l),
(211,540,l),
(346,540,l),
(327,577,l),
(211,577,l),
(211,780,l),
(162,783,l),
(162,577,l),
(30,577,l),
(49,540,l),
(162,540,l),
(162,229,l),
(30,229,l),
(49,192,l),
(162,192,l),
(162,-6,l),
(211,1,l),
(211,1,l),
(211,1,l)
);
}
);
width = 376;
},
{
layerId = m003;
shapes = (
{
closed = 1;
nodes = (
(350,154,l),
(489,154,l),
(471,297,l),
(353,297,l),
(353,483,l),
(489,483,l),
(471,625,l),
(353,625,l),
(353,780,l),
(165,780,l),
(165,625,l),
(30,625,l),
(49,483,l),
(168,483,l),
(168,297,l),
(30,297,l),
(49,154,l),
(168,154,l),
(163,-6,l),
(355,1,l),
(355,1,l),
(355,1,l)
);
}
);
width = 519;
}
);
unicode = 8225;
},
{
color = 5;
glyphname = estimated;
lastChange = "2023-07-12 06:13:24 +0000";
layers = (
{
layerId = m001;
shapes = (
{
closed = 1;
nodes = (
(440,247,ls),
(440,389.509,o),
(361.102,498,o),
(252,498,cs),
(117.435,498,o),
(40,402.395,o),
(40,245,cs),
(40,87.71,o),
(116.124,-13,o),
(270,-13,cs),
(318.227,-13,o),
(389.487,3.692,o),
(425,25,c),
(405,62,l),
(371.667,44.667,o),
(332.667,28,o),
(262,28,cs),
(138,28,o),
(93,131,o),
(91,242,c),
(440,242,l),
(440,242,l)
);
},
{
closed = 1;
nodes = (
(103.592,380.679,o),
(152.041,457,o),
(245,457,cs),
(338.303,457,o),
(379.621,379.553,o),
(388,279,c),
(93,279,l),
(93,279,l)
);
}
);
width = 480;
},
{
layerId = m003;
shapes = (
{
closed = 1;
nodes = (
(513,250,ls),
(513,395.964,o),
(430.943,502,o),
(281,502,cs),
(138,502,o),
(20,412,o),
(20,242,cs),
(20,82.661,o),
(134.79,-11,o),
(310,-11,cs),
(394.471,-11,o),
(474.246,13.181,o),
(512,41,c),
(461,164,l),
(431.667,149.333,o),
(386.667,131,o),
(328,131,cs),
(266.805,131,o),
(232.376,155.927,o),
(218,197,c),
(513,197,l),
(513,197,l)
);
},
{
closed = 1;
nodes = (
(213,327.197,o),
(244.261,356,o),
(276,356,cs),
(322.188,356,o),
(339,313.839,o),
(339,287,c),
(213,287,l),
(213,287,l)
);
}
);
width = 533;
}
);
unicode = 8494;
},
{
color = 5;
glyphname = cent;
lastChange = "2023-07-12 06:13:24 +0000";
layers = (
{
layerId = m001;
shapes = (
{
closed = 1;
nodes = (
(284,605,l),
(240,595,l),
(240,477,l),
(284,477,l),
(284,477,l),
(284,477,l)
);
},
{
closed = 1;
nodes = (
(240,0,l),
(240,-111,l),
(284,-111,l),
(284,0,l),
(284,0,l),
(284,0,l)
);
},
{
closed = 1;
nodes = (
(353.333,44.667,o),
(325.667,28,o),
(259,28,cs),
(154.698,28,o),
(91,120.115,o),
(91,246,cs),
(91,367.381,o),
(161.989,457,o),
(264,457,cs),
(325.333,457,o),
(359.667,439,o),
(393,423,c),
(413,456,l),
(378.687,479.477,o),
(307.115,498,o),
(266,498,cs),
(127.338,498,o),
(40,396.592,o),
(40,245,cs),
(40,87.854,o),
(120.409,-13,o),
(259,-13,cs),
(298.658,-13,o),
(362.689,0.813,o),
(408,28,c),
(388,62,l),
(388,62,l),
(388,62,l)
);
}
);
width = 449;
},
{
layerId = m003;
shapes = (
{
closed = 1;
nodes = (
(362,631,l),
(212,618,l),
(212,456,l),
(362,460,l),
(362,460,l),
(362,460,l)
);
},
{
closed = 1;
nodes = (
(212,54,l),
(212,-125,l),
(362,-125,l),
(362,51,l),
(362,51,l),
(362,51,l)
);
},
{
closed = 1;
nodes = (
(361.333,143,o),
(335,137,o),
(303,137,cs),
(256.474,137,o),
(208,171.354,o),
(208,242,cs),
(208,314.118,o),
(256.494,354,o),
(303,354,cs),
(337.667,354,o),
(361.333,348,o),
(400,328,c),
(451,453,l),
(395.062,496.952,o),
(326.186,502,o),
(285,502,cs),
(132.782,502,o),
(20,410.592,o),
(20,242,cs),
(20,80.945,o),
(125.744,-11,o),
(285,-11,cs),
(326.186,-11,o),
(395.062,-5.952,o),
(451,38,c),
(400,163,l),
(400,163,l),
(400,163,l)
);
}
);
width = 457;
}
);
unicode = 162;
},
{
color = 5;
glyphname = currency;
lastChange = "2023-07-12 06:13:24 +0000";
layers = (
{
layerId = m001;
shapes = (
{
closed = 1;
nodes = (
(164,48,l),
(205.333,9.333,o),
(259.667,-13,o),
(325,-13,cs),
(393,-13,o),
(451.667,11,o),
(493,51,c),
(602,-54,l),
(631,-22,l),
(523,84,l),
(556.333,126.667,o),
(574,181.667,o),
(574,239,cs),
(574,299,o),
(556.667,355.667,o),
(526,401,c),
(631,505,l),
(602,537,l),
(497,435,l),
(457,473.667,o),
(401.667,498,o),
(335,498,cs),
(267,498,o),
(207.667,474,o),
(165,434,c),
(59,537,l),
(30,505,l),
(136,401,l),
(104,358.333,o),
(87,304.667,o),
(87,246,cs),
(87,182,o),
(104.333,126,o),
(135,82,c),
(30,-22,l),
(59,-54,l),
(59,-54,l),
(59,-54,l)
);
},
{
closed = 1;
nodes = (
(523,122.536,o),
(440.935,28,o),
(325,28,cs),
(216.969,28,o),
(138,121.539,o),
(138,246,cs),
(138,362.047,o),
(219.897,457,o),
(335,457,cs),
(449.856,457,o),
(523,362.582,o),
(523,239,cs)
);
}
);
width = 661;
},
{
layerId = m003;
shapes = (
{
closed = 1;
nodes = (
(279,15,l),
(315,-2.333,o),
(363,-10.667,o),
(407,-12,cs),
(451,-10.667,o),
(498,-1.333,o),
(534,16,c),
(641,-98,l),
(783,20,l),
(654,136,l),
(670,169.333,o),
(680,210.667,o),
(680,252,cs),
(680,293.333,o),
(669.667,332.667,o),
(655,366,c),
(771,480,l),
(646,604,l),
(534,486,l),
(498,503.333,o),
(450,512,o),
(406,512,cs),
(362,512,o),
(315,502.333,o),
(279,485,c),
(172,599,l),
(30,481,l),
(159,365,l),
(143,331.667,o),
(133,290.333,o),
(133,249,cs),
(133,207.667,o),
(143.333,168.333,o),
(158,135,c),
(42,21,l),
(167,-103,l),
(167,-103,l),
(167,-103,l)
);
},
{
closed = 1;
nodes = (
(501,200.475,o),
(462.546,159,o),
(407,159,cs),
(353.343,159,o),
(313.991,198.227,o),
(312,250,c),
(314.059,303.535,o),
(351.281,342,o),
(406,342,cs),
(460.454,342,o),
(501,303.022,o),
(501,251,cs)
);
}
);
width = 813;
}
);
unicode = 164;
},
{
color = 5;
glyphname = dollar;
lastChange = "2023-07-12 06:13:24 +0000";
layers = (
{
layerId = m001;
shapes = (
{
closed = 1;
nodes = (
(193,-10,l),
(133.717,-1.217,o),
(74.167,14.093,o),
(55,29,c),
(70,68,l),
(106.949,51.578,o),
(165.838,29,o),
(236,29,cs),
(345.478,29,o),
(413,88.879,o),
(413,160,cs),
(413,235.57,o),
(349.176,281.977,o),
(232,330,cs),
(115.224,377.772,o),
(50,438.97,o),
(50,535,cs),
(50,611,o),
(103.667,671.333,o),
(193,690,c),
(193,787,l),
(233,797,l),
(233,694,l),
(238.333,695.333,o),
(248,696,o),
(256,696,cs),
(270.667,696,o),
(286.667,695.667,o),
(300,693,c),
(300,790,l),
(341,800,l),
(341,686,l),
(373,679.333,o),
(402.667,667.667,o),
(424,657,c),
(402,621,l),
(367.914,637.041,o),
(327.726,655,o),
(258,655,cs),
(162,655,o),
(102,599.333,o),
(102,530,cs),
(102,452.428,o),
(168.114,403.68,o),
(283,355,cs),
(400.588,305.352,o),
(464,248.85,o),
(464,157,cs),
(464,83.667,o),
(422.333,27.667,o),
(341,1,c),
(341,-111,l),
(300,-111,l),
(300,-8,l),
(281.333,-10.667,o),
(259.667,-13,o),
(237,-13,cs),
(233,-13,l),
(233,-111,l),
(193,-111,l),
(193,-111,l)
);
}
);
width = 534;
},
{
layerId = m003;
shapes = (
{
closed = 1;
nodes = (
(125,6,l),
(87.919,16.3,o),
(56.886,28.067,o),
(33,42,c),
(93,179,l),
(125.486,160.952,o),
(195.698,136,o),
(251,136,cs),
(309.698,136,o),
(339,151.801,o),
(339,177,cs),
(339,208.247,o),
(287.615,237.068,o),
(234,268,cs),
(141.184,324.252,o),
(30,382.295,o),
(30,498,cs),
(31.333,574,o),
(75,636,o),
(151,668,c),
(151,789,l),
(269,799,l),
(269,693,l),
(271.667,693,o),
(282,693,o),
(284,693,cs),
(292,693,o),
(300,693,o),
(313,692,c),
(313,789,l),
(432,799,l),
(432,664,l),
(450.667,656,o),
(468.333,647.667,o),
(483,637,c),
(429,514,l),
(369.063,535.644,o),
(331.713,544,o),
(285,544,cs),
(243.667,544,o),
(218,528.333,o),
(218,503,cs),
(218,468.311,o),
(270.552,448.895,o),
(321,419,cs),
(423.335,359.305,o),
(527,296.775,o),
(527,187,cs),
(527,113.667,o),
(484.667,51.667,o),
(410,17,c),
(410,-122,l),
(291,-122,l),
(291,-12,l),
(285.667,-12,o),
(262,-13,o),
(256,-13,cs),
(243,-13,l),
(243,-119,l),
(125,-119,l),
(125,-119,l)
);
}
);
width = 547;
}
);
unicode = 36;
},
{
color = 5;
glyphname = euro;
lastChange = "2023-07-12 06:13:24 +0000";
layers = (
{
layerId = m001;
shapes = (
{
closed = 1;
nodes = (
(5,407,l),
(406,407,l),
(401,446,l),
(0,446,l),
(0,446,l),
(0,446,l)
);
},
{
closed = 1;
nodes = (
(5,226,l),
(406,226,l),
(401,265,l),
(0,265,l),
(0,265,l),
(0,265,l)
);
},
{
closed = 1;
nodes = (
(530.382,680.558,o),
(449.313,694,o),
(400,694,cs),
(206.214,694,o),
(90,539.409,o),
(90,336,cs),
(90,150.122,o),
(186.619,-14,o),
(394,-14,cs),
(455.709,-14,o),
(527.952,3.529,o),
(563,23,c),
(539,59,l),
(503,43,o),
(461,29,o),
(389,29,cs),
(232.922,29,o),
(145,175.597,o),
(145,337,cs),
(145,465,o),
(192.833,561.167,o),
(269.5,612.5,cs),
(307.833,638.167,o),
(350.667,651,o),
(398,651,cs),
(461.187,651,o),
(501.059,639.873,o),
(543,621,c),
(563,657,l),
(563,657,l),
(563,657,l)
);
}
);
width = 593;
},
{
layerId = m003;
shapes = (
{
closed = 1;
nodes = (
(12,364,l),
(516,364,l),
(506,480,l),
(0,480,l),
(0,480,l),
(0,480,l)
);
},
{
closed = 1;
nodes = (
(12,202,l),
(516,202,l),
(506,318,l),
(0,318,l),
(0,318,l),
(0,318,l)
);
},
{
closed = 1;
nodes = (
(591.426,669.936,o),
(514.112,693,o),
(439,693,cs),
(233.301,693,o),
(90,541.874,o),
(90,337,cs),
(90,134.282,o),
(218.739,-13,o),
(443,-13,cs),
(518.634,-13,o),
(599.134,8.159,o),
(646,37,c),
(577,173,l),
(542.333,151.667,o),
(497.333,136,o),
(448,136,cs),
(363.515,136,o),
(278,208.966,o),
(278,338,cs),
(278,420.667,o),
(313.5,484.5,o),
(363.5,518.5,cs),
(388.5,535.5,o),
(414.333,544,o),
(441,544,cs),
(487.713,544,o),
(525.063,535.644,o),
(585,514,c),
(639,637,l),
(639,637,l),
(639,637,l)
);
}
);
width = 656;
}
);
unicode = 8364;
},
{
color = 5;
glyphname = newsheqelsign;
lastChange = "2023-07-12 06:13:24 +0000";
layers = (
{
layerId = m001;
shapes = (
{
closed = 1;
nodes = (
(550,339,ls),
(550,412,o),
(534,520,o),
(326,530,cs),
(246,534,o),
(165,527,o),
(85,520,c),
(85,0,l),
(134,0,l),
(134,478,l),
(180,482,o),
(244,486,o),
(317,484,cs),
(438,480,o),
(499,440,o),
(501,339,cs),
(501,140,l),
(550,140,l),
(550,140,l),
(550,140,l)
);
},
{
closed = 1;
nodes = (
(679,-11,o),
(759,63,o),
(759,210,cs),
(759,530,l),
(710,530,l),
(710,195,ls),
(710,90,o),
(645,37,o),
(519,37,cs),
(403,37,o),
(344,90,o),
(344,195,cs),
(344,373,l),
(295,373,l),
(295,210,ls),
(295,63,o),
(376,-11,o),
(519,-11,cs)
);
}
);
width = 844;
},
{
layerId = m003;
shapes = (
{
closed = 1;
nodes = (
(599,319,ls),
(599,420,o),
(546,502,o),
(396,526,cs),
(291,543,o),
(174,531,o),
(43,508,c),
(43,0,l),
(200,0,l),
(200,382,l),
(221,384,o),
(299,389,o),
(359,383,cs),
(450,374,o),
(452,324,o),
(452,283,cs),
(452,190,l),
(599,190,l),
(599,190,l),
(599,190,l)
);
},
{
closed = 1;
nodes = (
(685,-11,o),
(801,63,o),
(801,230,cs),
(801,530,l),
(644,530,l),
(644,255,ls),
(644,180,o),
(641,117,o),
(515,117,cs),
(399,117,o),
(396,180,o),
(396,255,cs),
(396,333,l),
(249,333,l),
(249,220,ls),
(249,63,o),
(352,-11,o),
(515,-11,cs)
);
}
);
width = 844;
}
);
unicode = 8362;
},
{
color = 5;
glyphname = rublesign;
lastChange = "2023-07-12 06:13:24 +0000";
layers = (
{
layerId = m001;
shapes = (
{
closed = 1;
nodes = (
(37,204,l),
(42,165,l),
(443,165,l),
(438,204,l),
(438,204,l),
(438,204,l)
);
},
{
closed = 1;
nodes = (
(149,264,l),
(252,264,ls),
(393.803,264,o),
(508,328.323,o),
(508,475,cs),
(508,618.587,o),
(410.118,680,o),
(263,680,cs),
(100,680,l),
(100,0,l),
(149,0,l),
(149,0,l),
(149,0,l)
);
},
{
closed = 1;
nodes = (
(387.954,640,o),
(458,589.221,o),
(458,474,cs),
(458,365.075,o),
(378.129,303,o),
(264,303,cs),
(149,303,l),
(149,640,l),
(275,640,l),
(275,640,l),
(275,640,l)
);
},
{
closed = 1;
nodes = (
(37,303,l),
(42,264,l),
(130,264,l),
(125,303,l),
(125,303,l),
(125,303,l)
);
}
);
width = 548;
},
{
layerId = m003;
shapes = (
{
closed = 1;
nodes = (
(0,166,l),
(10,43,l),
(506,43,l),
(496,166,l),
(496,166,l),
(496,166,l)
);
},
{
closed = 1;
nodes = (
(262,208,l),
(358,208,ls),
(506.409,208,o),
(646,275.792,o),
(646,439,cs),
(646,597.087,o),
(527.679,680,o),
(366,680,cs),
(80,680,l),
(80,0,l),
(262,0,l),
(262,0,l),
(262,0,l)
);
},
{
closed = 1;
nodes = (
(420.119,537,o),
(458,499.898,o),
(458,439,cs),
(458,388.017,o),
(419.628,351,o),
(362,351,cs),
(262,351,l),
(262,537,l),
(360,537,l),
(360,537,l),
(360,537,l)
);
},
{
closed = 1;
nodes = (
(0,340,l),
(10,217,l),
(216,217,l),
(206,340,l),
(206,340,l),
(206,340,l)
);
}
);
width = 666;
}
);
unicode = 8381;
},
{
color = 5;
glyphname = sterling;
lastChange = "2023-07-12 06:13:24 +0000";
layers = (
{
layerId = m001;
shapes = (
{
closed = 1;
nodes = (
(416,0,l),
(410,39,l),
(148,39,l),
(177.333,64.333,o),
(182,97.667,o),
(182,143,cs),
(182,334,l),
(344,334,l),
(322,371,l),
(182,371,l),
(182,561,ls),
(182,609,o),
(200.333,643,o),
(251,643,cs),
(264.333,643,o),
(284,638,o),
(292,634,c),
(304,671,l),
(291.627,677.187,o),
(265.266,684,o),
(238,684,cs),
(165.87,684,o),
(133,628.9,o),
(133,545,cs),
(133,371,l),
(60,371,l),
(62,334,l),
(133,334,l),
(133,122,ls),
(133,74,o),
(116,40.333,o),
(68,39,c),
(70,0,l),
(70,0,l),
(70,0,l)
);
}
);
width = 426;
},
{
layerId = m003;
shapes = (
{
closed = 1;
nodes = (
(512,0,l),
(495,143,l),
(298,143,l),
(300.667,156.333,o),
(303,172,o),
(303,188,cs),
(303,268,l),
(453,268,l),
(436,411,l),
(303,411,l),
(303,471,ls),
(303,511,o),
(327.333,536,o),
(370,536,cs),
(387.333,536,o),
(417.333,530.333,o),
(440,517,c),
(492,641,l),
(467.755,663.225,o),
(403.844,684,o),
(358,684,cs),
(226.592,684,o),
(121,615.463,o),
(121,491,cs),
(121,411,l),
(40,411,l),
(40,268,l),
(121,268,l),
(121,208,ls),
(121,169.333,o),
(101.667,144.333,o),
(39,143,c),
(49,0,l),
(49,0,l),
(49,0,l)
);
}
);
width = 522;
}
);
unicode = 163;
},
{
color = 5;
glyphname = turkishlirasign;
lastChange = "2023-07-12 06:13:24 +0000";
layers = (
{
layerId = m001;
shapes = (
{
closed = 1;
nodes = (
(175,0,ls),
(324.346,0,o),
(471,152.211,o),
(471,331,c),
(425,331,l),
(425,181.303,o),
(291.39,39,o),
(175,39,c),
(175,399,l),
(344,459,l),
(337,497,l),
(175,440,l),
(175,507,l),
(344,567,l),
(337,605,l),
(175,548,l),
(175,706,l),
(126,696,l),
(126,530,l),
(0,486,l),
(6,447,l),
(126,489,l),
(126,422,l),
(0,378,l),
(6,339,l),
(126,381,l),
(126,0,l),
(126,0,l),
(126,0,l)
);
}
);
width = 491;
},
{
layerId = m003;
shapes = (
{
closed = 1;
nodes = (
(261,0,ls),
(480.429,0,o),
(604,136.319,o),
(604,360,c),
(416,361,l),
(416,224.73,o),
(348.66,149,o),
(261,149,c),
(261,342,l),
(404,392,l),
(366,504,l),
(261,467,l),
(261,500,l),
(404,550,l),
(366,662,l),
(261,625,l),
(261,707,l),
(79,692,l),
(79,561,l),
(0,533,l),
(9,412,l),
(79,436,l),
(79,403,l),
(0,375,l),
(9,255,l),
(79,279,l),
(79,0,l),
(79,0,l),
(79,0,l)
);
}
);
width = 624;
}
);
unicode = 8378;
},
{
color = 5;
glyphname = yen;
lastChange = "2023-07-12 06:13:24 +0000";
layers = (
{
layerId = m001;
shapes = (
{
closed = 1;
nodes = (
(67,259,l),
(468,259,l),
(463,298,l),
(62,298,l),
(62,298,l),
(62,298,l)
);
},
{
closed = 1;
nodes = (
(67,90,l),
(468,90,l),
(463,129,l),
(62,129,l),
(62,129,l),
(62,129,l)
);
},
{
closed = 1;
nodes = (
(284,274,l),
(520,680,l),
(463,680,l),
(259,321,l),
(59,689,l),
(10,668,l),
(235,269,l),
(235,0,l),
(284,0,l),
(284,0,l),
(284,0,l)
);
}
);
width = 530;
},
{
layerId = m003;
shapes = (
{
closed = 1;
nodes = (
(108,200,l),
(556,200,l),
(546,316,l),
(98,316,l),
(98,316,l),
(98,316,l)
);
},
{
closed = 1;
nodes = (
(108,46,l),
(556,46,l),
(546,162,l),
(98,162,l),
(98,162,l),
(98,162,l)
);
},
{
closed = 1;
nodes = (
(408,266,l),
(644,680,l),
(457,680,l),
(316,435,l),
(184,694,l),
(10,646,l),
(226,268,l),
(226,0,l),
(408,0,l),
(408,0,l),
(408,0,l)
);
}
);
width = 654;
}
);
unicode = 165;
},
{
color = 5;
glyphname = bulletoperator;
lastChange = "2023-07-12 06:13:24 +0000";
layers = (
{
layerId = m001;
shapes = (
{
closed = 1;
nodes = (
(126.601,265,o),
(153,294.972,o),
(153,326,cs),
(153,360.638,o),
(126.795,388,o),
(92,388,cs),
(56.428,388,o),
(30,362.38,o),
(30,326,cs),
(30,293.498,o),
(56.394,265,o),
(92,265,cs)
);
}
);
width = 183;
},
{
layerId = m003;
shapes = (
{
closed = 1;
nodes = (
(221.93,208,o),
(278,262.386,o),
(278,331,cs),
(278,399.064,o),
(221.534,455,o),
(153,455,cs),
(84.737,455,o),
(30,399.114,o),
(30,331,cs),
(30,262.335,o),
(84.335,208,o),
(153,208,cs)
);
}
);
width = 308;
}
);
unicode = 8729;
},
{
color = 5;
glyphname = divisionslash;
lastChange = "2023-07-12 06:13:24 +0000";
layers = (
{
layerId = m001;
shapes = (
{
closed = 1;
nodes = (
(10,0,l),
(56,-4,l),
(365,706,l),
(318,710,l),
(318,710,l),
(318,710,l)
);
}
);
width = 375;
},
{
layerId = m003;
shapes = (
{
closed = 1;
nodes = (
(10,0,l),
(197,0,l),
(496,706,l),
(308,706,l),
(308,706,l),
(308,706,l)
);
}
);
width = 506;
}
);
unicode = 8725;
},
{
color = 5;
glyphname = plus;
lastChange = "2023-07-12 06:13:24 +0000";
layers = (
{
layerId = m001;
shapes = (
{
closed = 1;
nodes = (
(287,292,l),
(287,531,l),
(238,534,l),
(238,292,l),
(30,292,l),
(38,255,l),
(238,255,l),
(238,8,l),
(287,4,l),
(287,255,l),
(497,255,l),
(487,292,l),
(487,292,l),
(487,292,l)
);
}
);
width = 527;
},
{
layerId = m003;
shapes = (
{
closed = 1;
nodes = (
(376,345,l),
(376,530,l),
(208,530,l),
(208,345,l),
(30,345,l),
(41,202,l),
(208,202,l),
(208,8,l),
(376,0,l),
(376,202,l),
(553,202,l),
(543,345,l),
(543,345,l),
(543,345,l)
);
}
);
width = 583;
}
);
unicode = 43;
},
{
color = 5;
glyphname = minus;
lastChange = "2023-07-12 06:13:24 +0000";
layers = (
{
layerId = m001;
shapes = (
{
closed = 1;
nodes = (
(30,293,l),
(38,254,l),
(436,254,l),
(428,293,l),
(428,293,l),
(428,293,l)
);
}
);
width = 466;
},
{
layerId = m003;
shapes = (
{
closed = 1;
nodes = (
(30,345,l),
(41,202,l),
(466,202,l),
(456,345,l),
(456,345,l),
(456,345,l)
);
}
);
width = 496;
}
);
unicode = 8722;
},
{
color = 5;
glyphname = multiply;
lastChange = "2023-07-12 06:13:24 +0000";
layers = (
{
layerId = m001;
shapes = (
{
closed = 1;
nodes = (
(423,31,l),
(374,31,l),
(231,207,l),
(81,31,l),
(30,31,l),
(213,250,l),
(47,464,l),
(96,464,l),
(236,288,l),
(389,464,l),
(440,464,l),
(257,245,l),
(257,245,l),
(257,245,l)
);
}
);
width = 470;
},
{
layerId = m003;
shapes = (
{
closed = 1;
nodes = (
(560,29,l),
(379,29,l),
(303,135,l),
(215,29,l),
(30,29,l),
(222,263,l),
(47,484,l),
(228,484,l),
(303,378,l),
(392,484,l),
(577,484,l),
(385,250,l),
(385,250,l),
(385,250,l)
);
}
);
width = 607;
}
);
unicode = 215;
},
{
color = 5;
glyphname = divide;
lastChange = "2023-07-12 06:13:24 +0000";
layers = (
{
layerId = m001;
shapes = (
{
closed = 1;
nodes = (
(269.333,377,o),
(287,393.667,o),
(287,415,cs),
(287,436.333,o),
(269.333,453,o),
(248,453,cs),
(225.333,453,o),
(210,436.333,o),
(210,415,cs),
(210,393.667,o),
(225.333,377,o),
(248,377,cs)
);
},
{
closed = 1;
nodes = (
(30,292,l),
(38,255,l),
(467,255,l),
(457,292,l),
(457,292,l),
(457,292,l)
);
},
{
closed = 1;
nodes = (
(272.333,74,o),
(290,90.667,o),
(290,112,cs),
(290,133.333,o),
(272.333,150,o),
(251,150,cs),
(228.333,150,o),
(213,133.333,o),
(213,112,cs),
(213,90.667,o),
(228.333,74,o),
(251,74,cs)
);
}
);
width = 497;
},
{
layerId = m003;
shapes = (
{
closed = 1;
nodes = (
(306.667,368,o),
(347,407,o),
(347,459,cs),
(347,511,o),
(306.667,551,o),
(256,551,cs),
(204,551,o),
(164,511,o),
(164,459,cs),
(164,407,o),
(204,368,o),
(256,368,cs)
);
},
{
closed = 1;
nodes = (
(30,340,l),
(41,207,l),
(482,207,l),
(472,340,l),
(472,340,l),
(472,340,l)
);
},
{
closed = 1;
nodes = (
(306.667,0,o),
(347,39,o),
(347,91,cs),
(347,143,o),
(306.667,183,o),
(256,183,cs),
(204,183,o),
(164,143,o),
(164,91,cs),
(164,39,o),
(204,0,o),
(256,0,cs)
);
}
);
width = 512;
}
);
unicode = 247;
},
{
color = 5;
glyphname = equal;
lastChange = "2023-07-12 06:13:24 +0000";
layers = (
{
layerId = m001;
shapes = (
{
closed = 1;
nodes = (
(30,371,l),
(38,332,l),
(467,332,l),
(460,371,l),
(460,371,l),
(460,371,l)
);
},
{
closed = 1;
nodes = (
(30,179,l),
(38,140,l),
(467,140,l),
(460,179,l),
(460,179,l),
(460,179,l)
);
}
);
width = 497;
},
{
layerId = m003;
shapes = (
{
closed = 1;
nodes = (
(30,426,l),
(41,293,l),
(513,293,l),
(503,426,l),
(503,426,l),
(503,426,l)
);
},
{
closed = 1;
nodes = (
(30,215,l),
(41,82,l),
(513,82,l),
(503,215,l),
(503,215,l),
(503,215,l)
);
}
);
width = 543;
}
);
unicode = 61;
},
{
color = 5;
glyphname = notequalto;
lastChange = "2023-07-12 06:13:24 +0000";
layers = (
{
layerId = m001;
shapes = (
{
closed = 1;
nodes = (
(276,371,l),
(30,371,l),
(38,332,l),
(259,332,l),
(192,179,l),
(30,179,l),
(38,140,l),
(175,140,l),
(109,-10,l),
(153,-14,l),
(221,140,l),
(467,140,l),
(460,179,l),
(238,179,l),
(305,332,l),
(467,332,l),
(460,371,l),
(322,371,l),
(388,519,l),
(343,523,l),
(343,523,l),
(343,523,l)
);
}
);
width = 497;
},
{
layerId = m003;
shapes = (
{
closed = 1;
nodes = (
(278,429,l),
(30,429,l),
(41,286,l),
(215,286,l),
(184,215,l),
(30,215,l),
(41,72,l),
(120,72,l),
(84,-10,l),
(251,-10,l),
(290,72,l),
(543,72,l),
(533,215,l),
(353,215,l),
(385,286,l),
(543,286,l),
(533,429,l),
(449,429,l),
(488,517,l),
(319,517,l),
(319,517,l),
(319,517,l)
);
}
);
width = 573;
}
);
unicode = 8800;
},
{
color = 5;
glyphname = greater;
lastChange = "2023-07-12 06:13:24 +0000";
layers = (
{
layerId = m001;
shapes = (
{
closed = 1;
nodes = (
(43,470,l),
(20,435,l),
(246,244,l),
(20,53,l),
(43,19,l),
(292,230,l),
(292,258,l),
(292,258,l),
(292,258,l)
);
}
);
width = 322;
},
{
layerId = m003;
shapes = (
{
closed = 1;
nodes = (
(53,505,l),
(20,346,l),
(155,250,l),
(20,155,l),
(53,-2,l),
(352,210,l),
(352,291,l),
(352,291,l),
(352,291,l)
);
}
);
width = 382;
}
);
unicode = 62;
},
{
color = 5;
glyphname = less;
lastChange = "2023-07-12 06:13:24 +0000";
layers = (
{
layerId = m001;
shapes = (
{
closed = 1;
nodes = (
(76,245,l),
(302,436,l),
(279,470,l),
(30,259,l),
(30,231,l),
(279,19,l),
(302,54,l),
(302,54,l),
(302,54,l)
);
}
);
width = 322;
},
{
layerId = m003;
shapes = (
{
closed = 1;
nodes = (
(227,253,l),
(362,348,l),
(329,505,l),
(30,293,l),
(30,212,l),
(329,-2,l),
(362,157,l),
(362,157,l),
(362,157,l)
);
}
);
width = 382;
}
);
unicode = 60;
},
{
color = 5;
glyphname = greaterthanorequalto;
lastChange = "2023-07-12 06:13:24 +0000";
layers = (
{
layerId = m001;
shapes = (
{
closed = 1;
nodes = (
(43,470,l),
(20,440,l),
(241,292,l),
(20,146,l),
(43,113,l),
(292,278,l),
(292,306,l),
(292,306,l),
(292,306,l)
);
},
{
closed = 1;
nodes = (
(20,39,l),
(28,0,l),
(288,0,l),
(282,39,l),
(282,39,l),
(282,39,l)
);
}
);
width = 322;
},
{
layerId = m003;
shapes = (
{
closed = 1;
nodes = (
(60,565,l),
(27,426,l),
(162,360,l),
(27,295,l),
(60,158,l),
(359,320,l),
(359,401,l),
(359,401,l),
(359,401,l)
);
},
{
closed = 1;
nodes = (
(20,123,l),
(31,0,l),
(366,0,l),
(356,123,l),
(356,123,l),
(356,123,l)
);
}
);
width = 396;
}
);
unicode = 8805;
},
{
color = 5;
glyphname = lessthanorequalto;
lastChange = "2023-07-12 06:13:24 +0000";
layers = (
{
layerId = m001;
shapes = (
{
closed = 1;
nodes = (
(81,291,l),
(302,437,l),
(279,470,l),
(30,305,l),
(30,277,l),
(279,113,l),
(302,143,l),
(302,143,l),
(302,143,l)
);
},
{
closed = 1;
nodes = (
(31,39,l),
(39,0,l),
(299,0,l),
(293,39,l),
(293,39,l),
(293,39,l)
);
}
);
width = 322;
},
{
layerId = m003;
shapes = (
{
closed = 1;
nodes = (
(234,363,l),
(369,428,l),
(336,565,l),
(37,403,l),
(37,322,l),
(336,158,l),
(369,297,l),
(369,297,l),
(369,297,l)
);
},
{
closed = 1;
nodes = (
(30,123,l),
(41,0,l),
(376,0,l),
(366,123,l),
(366,123,l),
(366,123,l)
);
}
);
width = 396;
}
);
unicode = 8804;
},
{
color = 5;
glyphname = plusminus;
lastChange = "2023-07-12 06:13:24 +0000";
layers = (
{
layerId = m001;
shapes = (
{
closed = 1;
nodes = (
(266,345,l),
(266,531,l),
(217,534,l),
(217,345,l),
(30,345,l),
(38,308,l),
(217,308,l),
(217,113,l),
(266,108,l),
(266,308,l),
(455,308,l),
(447,345,l),
(447,345,l),
(447,345,l)
);
},
{
closed = 1;
nodes = (
(30,37,l),
(38,0,l),
(462,0,l),
(454,37,l),
(454,37,l),
(454,37,l)
);
}
);
width = 492;
},
{
layerId = m003;
shapes = (
{
closed = 1;
nodes = (
(348,415,l),
(348,570,l),
(200,570,l),
(200,415,l),
(32,415,l),
(43,292,l),
(200,292,l),
(200,157,l),
(348,149,l),
(348,292,l),
(515,292,l),
(505,415,l),
(505,415,l),
(505,415,l)
);
},
{
closed = 1;
nodes = (
(30,123,l),
(41,0,l),
(513,0,l),
(503,123,l),
(503,123,l),
(503,123,l)
);
}
);
width = 545;
}
);
unicode = 177;
},
{
color = 5;
glyphname = almostequalto;
lastChange = "2023-07-12 06:13:24 +0000";
layers = (
{
layerId = m001;
shapes = (
{
closed = 1;
nodes = (
(426.25,353.876,o),
(394.352,342,o),
(362,342,cs),
(336.667,342,o),
(299.667,350.333,o),
(253,365,cs),
(207,379.667,o),
(169,387,o),
(139,387,cs),
(94.184,387,o),
(37.957,364.741,o),
(30,317,c),
(68,308,l),
(77.675,335.089,o),
(105.442,347,o),
(140,347,cs),
(169.333,347,o),
(208,339.667,o),
(256,325,cs),
(305.333,310.333,o),
(340.333,302,o),
(363,302,cs),
(407.816,302,o),
(464.043,324.259,o),
(472,372,c),
(434,381,l),
(434,381,l),
(434,381,l)
);
},
{
closed = 1;
nodes = (
(426.25,171.876,o),
(394.352,160,o),
(362,160,cs),
(336.667,160,o),
(299.667,168.333,o),
(253,183,cs),
(207,197.667,o),
(169,205,o),
(139,205,cs),
(94.184,205,o),
(37.957,182.741,o),
(30,135,c),
(68,126,l),
(77.675,153.089,o),
(105.442,165,o),
(140,165,cs),
(169.333,165,o),
(208,157.667,o),
(256,143,cs),
(305.333,128.333,o),
(340.333,120,o),
(363,120,cs),
(407.816,120,o),
(464.043,142.259,o),
(472,190,c),
(434,199,l),
(434,199,l),
(434,199,l)
);
}
);
width = 502;
},
{
layerId = m003;
shapes = (
{
closed = 1;
nodes = (
(409,449.753,o),
(391.28,423,o),
(367,423,cs),
(345.667,423,o),
(318.667,429.333,o),
(284,440,cs),
(248,451.333,o),
(216.667,457,o),
(190,457,cs),
(97.042,457,o),
(30,412.815,o),
(30,297,c),
(156,277,l),
(156,298.15,o),
(193.841,326,o),
(218,326,cs),
(246,326,o),
(276.333,320.333,o),
(309,309,cs),
(339.667,298.333,o),
(369.667,292,o),
(399,292,cs),
(499.69,292,o),
(535,347.95,o),
(535,452,c),
(409,472,l),
(409,472,l),
(409,472,l)
);
},
{
closed = 1;
nodes = (
(409,243.753,o),
(391.28,217,o),
(367,217,cs),
(345.667,217,o),
(318.667,223.333,o),
(284,234,cs),
(248,245.333,o),
(216.667,251,o),
(190,251,cs),
(83.009,251,o),
(30,197.988,o),
(30,91,c),
(156,71,l),
(156,92.15,o),
(193.841,120,o),
(218,120,cs),
(246,120,o),
(276.333,114.333,o),
(309,103,cs),
(339.667,92.333,o),
(369.667,86,o),
(399,86,cs),
(498.627,86,o),
(535,144.863,o),
(535,246,c),
(409,266,l),
(409,266,l),
(409,266,l)
);
}
);
width = 565;
}
);
unicode = 8776;
},
{
color = 5;
glyphname = asciitilde;
lastChange = "2023-07-12 06:13:24 +0000";
layers = (
{
layerId = m001;
shapes = (
{
closed = 1;
nodes = (
(70,215,l),
(70,240.333,o),
(91.667,257,o),
(117,257,cs),
(139.667,257,o),
(164,249,o),
(188,233,cs),
(212,217,o),
(235.333,209,o),
(258,209,cs),
(310.488,209,o),
(344,241.162,o),
(344,289,c),
(304,289,l),
(304,263.667,o),
(282.333,247,o),
(257,247,cs),
(239.667,247,o),
(219,255,o),
(195,271,cs),
(171,287,o),
(145,295,o),
(117,295,cs),
(63.24,295,o),
(30,263.043,o),
(30,215,c)
);
}
);
width = 374;
},
{
layerId = m003;
shapes = (
{
closed = 1;
nodes = (
(173,175,l),
(173,196.333,o),
(192.667,224,o),
(218,224,cs),
(251.333,224,o),
(277.333,216,o),
(304,208,cs),
(334.667,198.667,o),
(363,190,o),
(399,190,cs),
(498.614,190,o),
(535,276.606,o),
(535,400,c),
(409,400,l),
(409,378.667,o),
(392.333,351,o),
(367,351,cs),
(337.667,351,o),
(306.667,359.667,o),
(276,369,cs),
(248,377,o),
(219.333,385,o),
(190,385,cs),
(88.804,385,o),
(30,300.386,o),
(30,175,c)
);
}
);
width = 565;
}
);
unicode = 126;
},
{
color = 5;
glyphname = logicalnot;
lastChange = "2023-07-12 06:13:24 +0000";
layers = (
{
layerId = m001;
shapes = (
{
closed = 1;
nodes = (
(10,406,l),
(18,367,l),
(426,367,l),
(426,117,l),
(475,112,l),
(475,356,l),
(467,406,l),
(467,406,l),
(467,406,l)
);
}
);
width = 505;
},
{
layerId = m003;
shapes = (
{
closed = 1;
nodes = (
(10,424,l),
(23,281,l),
(356,281,l),
(356,117,l),
(524,110,l),
(524,357,l),
(506,424,l),
(506,424,l),
(506,424,l)
);
}
);
width = 554;
}
);
unicode = 172;
},
{
color = 5;
glyphname = asciicircum;
lastChange = "2023-07-12 06:13:24 +0000";
layers = (
{
layerId = m001;
shapes = (
{
closed = 1;
nodes = (
(349,143,l),
(397,143,l),
(225,390,l),
(182,390,l),
(10,143,l),
(58,143,l),
(204,348,l),
(204,348,l),
(204,348,l)
);
}
);
width = 417;
},
{
layerId = m003;
shapes = (
{
closed = 1;
nodes = (
(292,141,l),
(465,141,l),
(310,424,l),
(166,424,l),
(10,141,l),
(187,141,l),
(240,253,l),
(240,253,l),
(240,253,l)
);
}
);
width = 475;
}
);
unicode = 94;
},
{
color = 5;
glyphname = infinity;
lastChange = "2023-07-12 06:13:24 +0000";
layers = (
{
layerId = m001;
shapes = (
{
closed = 1;
nodes = (
(119.855,458,o),
(40,368.345,o),
(40,246,cs),
(40,125.842,o),
(112.372,46,o),
(233,46,cs),
(298.473,46,o),
(361.99,102.981,o),
(397,173,c),
(436.201,101.131,o),
(515.088,46,o),
(583,46,cs),
(702.009,46,o),
(778,137.374,o),
(778,258,cs),
(778,381.68,o),
(702.946,458,o),
(585,458,cs),
(523.708,458,o),
(459.738,406.477,o),
(422,331,c),
(384.098,402.593,o),
(303.534,458,o),
(235,458,cs)
);
},
{
closed = 1;
nodes = (
(433,249,ls),
(458.368,321.932,o),
(514.491,415,o),
(582,415,cs),
(672.402,415,o),
(729,352.838,o),
(729,259,cs),
(729,156.88,o),
(670.093,89,o),
(582,89,cs),
(509.708,89,o),
(456.05,149.085,o),
(421,213,c)
);
},
{
closed = 1;
nodes = (
(385,255,ls),
(356.117,174.77,o),
(304.817,89,o),
(237,89,cs),
(147.905,89,o),
(89,149.005,o),
(89,245,cs),
(89,350.623,o),
(150.427,415,o),
(237,415,cs),
(305.009,415,o),
(362.872,359.255,o),
(397,291,c)
);
}
);
width = 818;
},
{
layerId = m003;
shapes = (
{
closed = 1;
nodes = (
(128.441,494,o),
(20,402.56,o),
(20,242,cs),
(20,98.191,o),
(124.672,0,o),
(270,0,cs),
(331.509,0,o),
(405.779,37.642,o),
(432,80,c),
(471.294,36.57,o),
(532.147,0,o),
(606,0,cs),
(750.967,0,o),
(854,103.498,o),
(854,252,cs),
(854,400.528,o),
(756.682,494,o),
(604,494,cs),
(542.147,494,o),
(470.48,456.72,o),
(442,414,c),
(404.905,457.277,o),
(341.053,494,o),
(268,494,cs)
);
},
{
closed = 1;
nodes = (
(519,243,ls),
(534.046,285.629,o),
(568.062,327,o),
(598,327,cs),
(642.732,327,o),
(676,293.099,o),
(676,255,cs),
(676,206.47,o),
(643.705,167,o),
(598,167,cs),
(561.996,167,o),
(532.456,186.469,o),
(508,215,c)
);
},
{
closed = 1;
nodes = (
(356,252,ls),
(337.586,199.389,o),
(308.124,167,o),
(276,167,cs),
(231.23,167,o),
(198,202.051,o),
(198,239,cs),
(198,287.293,o),
(230.569,327,o),
(276,327,cs),
(312.096,327,o),
(342.589,308.264,o),
(366,279,c)
);
}
);
width = 874;
}
);
unicode = 8734;
},
{
color = 5;
glyphname = integral;
lastChange = "2023-07-12 06:13:24 +0000";
layers = (
{
layerId = m001;
shapes = (
{
closed = 1;
nodes = (
(171,708,o),
(189.333,742,o),
(240,742,cs),
(253.333,742,o),
(273,737,o),
(281,733,c),
(293,770,l),
(280.627,776.187,o),
(254.266,783,o),
(227,783,cs),
(154.87,783,o),
(122,727.9,o),
(122,644,cs),
(122,-56,ls),
(122,-104,o),
(103.667,-138,o),
(53,-138,cs),
(39.667,-138,o),
(20,-133,o),
(12,-129,c),
(0,-166,l),
(18.484,-171.281,o),
(34.614,-179,o),
(66,-179,cs),
(135.744,-179,o),
(171,-128.201,o),
(171,-40,cs),
(171,660,l),
(171,660,l),
(171,660,l)
);
}
);
width = 293;
},
{
layerId = m003;
shapes = (
{
closed = 1;
nodes = (
(371,610,o),
(395.333,635,o),
(438,635,cs),
(455.333,635,o),
(485.333,629.333,o),
(508,616,c),
(560,740,l),
(535.755,762.225,o),
(471.844,783,o),
(426,783,cs),
(294.592,783,o),
(189,714.463,o),
(189,590,cs),
(189,34,ls),
(189,-6,o),
(164.667,-31,o),
(122,-31,cs),
(104.667,-31,o),
(74.667,-25.333,o),
(52,-12,c),
(0,-136,l),
(22.182,-154.485,o),
(81.764,-179,o),
(134,-179,cs),
(274.01,-179,o),
(371,-103.588,o),
(371,14,cs),
(371,570,l),
(371,570,l),
(371,570,l)
);
}
);
width = 560;
}
);
unicode = 8747;
},
{
color = 5;
glyphname = "Ohmsign-grek";
lastChange = "2023-07-12 06:13:24 +0000";
layers = (
{
layerId = m001;
shapes = (
{
closed = 1;
nodes = (
(600,214.293,o),
(539.274,85.195,o),
(469,44,c),
(464,0,l),
(646,0,l),
(650,39,l),
(530,39,l),
(605.444,94.591,o),
(652,226.124,o),
(652,337,cs),
(652,470.333,o),
(604.167,582.833,o),
(515.5,647.5,cs),
(471.167,679.833,o),
(417,696,o),
(353,696,cs),
(227.667,696,o),
(135.167,626,o),
(86.5,518,cs),
(62.167,464,o),
(50,403.667,o),
(50,337,cs),
(50,217.27,o),
(101.8,92.823,o),
(171,39,c),
(52,39,l),
(56,0,l),
(241,0,l),
(236,44,l),
(165.726,85.195,o),
(105,214.293,o),
(105,338,cs),
(105,514.348,o),
(209.603,652,o),
(353,652,cs),
(496.521,652,o),
(600,514.11,o),
(600,338,cs)
);
}
);
width = 702;
},
{
layerId = m003;
shapes = (
{
closed = 1;
nodes = (
(509,267.953,o),
(485.932,167.234,o),
(424,143,c),
(424,0,l),
(680,0,l),
(696,143,l),
(633,143,l),
(673.571,203.856,o),
(696,273.58,o),
(696,337,cs),
(696,477,o),
(640,587.833,o),
(540,648.5,cs),
(490,678.833,o),
(431,694,o),
(363,694,cs),
(227,694,o),
(125.667,629.833,o),
(71,522.5,cs),
(43.667,468.833,o),
(30,407,o),
(30,337,cs),
(30,273.58,o),
(52.429,203.856,o),
(93,143,c),
(30,143,l),
(46,0,l),
(302,0,l),
(302,143,l),
(239.165,166.563,o),
(217,267.256,o),
(217,338,cs),
(217,463.61,o),
(274.223,542,o),
(363,542,cs),
(452.638,542,o),
(509,463.303,o),
(509,338,cs)
);
}
);
width = 726;
}
);
unicode = 8486;
},
{
color = 5;
glyphname = increment;
lastChange = "2023-07-12 06:13:24 +0000";
layers = (
{
layerId = m001;
shapes = (
{
closed = 1;
nodes = (
(10,0,l),
(562,0,l),
(562,11,l),
(303,680,l),
(257,680,l),
(257,680,l),
(257,680,l)
);
},
{
closed = 1;
nodes = (
(73,39,l),
(281,614,l),
(497,39,l),
(497,39,l),
(497,39,l)
);
}
);
width = 572;
},
{
layerId = m003;
shapes = (
{
closed = 1;
nodes = (
(10,0,l),
(689,0,l),
(689,18,l),
(405,680,l),
(295,680,l),
(295,680,l),
(295,680,l)
);
},
{
closed = 1;
nodes = (
(234,143,l),
(347,408,l),
(462,143,l),
(462,143,l),
(462,143,l)
);
}
);
width = 699;
}
);
unicode = 8710;
},
{
color = 5;
glyphname = naryproduct;
lastChange = "2023-07-12 06:13:24 +0000";
layers = (
{
layerId = m001;
shapes = (
{
closed = 1;
nodes = (
(149,0,l),
(149,641,l),
(449,641,l),
(449,0,l),
(498,0,l),
(498,680,l),
(100,680,l),
(100,0,l),
(100,0,l),
(100,0,l)
);
}
);
width = 598;
},
{
layerId = m003;
shapes = (
{
closed = 1;
nodes = (
(261,0,l),
(261,537,l),
(500,537,l),
(500,0,l),
(682,0,l),
(682,680,l),
(80,680,l),
(80,0,l),
(80,0,l),
(80,0,l)
);
}
);
width = 762;
}
);
unicode = 8719;
},
{
color = 5;
glyphname = narysummation;
lastChange = "2023-07-12 06:13:24 +0000";
layers = (
{
layerId = m001;
shapes = (
{
closed = 1;
nodes = (
(30,680,l),
(30,635,l),
(235,345,l),
(30,50,l),
(30,0,l),
(417,0,l),
(412,50,l),
(93,50,l),
(285,330,l),
(285,360,l),
(93,635,l),
(396,635,l),
(390,680,l),
(390,680,l),
(390,680,l)
);
}
);
width = 437;
},
{
layerId = m003;
shapes = (
{
closed = 1;
nodes = (
(32,680,l),
(32,550,l),
(180,344,l),
(30,130,l),
(30,0,l),
(481,0,l),
(464,143,l),
(236,143,l),
(351,316,l),
(351,374,l),
(237,537,l),
(451,537,l),
(434,680,l),
(434,680,l),
(434,680,l)
);
}
);
width = 501;
}
);
unicode = 8721;
},
{
color = 5;
glyphname = squareroot;
lastChange = "2023-07-12 06:13:24 +0000";
layers = (
{
layerId = m001;
shapes = (
{
closed = 1;
nodes = (
(199,56,l),
(58,321,l),
(10,317,l),
(180,0,l),
(218,-4,l),
(512,706,l),
(464,710,l),
(464,710,l),
(464,710,l)
);
}
);
width = 522;
},
{
layerId = m003;
shapes = (
{
closed = 1;
nodes = (
(329,139,l),
(215,351,l),
(10,351,l),
(200,0,l),
(452,0,l),
(750,706,l),
(566,706,l),
(566,706,l),
(566,706,l)
);
}
);
width = 760;
}
);
unicode = 8730;
},
{
color = 5;
glyphname = mu;
lastChange = "2023-07-12 06:13:24 +0000";
layers = (
{
layerId = m001;
shapes = (
{
closed = 1;
nodes = (
(125,418,l),
(76,398,l),
(76,-219,l),
(125,-208,l),
(125,-208,l),
(125,-208,l)
);
},
{
closed = 1;
nodes = (
(391,126,l),
(332.653,67.653,o),
(273.316,28,o),
(216,28,cs),
(142.667,28,o),
(125,81.333,o),
(125,148,cs),
(125,485,l),
(76,485,l),
(76,148,ls),
(76,51.121,o),
(119.531,-13,o),
(220,-13,cs),
(276.892,-13,o),
(348.012,23.215,o),
(392,76,c),
(402,0,l),
(440,0,l),
(440,485,l),
(391,485,l),
(391,485,l),
(391,485,l)
);
}
);
width = 510;
},
{
layerId = m003;
shapes = (
{
closed = 1;
nodes = (
(238,393,l),
(56,389,l),
(56,-219,l),
(238,-209,l),
(238,-209,l),
(238,-209,l)
);
},
{
closed = 1;
nodes = (
(388,158,l),
(350.41,141.89,o),
(310.649,130,o),
(290,130,cs),
(250,130,o),
(238,158.667,o),
(238,188,cs),
(238,484,l),
(56,484,l),
(56,171,ls),
(56,57.934,o),
(113.423,-17,o),
(232,-17,cs),
(308.497,-17,o),
(379.932,17.707,o),
(430,49,c),
(462,-1,l),
(570,-1,l),
(570,484,l),
(388,484,l),
(388,484,l),
(388,484,l)
);
}
);
width = 620;
}
);
unicode = 181;
},
{
color = 5;
glyphname = partialdifferential;
lastChange = "2023-07-12 06:13:24 +0000";
layers = (
{
layerId = m001;
shapes = (
{
closed = 1;
nodes = (
(483,449.235,o),
(382.976,643.531,o),
(114,750,c),
(101,718,l),
(312,625,o),
(432,467,o),
(432,239,cs),
(432,129,o),
(370,28,o),
(259,28,cs),
(154.698,28,o),
(91,120.115,o),
(91,246,cs),
(91,367.381,o),
(161.989,457,o),
(264,457,cs),
(321.963,457,o),
(378.821,428.292,o),
(422,381,c),
(444,402,l),
(397.672,459.911,o),
(347.103,498,o),
(265,498,cs),
(126.346,498,o),
(40,393.637,o),
(40,245,cs),
(40,86.768,o),
(120.895,-11.082,o),
(259,-13,cs),
(396.743,-11.06,o),
(483,89.13,o),
(483,240,cs)
);
}
);
width = 523;
},
{
layerId = m003;
shapes = (
{
closed = 1;
nodes = (
(570,486,o),
(387,689,o),
(114,750,c),
(53,638,l),
(299.535,573.565,o),
(382,411.718,o),
(382,240,cs),
(382,171.719,o),
(350.448,137,o),
(293,137,cs),
(240.646,137,o),
(208,178.603,o),
(208,245,cs),
(208,314.33,o),
(241.776,354,o),
(297,354,cs),
(334.918,354,o),
(396.723,336.782,o),
(438,288,c),
(517,391,l),
(469.562,452.274,o),
(348.978,502,o),
(275,502,cs),
(127,502,o),
(20,393,o),
(20,245,cs),
(20,78.586,o),
(136.579,-11,o),
(302,-11,cs),
(459.893,-11,o),
(570,92.855,o),
(570,254,cs)
);
}
);
width = 590;
},
{
associatedMasterId = m001;
layerId = "B036FA2B-FCB1-4C5A-A730-A9ABB1852D07";
name = "Jul 11, 23, 08:55";
shapes = (
{
closed = 1;
nodes = (
(483,449.235,o),
(382.976,643.531,o),
(114,750,c),
(101,718,l),
(227.667,662,o),
(311.5,588.833,o),
(361.5,505.5,cs),
(411.5,422.167,o),
(432,331,o),
(432,239,cs),
(432,164.333,o),
(402.833,95.667,o),
(351.5,57,cs),
(325.833,37.667,o),
(295,28,o),
(259,28,cs),
(154.698,28,o),
(91,120.115,o),
(91,246,cs),
(91,367.381,o),
(161.989,457,o),
(264,457,cs),
(321.963,457,o),
(378.821,428.292,o),
(422,381,c),
(444,402,l),
(397.672,459.911,o),
(347.103,498,o),
(265,498,cs),
(126.346,498,o),
(40,393.637,o),
(40,245,cs),
(40,86.768,o),
(120.895,-11.082,o),
(259,-13,cs),
(396.743,-11.06,o),
(483,89.13,o),
(483,240,cs)
);
}
);
width = 523;
},
{
associatedMasterId = m001;
layerId = "8AFCCF18-FD5A-443D-A1C1-2CAABA7EF3AE";
name = "Jul 11, 23, 08:55";
shapes = (
{
closed = 1;
nodes = (
(483,449.235,o),
(382.976,643.531,o),
(114,750,c),
(101,718,l),
(227.667,662,o),
(311.5,588.833,o),
(361.5,505.5,cs),
(411.5,422.167,o),
(432,331,o),
(432,239,cs),
(432,164.333,o),
(402.833,95.667,o),
(351.5,57,cs),
(325.833,37.667,o),
(295,28,o),
(259,28,cs),
(154.698,28,o),
(91,120.115,o),
(91,246,cs),
(91,367.381,o),
(161.989,457,o),
(264,457,cs),
(321.963,457,o),
(378.821,428.292,o),
(422,381,c),
(444,402,l),
(397.672,459.911,o),
(347.103,498,o),
(265,498,cs),
(126.346,498,o),
(40,393.637,o),
(40,245,cs),
(40,86.768,o),
(120.895,-11.082,o),
(259,-13,cs),
(396.743,-11.06,o),
(483,89.13,o),
(483,240,cs)
);
}
);
width = 523;
}
);
unicode = 8706;
},
{
color = 11;
glyphname = "shindotcomb-hebr";
lastChange = "2023-07-12 06:13:00 +0000";
layers = (
{
anchors = (
{
name = Anchor_1;
},
{
name = "shin - liga";
},
{
name = "topleft-hebr";
pos = (64,400);
},
{
name = "topright-hebr";
},
{
name = "topright2-hebr";
pos = (64,400);
}
);
layerId = m001;
shapes = (
{
closed = 1;
nodes = (
(14.667,692,o),
(27,679.667,o),
(27,665,cs),
(27,649,o),
(14.667,637,o),
(0,637,cs),
(-16,637,o),
(-28,649,o),
(-28,665,cs),
(-28,679.667,o),
(-16,692,o),
(0,692,cs)
);
}
);
width = 0;
},
{
anchors = (
{
name = Anchor_1;
},
{
name = "shin - liga";
},
{
name = "topleft-hebr";
pos = (64,400);
},
{
name = "topright-hebr";
},
{
name = "topright2-hebr";
pos = (64,400);
}
);
layerId = m003;
shapes = (
{
closed = 1;
nodes = (
(14.667,692,o),
(27,679.667,o),
(27,665,cs),
(27,649,o),
(14.667,637,o),
(0,637,cs),
(-16,637,o),
(-28,649,o),
(-28,665,cs),
(-28,679.667,o),
(-16,692,o),
(0,692,cs)
);
}
);
width = 0;
}
);
unicode = 1473;
},
{
color = 11;
glyphname = "shevacomb-hebr";
lastChange = "2023-07-12 06:13:00 +0000";
layers = (
{
anchors = (
{
name = Anchor_1;
},
{
name = "Bottom-liga";
pos = (60,0);
},
{
name = "bottom-hebr";
pos = (64,0);
}
);
layerId = m001;
shapes = (
{
closed = 1;
nodes = (
(14.667,-79,o),
(27,-91.333,o),
(27,-106,cs),
(27,-122,o),
(14.667,-134,o),
(0,-134,cs),
(-16,-134,o),
(-28,-122,o),
(-28,-106,cs),
(-28,-91.333,o),
(-16,-79,o),
(0,-79,cs)
);
},
{
closed = 1;
nodes = (
(14.667,-181,o),
(27,-193.333,o),
(27,-208,cs),
(27,-224,o),
(14.667,-236,o),
(0,-236,cs),
(-16,-236,o),
(-28,-224,o),
(-28,-208,cs),
(-28,-193.333,o),
(-16,-181,o),
(0,-181,cs)
);
}
);
width = 0;
},
{
anchors = (
{
name = Anchor_1;
},
{
name = "Bottom-liga";
pos = (60,0);
},
{
name = "bottom-hebr";
pos = (64,0);
}
);
layerId = m003;
shapes = (
{
closed = 1;
nodes = (
(14.667,-79,o),
(27,-91.333,o),
(27,-106,cs),
(27,-122,o),
(14.667,-134,o),
(0,-134,cs),
(-16,-134,o),
(-28,-122,o),
(-28,-106,cs),
(-28,-91.333,o),
(-16,-79,o),
(0,-79,cs)
);
},
{
closed = 1;
nodes = (
(14.667,-181,o),
(27,-193.333,o),
(27,-208,cs),
(27,-224,o),
(14.667,-236,o),
(0,-236,cs),
(-16,-236,o),
(-28,-224,o),
(-28,-208,cs),
(-28,-193.333,o),
(-16,-181,o),
(0,-181,cs)
);
}
);
width = 0;
}
);
unicode = 1456;
},
{
color = 11;
glyphname = "hatafsegolcomb-hebr";
lastChange = "2023-07-12 06:13:00 +0000";
layers = (
{
anchors = (
{
name = Anchor_1;
},
{
name = "Bottom-liga";
pos = (177,0);
},
{
name = "bottom-hebr";
pos = (168,0);
}
);
layerId = m001;
shapes = (
{
closed = 1;
nodes = (
(-89.333,-79,o),
(-77,-91.333,o),
(-77,-106,cs),
(-77,-122,o),
(-89.333,-134,o),
(-104,-134,cs),
(-120,-134,o),
(-132,-122,o),
(-132,-106,cs),
(-132,-91.333,o),
(-120,-79,o),
(-104,-79,cs)
);
},
{
closed = 1;
nodes = (
(-38.333,-181,o),
(-26,-193.333,o),
(-26,-208,cs),
(-26,-224,o),
(-38.333,-236,o),
(-53,-236,cs),
(-69,-236,o),
(-81,-224,o),
(-81,-208,cs),
(-81,-193.333,o),
(-69,-181,o),
(-53,-181,cs)
);
},
{
closed = 1;
nodes = (
(119.667,-79,o),
(132,-91.333,o),
(132,-106,cs),
(132,-122,o),
(119.667,-134,o),
(105,-134,cs),
(89,-134,o),
(77,-122,o),
(77,-106,cs),
(77,-91.333,o),
(89,-79,o),
(105,-79,cs)
);
},
{
closed = 1;
nodes = (
(119.667,-181,o),
(132,-193.333,o),
(132,-208,cs),
(132,-224,o),
(119.667,-236,o),
(105,-236,cs),
(89,-236,o),
(77,-224,o),
(77,-208,cs),
(77,-193.333,o),
(89,-181,o),
(105,-181,cs)
);
},
{
closed = 1;
nodes = (
(13.667,-79,o),
(26,-91.333,o),
(26,-106,cs),
(26,-122,o),
(13.667,-134,o),
(-1,-134,cs),
(-17,-134,o),
(-29,-122,o),
(-29,-106,cs),
(-29,-91.333,o),
(-17,-79,o),
(-1,-79,cs)
);
}
);
width = 0;
},
{
anchors = (
{
name = Anchor_1;
},
{
name = "Bottom-liga";
pos = (177,0);
},
{
name = "bottom-hebr";
pos = (168,0);
}
);
layerId = m003;
shapes = (
{
closed = 1;
nodes = (
(-89.333,-79,o),
(-77,-91.333,o),
(-77,-106,cs),
(-77,-122,o),
(-89.333,-134,o),
(-104,-134,cs),
(-120,-134,o),
(-132,-122,o),
(-132,-106,cs),
(-132,-91.333,o),
(-120,-79,o),
(-104,-79,cs)
);
},
{
closed = 1;
nodes = (
(-38.333,-181,o),
(-26,-193.333,o),
(-26,-208,cs),
(-26,-224,o),
(-38.333,-236,o),
(-53,-236,cs),
(-69,-236,o),
(-81,-224,o),
(-81,-208,cs),
(-81,-193.333,o),
(-69,-181,o),
(-53,-181,cs)
);
},
{
closed = 1;
nodes = (
(119.667,-79,o),
(132,-91.333,o),
(132,-106,cs),
(132,-122,o),
(119.667,-134,o),
(105,-134,cs),
(89,-134,o),
(77,-122,o),
(77,-106,cs),
(77,-91.333,o),
(89,-79,o),
(105,-79,cs)
);
},
{
closed = 1;
nodes = (
(119.667,-181,o),
(132,-193.333,o),
(132,-208,cs),
(132,-224,o),
(119.667,-236,o),
(105,-236,cs),
(89,-236,o),
(77,-224,o),
(77,-208,cs),
(77,-193.333,o),
(89,-181,o),
(105,-181,cs)
);
},
{
closed = 1;
nodes = (
(13.667,-79,o),
(26,-91.333,o),
(26,-106,cs),
(26,-122,o),
(13.667,-134,o),
(-1,-134,cs),
(-17,-134,o),
(-29,-122,o),
(-29,-106,cs),
(-29,-91.333,o),
(-17,-79,o),
(-1,-79,cs)
);
}
);
width = 0;
}
);
unicode = 1457;
},
{
color = 11;
glyphname = "hatafpatahcomb-hebr";
lastChange = "2023-07-12 06:13:00 +0000";
layers = (
{
anchors = (
{
name = Anchor_1;
},
{
name = "Bottom-liga";
pos = (160,0);
},
{
name = "bottom-hebr";
pos = (162,0);
}
);
layerId = m001;
shapes = (
{
closed = 1;
nodes = (
(-127,-123,l),
(-127,-83,l),
(25,-83,l),
(25,-123,l),
(25,-123,l),
(25,-123,l)
);
},
{
closed = 1;
nodes = (
(113.667,-79,o),
(127,-91.333,o),
(127,-106,cs),
(127,-122,o),
(113.667,-134,o),
(99,-134,cs),
(84.333,-134,o),
(71,-122,o),
(71,-106,cs),
(71,-91.333,o),
(84.333,-79,o),
(99,-79,cs)
);
},
{
closed = 1;
nodes = (
(113.667,-181,o),
(127,-193.333,o),
(127,-208,cs),
(127,-224,o),
(113.667,-236,o),
(99,-236,cs),
(84.333,-236,o),
(71,-224,o),
(71,-208,cs),
(71,-193.333,o),
(84.333,-181,o),
(99,-181,cs)
);
}
);
width = 0;
},
{
anchors = (
{
name = Anchor_1;
},
{
name = "Bottom-liga";
pos = (160,0);
},
{
name = "bottom-hebr";
pos = (162,0);
}
);
layerId = m003;
shapes = (
{
closed = 1;
nodes = (
(-127,-123,l),
(-127,-83,l),
(25,-83,l),
(25,-123,l),
(25,-123,l),
(25,-123,l)
);
},
{
closed = 1;
nodes = (
(113.667,-79,o),
(127,-91.333,o),
(127,-106,cs),
(127,-122,o),
(113.667,-134,o),
(99,-134,cs),
(84.333,-134,o),
(71,-122,o),
(71,-106,cs),
(71,-91.333,o),
(84.333,-79,o),
(99,-79,cs)
);
},
{
closed = 1;
nodes = (
(113.667,-181,o),
(127,-193.333,o),
(127,-208,cs),
(127,-224,o),
(113.667,-236,o),
(99,-236,cs),
(84.333,-236,o),
(71,-224,o),
(71,-208,cs),
(71,-193.333,o),
(84.333,-181,o),
(99,-181,cs)
);
}
);
width = 0;
}
);
unicode = 1458;
},
{
color = 11;
glyphname = "hatafqamatscomb-hebr";
lastChange = "2023-07-12 06:13:00 +0000";
layers = (
{
anchors = (
{
name = Anchor_1;
},
{
name = "Bottom-liga";
pos = (160,0);
},
{
name = "bottom-hebr";
pos = (160,0);
}
);
layerId = m001;
shapes = (
{
closed = 1;
nodes = (
(-74,-231,l),
(-71.957,-205.456,o),
(-70.706,-187.681,o),
(-67.5,-175.5,cs),
(-65.833,-169.167,o),
(-62.667,-151.667,o),
(-58,-123,c),
(-128,-123,l),
(-128,-84,l),
(26,-84,l),
(26,-123,l),
(-44,-123,l),
(-38.982,-153.827,o),
(-32.442,-180.356,o),
(-31,-195.5,cs),
(-30.333,-202.5,o),
(-29.333,-214.333,o),
(-28,-231,c)
);
},
{
closed = 1;
nodes = (
(115.667,-79,o),
(129,-91.333,o),
(129,-106,cs),
(129,-122,o),
(115.667,-134,o),
(101,-134,cs),
(86.333,-134,o),
(73,-122,o),
(73,-106,cs),
(73,-91.333,o),
(86.333,-79,o),
(101,-79,cs)
);
},
{
closed = 1;
nodes = (
(115.667,-181,o),
(129,-193.333,o),
(129,-208,cs),
(129,-224,o),
(115.667,-236,o),
(101,-236,cs),
(86.333,-236,o),
(73,-224,o),
(73,-208,cs),
(73,-193.333,o),
(86.333,-181,o),
(101,-181,cs)
);
}
);
width = 0;
},
{
anchors = (
{
name = Anchor_1;
},
{
name = "Bottom-liga";
pos = (160,0);
},
{
name = "bottom-hebr";
pos = (160,0);
}
);
layerId = m003;
shapes = (
{
closed = 1;
nodes = (
(-74,-231,l),
(-71.957,-205.456,o),
(-70.706,-187.681,o),
(-67.5,-175.5,cs),
(-65.833,-169.167,o),
(-62.667,-151.667,o),
(-58,-123,c),
(-128,-123,l),
(-128,-84,l),
(26,-84,l),
(26,-123,l),
(-44,-123,l),
(-38.982,-153.827,o),
(-32.442,-180.356,o),
(-31,-195.5,cs),
(-30.333,-202.5,o),
(-29.333,-214.333,o),
(-28,-231,c)
);
},
{
closed = 1;
nodes = (
(115.667,-79,o),
(129,-91.333,o),
(129,-106,cs),
(129,-122,o),
(115.667,-134,o),
(101,-134,cs),
(86.333,-134,o),
(73,-122,o),
(73,-106,cs),
(73,-91.333,o),
(86.333,-79,o),
(101,-79,cs)
);
},
{
closed = 1;
nodes = (
(115.667,-181,o),
(129,-193.333,o),
(129,-208,cs),
(129,-224,o),
(115.667,-236,o),
(101,-236,cs),
(86.333,-236,o),
(73,-224,o),
(73,-208,cs),
(73,-193.333,o),
(86.333,-181,o),
(101,-181,cs)
);
}
);
width = 0;
}
);
unicode = 1459;
},
{
color = 11;
glyphname = "hiriqcomb-hebr";
lastChange = "2023-07-12 06:13:00 +0000";
layers = (
{
anchors = (
{
name = Anchor_1;
},
{
name = "Bottom-liga";
pos = (64,0);
},
{
name = "bottom-hebr";
pos = (64,0);
}
);
layerId = m001;
shapes = (
{
closed = 1;
nodes = (
(14.667,-79,o),
(27,-91.333,o),
(27,-106,cs),
(27,-122,o),
(14.667,-134,o),
(0,-134,cs),
(-16,-134,o),
(-28,-122,o),
(-28,-106,cs),
(-28,-91.333,o),
(-16,-79,o),
(0,-79,cs)
);
}
);
width = 0;
},
{
anchors = (
{
name = Anchor_1;
},
{
name = "Bottom-liga";
pos = (64,0);
},
{
name = "bottom-hebr";
pos = (64,0);
}
);
layerId = m003;
shapes = (
{
closed = 1;
nodes = (
(14.667,-79,o),
(27,-91.333,o),
(27,-106,cs),
(27,-122,o),
(14.667,-134,o),
(0,-134,cs),
(-16,-134,o),
(-28,-122,o),
(-28,-106,cs),
(-28,-91.333,o),
(-16,-79,o),
(0,-79,cs)
);
}
);
width = 0;
}
);
unicode = 1460;
},
{
color = 11;
glyphname = "tserecomb-hebr";
lastChange = "2023-07-12 06:13:00 +0000";
layers = (
{
anchors = (
{
name = Anchor_1;
},
{
name = "Bottom-liga";
pos = (112,0);
},
{
name = "bottom-hebr";
pos = (118,0);
}
);
layerId = m001;
shapes = (
{
closed = 1;
nodes = (
(-36.333,-79,o),
(-24,-91.333,o),
(-24,-106,cs),
(-24,-122,o),
(-36.333,-134,o),
(-51,-134,cs),
(-67,-134,o),
(-79,-122,o),
(-79,-106,cs),
(-79,-91.333,o),
(-67,-79,o),
(-51,-79,cs)
);
},
{
closed = 1;
nodes = (
(66.667,-79,o),
(79,-91.333,o),
(79,-106,cs),
(79,-122,o),
(66.667,-134,o),
(52,-134,cs),
(36,-134,o),
(24,-122,o),
(24,-106,cs),
(24,-91.333,o),
(36,-79,o),
(52,-79,cs)
);
}
);
width = 0;
},
{
anchors = (
{
name = Anchor_1;
},
{
name = "Bottom-liga";
pos = (112,0);
},
{
name = "bottom-hebr";
pos = (118,0);
}
);
layerId = m003;
shapes = (
{
closed = 1;
nodes = (
(-36.333,-79,o),
(-24,-91.333,o),
(-24,-106,cs),
(-24,-122,o),
(-36.333,-134,o),
(-51,-134,cs),
(-67,-134,o),
(-79,-122,o),
(-79,-106,cs),
(-79,-91.333,o),
(-67,-79,o),
(-51,-79,cs)
);
},
{
closed = 1;
nodes = (
(66.667,-79,o),
(79,-91.333,o),
(79,-106,cs),
(79,-122,o),
(66.667,-134,o),
(52,-134,cs),
(36,-134,o),
(24,-122,o),
(24,-106,cs),
(24,-91.333,o),
(36,-79,o),
(52,-79,cs)
);
}
);
width = 0;
}
);
unicode = 1461;
},
{
color = 11;
glyphname = "segolcomb-hebr";
lastChange = "2023-07-12 06:13:00 +0000";
layers = (
{
anchors = (
{
name = Anchor_1;
},
{
name = "Bottom-liga";
pos = (115,0);
},
{
name = "bottom-hebr";
pos = (118,0);
}
);
layerId = m001;
shapes = (
{
closed = 1;
nodes = (
(-68.667,-134,o),
(-82,-121,o),
(-82,-105,cs),
(-82,-89,o),
(-72.667,-79.667,o),
(-54,-77,c),
(-38,-77,o),
(-25,-89,o),
(-25,-105,cs),
(-25,-121,o),
(-34,-134,o),
(-54,-134,cs)
);
},
{
closed = 1;
nodes = (
(38,-134,o),
(28.667,-124.333,o),
(26,-105,c),
(26,-90.333,o),
(38,-77,o),
(54,-77,cs),
(70,-77,o),
(83,-89,o),
(83,-105,cs),
(83,-121,o),
(74,-134,o),
(54,-134,cs)
);
},
{
closed = 1;
nodes = (
(-15.667,-236,o),
(-29,-223,o),
(-29,-207,cs),
(-29,-192.333,o),
(-17,-179,o),
(-1,-179,cs),
(15.667,-179,o),
(25.333,-188.333,o),
(28,-207,c),
(28,-223,o),
(19,-236,o),
(-1,-236,cs)
);
}
);
width = 0;
},
{
anchors = (
{
name = Anchor_1;
},
{
name = "Bottom-liga";
pos = (115,0);
},
{
name = "bottom-hebr";
pos = (118,0);
}
);
layerId = m003;
shapes = (
{
closed = 1;
nodes = (
(-68.667,-134,o),
(-82,-121,o),
(-82,-105,cs),
(-82,-89,o),
(-72.667,-79.667,o),
(-54,-77,c),
(-38,-77,o),
(-25,-89,o),
(-25,-105,cs),
(-25,-121,o),
(-34,-134,o),
(-54,-134,cs)
);
},
{
closed = 1;
nodes = (
(38,-134,o),
(28.667,-124.333,o),
(26,-105,c),
(26,-90.333,o),
(38,-77,o),
(54,-77,cs),
(70,-77,o),
(83,-89,o),
(83,-105,cs),
(83,-121,o),
(74,-134,o),
(54,-134,cs)
);
},
{
closed = 1;
nodes = (
(-15.667,-236,o),
(-29,-223,o),
(-29,-207,cs),
(-29,-192.333,o),
(-17,-179,o),
(-1,-179,cs),
(15.667,-179,o),
(25.333,-188.333,o),
(28,-207,c),
(28,-223,o),
(19,-236,o),
(-1,-236,cs)
);
}
);
width = 0;
}
);
unicode = 1462;
},
{
color = 11;
glyphname = "patahcomb-hebr";
lastChange = "2023-07-12 06:13:00 +0000";
layers = (
{
anchors = (
{
name = Anchor_1;
},
{
name = "Bottom-liga";
pos = (110,0);
},
{
name = "bottom-hebr";
pos = (113,0);
}
);
layerId = m001;
shapes = (
{
closed = 1;
nodes = (
(-76,-123,l),
(-76,-83,l),
(76,-83,l),
(76,-123,l),
(76,-123,l),
(76,-123,l)
);
}
);
width = 0;
},
{
anchors = (
{
name = Anchor_1;
},
{
name = "Bottom-liga";
pos = (110,0);
},
{
name = "bottom-hebr";
pos = (113,0);
}
);
layerId = m003;
shapes = (
{
closed = 1;
nodes = (
(-76,-123,l),
(-76,-83,l),
(76,-83,l),
(76,-123,l),
(76,-123,l),
(76,-123,l)
);
}
);
width = 0;
}
);
unicode = 1463;
},
{
color = 11;
glyphname = "qamatscomb-hebr";
lastChange = "2023-07-12 06:13:00 +0000";
layers = (
{
anchors = (
{
name = Anchor_1;
},
{
name = "Bottom-liga";
pos = (112,0);
},
{
name = "bottom-hebr";
pos = (113,0);
}
);
layerId = m001;
shapes = (
{
closed = 1;
nodes = (
(19,-185,l),
(22,-231,l),
(-22,-231,l),
(-19,-185,l),
(-7,-123,l),
(-77,-123,l),
(-77,-84,l),
(77,-84,l),
(77,-123,l),
(7,-123,l),
(7,-123,l),
(7,-123,l)
);
}
);
width = 0;
},
{
anchors = (
{
name = Anchor_1;
},
{
name = "Bottom-liga";
pos = (112,0);
},
{
name = "bottom-hebr";
pos = (113,0);
}
);
layerId = m003;
shapes = (
{
closed = 1;
nodes = (
(19,-185,l),
(22,-231,l),
(-22,-231,l),
(-19,-185,l),
(-7,-123,l),
(-77,-123,l),
(-77,-84,l),
(77,-84,l),
(77,-123,l),
(7,-123,l),
(7,-123,l),
(7,-123,l)
);
}
);
width = 0;
}
);
unicode = 1464;
},
{
color = 11;
glyphname = "holamcomb-hebr";
lastChange = "2023-07-12 06:13:00 +0000";
layers = (
{
anchors = (
{
name = Anchor_1;
},
{
name = holam;
},
{
name = "topleft- liga";
pos = (64,379);
},
{
name = "topleft-hebr";
pos = (64,379);
}
);
layerId = m001;
shapes = (
{
closed = 1;
nodes = (
(14.667,692,o),
(27,679.667,o),
(27,665,cs),
(27,649,o),
(14.667,637,o),
(0,637,cs),
(-16,637,o),
(-28,649,o),
(-28,665,cs),
(-28,679.667,o),
(-16,692,o),
(0,692,cs)
);
}
);
width = 0;
},
{
anchors = (
{
name = Anchor_1;
},
{
name = holam;
},
{
name = "topleft- liga";
pos = (64,379);
},
{
name = "topleft-hebr";
pos = (64,379);
}
);
layerId = m003;
shapes = (
{
closed = 1;
nodes = (
(14.667,692,o),
(27,679.667,o),
(27,665,cs),
(27,649,o),
(14.667,637,o),
(0,637,cs),
(-16,637,o),
(-28,649,o),
(-28,665,cs),
(-28,679.667,o),
(-16,692,o),
(0,692,cs)
);
}
);
width = 0;
}
);
unicode = 1465;
},
{
color = 11;
glyphname = "holamhaserforvavcomb-hebr";
lastChange = "2023-07-12 06:13:00 +0000";
layers = (
{
anchors = (
{
name = Anchor_1;
},
{
name = "topleft- liga";
pos = (64,379);
},
{
name = "topleft-hebr";
pos = (64,475);
}
);
layerId = m001;
shapes = (
{
closed = 1;
nodes = (
(14.667,692,o),
(27,679.667,o),
(27,665,cs),
(27,649,o),
(14.667,637,o),
(0,637,cs),
(-16,637,o),
(-28,649,o),
(-28,665,cs),
(-28,679.667,o),
(-16,692,o),
(0,692,cs)
);
}
);
width = 0;
},
{
anchors = (
{
name = Anchor_1;
},
{
name = "topleft- liga";
pos = (64,379);
},
{
name = "topleft-hebr";
pos = (64,475);
}
);
layerId = m003;
shapes = (
{
closed = 1;
nodes = (
(14.667,692,o),
(27,679.667,o),
(27,665,cs),
(27,649,o),
(14.667,637,o),
(0,637,cs),
(-16,637,o),
(-28,649,o),
(-28,665,cs),
(-28,679.667,o),
(-16,692,o),
(0,692,cs)
);
}
);
width = 0;
}
);
unicode = 1466;
},
{
color = 11;
glyphname = "qubutscomb-hebr";
lastChange = "2023-07-12 06:13:00 +0000";
layers = (
{
anchors = (
{
name = Anchor_1;
},
{
name = "Bottom-liga";
pos = (112,0);
},
{
name = "bottom-hebr";
pos = (118,0);
}
);
layerId = m001;
shapes = (
{
closed = 1;
nodes = (
(12.667,-77,o),
(25,-89.333,o),
(25,-104,cs),
(25,-120,o),
(12.667,-132,o),
(-2,-132,cs),
(-18,-132,o),
(-30,-120,o),
(-30,-104,cs),
(-30,-89.333,o),
(-18,-77,o),
(-2,-77,cs)
);
},
{
closed = 1;
nodes = (
(82.667,-146,o),
(95,-158.333,o),
(95,-173,cs),
(95,-189,o),
(82.667,-201,o),
(68,-201,cs),
(52,-201,o),
(40,-189,o),
(40,-173,cs),
(40,-158.333,o),
(52,-146,o),
(68,-146,cs)
);
},
{
closed = 1;
nodes = (
(152.667,-216,o),
(165,-228.333,o),
(165,-243,cs),
(165,-259,o),
(152.667,-271,o),
(138,-271,cs),
(122,-271,o),
(110,-259,o),
(110,-243,cs),
(110,-228.333,o),
(122,-216,o),
(138,-216,cs)
);
}
);
width = 0;
},
{
anchors = (
{
name = Anchor_1;
},
{
name = "Bottom-liga";
pos = (112,0);
},
{
name = "bottom-hebr";
pos = (118,0);
}
);
layerId = m003;
shapes = (
{
closed = 1;
nodes = (
(12.667,-77,o),
(25,-89.333,o),
(25,-104,cs),
(25,-120,o),
(12.667,-132,o),
(-2,-132,cs),
(-18,-132,o),
(-30,-120,o),
(-30,-104,cs),
(-30,-89.333,o),
(-18,-77,o),
(-2,-77,cs)
);
},
{
closed = 1;
nodes = (
(82.667,-146,o),
(95,-158.333,o),
(95,-173,cs),
(95,-189,o),
(82.667,-201,o),
(68,-201,cs),
(52,-201,o),
(40,-189,o),
(40,-173,cs),
(40,-158.333,o),
(52,-146,o),
(68,-146,cs)
);
},
{
closed = 1;
nodes = (
(152.667,-216,o),
(165,-228.333,o),
(165,-243,cs),
(165,-259,o),
(152.667,-271,o),
(138,-271,cs),
(122,-271,o),
(110,-259,o),
(110,-243,cs),
(110,-228.333,o),
(122,-216,o),
(138,-216,cs)
);
}
);
width = 0;
}
);
unicode = 1467;
},
{
color = 11;
glyphname = "dageshormapiqcomb-hebr";
lastChange = "2023-07-12 06:13:00 +0000";
layers = (
{
anchors = (
{
name = Anchor_1;
},
{
name = "Bottom-liga";
},
{
name = "center - liga";
},
{
name = "center-hebr";
pos = (64,243);
},
{
name = dagesh;
},
{
name = "top - liga";
}
);
layerId = m001;
shapes = (
{
closed = 1;
nodes = (
(15.667,318,o),
(28,305.667,o),
(28,291,cs),
(28,275,o),
(15.667,263,o),
(1,263,cs),
(-15,263,o),
(-27,275,o),
(-27,291,cs),
(-27,305.667,o),
(-15,318,o),
(1,318,cs)
);
}
);
width = 0;
},
{
anchors = (
{
name = Anchor_1;
},
{
name = "Bottom-liga";
},
{
name = "center - liga";
},
{
name = "center-hebr";
pos = (64,243);
},
{
name = dagesh;
},
{
name = "top - liga";
}
);
layerId = m003;
shapes = (
{
closed = 1;
nodes = (
(15.667,318,o),
(28,305.667,o),
(28,291,cs),
(28,275,o),
(15.667,263,o),
(1,263,cs),
(-15,263,o),
(-27,275,o),
(-27,291,cs),
(-27,305.667,o),
(-15,318,o),
(1,318,cs)
);
}
);
width = 0;
}
);
unicode = 1468;
},
{
color = 11;
glyphname = "metegcomb-hebr";
lastChange = "2023-07-12 06:13:00 +0000";
layers = (
{
anchors = (
{
name = Anchor_1;
}
);
layerId = m001;
shapes = (
{
closed = 1;
nodes = (
(-23,-254,l),
(27,-254,l),
(27,-48,l),
(-23,-48,l),
(-23,-48,l),
(-23,-48,l)
);
}
);
width = 0;
},
{
anchors = (
{
name = Anchor_1;
}
);
layerId = m003;
shapes = (
{
closed = 1;
nodes = (
(-23,-254,l),
(27,-254,l),
(27,-48,l),
(-23,-48,l),
(-23,-48,l),
(-23,-48,l)
);
}
);
width = 0;
}
);
unicode = 1469;
},
{
color = 11;
glyphname = "rafecomb-hebr";
lastChange = "2023-07-12 06:13:00 +0000";
layers = (
{
anchors = (
{
name = Anchor_1;
},
{
name = "Bottom-liga";
},
{
name = "top - liga";
pos = (126,386);
},
{
name = "top-hebr";
pos = (126,386);
}
);
layerId = m001;
shapes = (
{
closed = 1;
nodes = (
(37,527,l),
(37,569,l),
(212,569,l),
(212,527,l),
(212,527,l),
(212,527,l)
);
}
);
width = 0;
},
{
anchors = (
{
name = Anchor_1;
},
{
name = "Bottom-liga";
},
{
name = "top - liga";
pos = (126,386);
},
{
name = "top-hebr";
pos = (126,386);
}
);
layerId = m003;
shapes = (
{
closed = 1;
nodes = (
(37,527,l),
(37,569,l),
(212,569,l),
(212,527,l),
(212,527,l),
(212,527,l)
);
}
);
width = 0;
}
);
unicode = 1471;
},
{
color = 11;
glyphname = "sindotcomb-hebr";
lastChange = "2023-07-12 06:13:00 +0000";
layers = (
{
anchors = (
{
name = Anchor_1;
},
{
name = "Bottom-liga";
},
{
name = "shin - liga";
},
{
name = sin;
},
{
name = "sin - liga";
},
{
name = "topleft-hebr";
pos = (64,400);
},
{
name = "topright2-hebr";
pos = (64,400);
}
);
layerId = m001;
shapes = (
{
closed = 1;
nodes = (
(14.667,692,o),
(27,679.667,o),
(27,665,cs),
(27,649,o),
(14.667,637,o),
(0,637,cs),
(-16,637,o),
(-28,649,o),
(-28,665,cs),
(-28,679.667,o),
(-16,692,o),
(0,692,cs)
);
}
);
width = 0;
},
{
anchors = (
{
name = Anchor_1;
},
{
name = "Bottom-liga";
},
{
name = "shin - liga";
},
{
name = sin;
},
{
name = "sin - liga";
},
{
name = "topleft-hebr";
pos = (64,400);
},
{
name = "topright2-hebr";
pos = (64,400);
}
);
layerId = m003;
shapes = (
{
closed = 1;
nodes = (
(14.667,692,o),
(27,679.667,o),
(27,665,cs),
(27,649,o),
(14.667,637,o),
(0,637,cs),
(-16,637,o),
(-28,649,o),
(-28,665,cs),
(-28,679.667,o),
(-16,692,o),
(0,692,cs)
);
}
);
width = 0;
}
);
unicode = 1474;
},
{
color = 11;
glyphname = "qamatsqatancomb-hebr";
lastChange = "2023-07-12 06:13:00 +0000";
layers = (
{
anchors = (
{
name = Anchor_1;
},
{
name = "Bottom-liga";
pos = (80,0);
},
{
name = "bottom-hebr";
pos = (81,0);
}
);
layerId = m001;
shapes = (
{
closed = 1;
nodes = (
(-13,-199,l),
(-13,-179.138,o),
(-12.819,-167.369,o),
(-10.5,-155,cs),
(-9.5,-149.667,o),
(-7.333,-135.333,o),
(-4,-112,c),
(-49,-112,l),
(-49,-81,l),
(48,-81,l),
(48,-112,l),
(6,-112,l),
(8.648,-140.244,o),
(11.924,-161.937,o),
(12.5,-170,cs),
(12.833,-174.667,o),
(13,-184.333,o),
(13,-199,c)
);
}
);
width = 0;
},
{
anchors = (
{
name = Anchor_1;
},
{
name = "Bottom-liga";
pos = (80,0);
},
{
name = "bottom-hebr";
pos = (81,0);
}
);
layerId = m003;
shapes = (
{
closed = 1;
nodes = (
(-13,-199,l),
(-13,-179.138,o),
(-12.819,-167.369,o),
(-10.5,-155,cs),
(-9.5,-149.667,o),
(-7.333,-135.333,o),
(-4,-112,c),
(-49,-112,l),
(-49,-81,l),
(48,-81,l),
(48,-112,l),
(6,-112,l),
(8.648,-140.244,o),
(11.924,-161.937,o),
(12.5,-170,cs),
(12.833,-174.667,o),
(13,-184.333,o),
(13,-199,c)
);
}
);
width = 0;
}
);
unicode = 1479;
},
{
color = 11;
glyphname = "signviramacomb-tml2";
lastChange = "2023-07-12 06:13:00 +0000";
layers = (
{
anchors = (
{
name = "top-yezi";
}
);
layerId = m001;
shapes = (
{
closed = 1;
nodes = (
(21.333,638,o),
(35,653.333,o),
(35,672,cs),
(35,690.667,o),
(18.667,707,o),
(0,707,cs),
(-21.333,707,o),
(-34,690.667,o),
(-34,672,cs),
(-34,653.333,o),
(-21.333,638,o),
(0,638,cs)
);
}
);
width = 0;
},
{
anchors = (
{
name = "top-yezi";
}
);
layerId = m003;
shapes = (
{
closed = 1;
nodes = (
(54.667,614,o),
(95,653.667,o),
(95,707,cs),
(95,761.667,o),
(54.667,801,o),
(0,801,cs),
(-53.333,801,o),
(-93,761.667,o),
(-93,707,cs),
(-93,653.667,o),
(-53.333,614,o),
(0,614,cs)
);
}
);
width = 0;
}
);
unicode = 3021;
},
{
color = 11;
glyphname = "signanusvaracomb-tml2";
lastChange = "2023-07-12 06:13:00 +0000";
layers = (
{
anchors = (
{
name = "top-yezi";
}
);
layerId = m001;
shapes = (
{
closed = 1;
nodes = (
(60.257,638,o),
(104,680.238,o),
(104,737,cs),
(104,794.749,o),
(60.688,837,o),
(0,837,cs),
(-56.588,837,o),
(-104,794.23,o),
(-104,737,cs),
(-104,683.44,o),
(-58.838,638,o),
(0,638,cs)
);
},
{
closed = 1;
nodes = (
(-34.667,675,o),
(-61,701,o),
(-61,737,cs),
(-61,773,o),
(-34.667,799,o),
(0,799,cs),
(36,799,o),
(62,773,o),
(62,737,cs),
(62,701,o),
(36,675,o),
(0,675,cs)
);
}
);
width = 0;
},
{
anchors = (
{
name = "top-yezi";
}
);
layerId = m003;
shapes = (
{
closed = 1;
nodes = (
(90.009,622,o),
(150,684.869,o),
(150,765,cs),
(150,847.376,o),
(90.171,910,o),
(0,910,cs),
(-89.209,910,o),
(-149,847.131,o),
(-149,765,cs),
(-149,685.109,o),
(-89.047,622,o),
(0,622,cs)
);
},
{
closed = 1;
nodes = (
(-21.333,727,o),
(-38,743.667,o),
(-38,765,cs),
(-38,789,o),
(-21.333,805,o),
(0,805,cs),
(22.667,805,o),
(41,789,o),
(41,765,cs),
(41,743.667,o),
(22.667,727,o),
(0,727,cs)
);
}
);
width = 0;
}
);
unicode = 2946;
},
{
color = 11;
glyphname = dieresiscomb;
lastChange = "2023-07-12 06:13:00 +0000";
layers = (
{
anchors = (
{
name = _top;
pos = (127,485);
}
);
layerId = m001;
shapes = (
{
closed = 1;
nodes = (
(67,618,o),
(84,633.667,o),
(84,655,cs),
(84,676.333,o),
(67,691,o),
(47,691,cs),
(24.333,691,o),
(10,676.333,o),
(10,655,cs),
(10,633.667,o),
(24.333,618,o),
(47,618,cs)
);
},
{
closed = 1;
nodes = (
(226,618,o),
(243,633.667,o),
(243,655,cs),
(243,676.333,o),
(226,691,o),
(206,691,cs),
(183.333,691,o),
(169,676.333,o),
(169,655,cs),
(169,633.667,o),
(183.333,618,o),
(206,618,cs)
);
}
);
width = 253;
},
{
anchors = (
{
name = _top;
pos = (199,485);
}
);
layerId = m003;
shapes = (
{
closed = 1;
nodes = (
(141,603,o),
(177,639.333,o),
(177,686,cs),
(177,731.333,o),
(141,769,o),
(93,769,cs),
(49,769,o),
(10,731.333,o),
(10,686,cs),
(10,639.333,o),
(49,603,o),
(93,603,cs)
);
},
{
closed = 1;
nodes = (
(352,603,o),
(388,639.333,o),
(388,686,cs),
(388,731.333,o),
(352,769,o),
(304,769,cs),
(260,769,o),
(221,731.333,o),
(221,686,cs),
(221,639.333,o),
(260,603,o),
(304,603,cs)
);
}
);
width = 398;
}
);
unicode = 776;
},
{
color = 11;
glyphname = gravecomb;
lastChange = "2023-07-12 06:13:00 +0000";
layers = (
{
anchors = (
{
name = _top;
pos = (111,485);
}
);
layerId = m001;
shapes = (
{
closed = 1;
nodes = (
(127,600,l),
(71,742,l),
(10,742,l),
(95,589,l),
(95,589,l)
);
}
);
width = 137;
},
{
anchors = (
{
name = _top;
pos = (198,485);
}
);
layerId = m003;
shapes = (
{
closed = 1;
nodes = (
(256,610,l),
(190,787,l),
(10,787,l),
(124,588,l),
(124,588,l)
);
}
);
width = 266;
}
);
unicode = 768;
},
{
color = 11;
glyphname = acutecomb;
lastChange = "2023-07-12 06:13:00 +0000";
layers = (
{
anchors = (
{
name = _top;
pos = (27,485);
}
);
layerId = m001;
shapes = (
{
closed = 1;
nodes = (
(127,742,l),
(66,742,l),
(10,600,l),
(42,589,l),
(42,589,l)
);
}
);
width = 137;
},
{
anchors = (
{
name = _top;
pos = (83,485);
}
);
layerId = m003;
shapes = (
{
closed = 1;
nodes = (
(256,787,l),
(76,787,l),
(10,610,l),
(142,588,l),
(142,588,l)
);
}
);
width = 266;
}
);
unicode = 769;
},
{
color = 11;
glyphname = macroncomb;
lastChange = "2023-07-12 06:13:00 +0000";
layers = (
{
layerId = m001;
shapes = (
{
closed = 1;
nodes = (
(251,650,l),
(245,689,l),
(10,689,l),
(10,650,l),
(10,650,l),
(10,650,l)
);
}
);
width = 261;
},
{
layerId = m003;
shapes = (
{
closed = 1;
nodes = (
(300,613,l),
(290,756,l),
(10,756,l),
(10,613,l),
(10,613,l),
(10,613,l)
);
}
);
width = 310;
}
);
unicode = 772;
},
{
color = 11;
glyphname = dieresis;
lastChange = "2023-07-12 06:13:00 +0000";
layers = (
{
anchors = (
{
name = _top;
pos = (127,485);
}
);
layerId = m001;
shapes = (
{
closed = 1;
nodes = (
(67,618,o),
(84,633.667,o),
(84,655,cs),
(84,676.333,o),
(67,691,o),
(47,691,cs),
(24.333,691,o),
(10,676.333,o),
(10,655,cs),
(10,633.667,o),
(24.333,618,o),
(47,618,cs)
);
},
{
closed = 1;
nodes = (
(226,618,o),
(243,633.667,o),
(243,655,cs),
(243,676.333,o),
(226,691,o),
(206,691,cs),
(183.333,691,o),
(169,676.333,o),
(169,655,cs),
(169,633.667,o),
(183.333,618,o),
(206,618,cs)
);
}
);
width = 253;
},
{
anchors = (
{
name = _top;
pos = (199,485);
}
);
layerId = m003;
shapes = (
{
closed = 1;
nodes = (
(141,603,o),
(177,639.333,o),
(177,686,cs),
(177,731.333,o),
(141,769,o),
(93,769,cs),
(49,769,o),
(10,731.333,o),
(10,686,cs),
(10,639.333,o),
(49,603,o),
(93,603,cs)
);
},
{
closed = 1;
nodes = (
(352,603,o),
(388,639.333,o),
(388,686,cs),
(388,731.333,o),
(352,769,o),
(304,769,cs),
(260,769,o),
(221,731.333,o),
(221,686,cs),
(221,639.333,o),
(260,603,o),
(304,603,cs)
);
}
);
width = 398;
}
);
unicode = 168;
},
{
color = 11;
glyphname = dotaccent;
lastChange = "2023-07-12 06:13:00 +0000";
layers = (
{
anchors = (
{
name = _top;
pos = (48,485);
}
);
layerId = m001;
shapes = (
{
closed = 1;
nodes = (
(69.333,618,o),
(87,634.667,o),
(87,656,cs),
(87,677.333,o),
(69.333,694,o),
(48,694,cs),
(25.333,694,o),
(10,677.333,o),
(10,656,cs),
(10,634.667,o),
(25.333,618,o),
(48,618,cs)
);
}
);
width = 97;
},
{
anchors = (
{
name = _top;
pos = (102,485);
}
);
layerId = m003;
shapes = (
{
closed = 1;
nodes = (
(155.333,594,o),
(192,632.667,o),
(192,686,cs),
(192,736.667,o),
(155.333,778,o),
(102,778,cs),
(51.333,778,o),
(10,736.667,o),
(10,686,cs),
(10,632.667,o),
(51.333,594,o),
(102,594,cs)
);
}
);
width = 202;
}
);
unicode = 729;
},
{
color = 11;
glyphname = grave;
lastChange = "2023-07-12 06:13:00 +0000";
layers = (
{
anchors = (
{
name = _top;
pos = (111,485);
}
);
layerId = m001;
shapes = (
{
closed = 1;
nodes = (
(127,600,l),
(71,742,l),
(10,742,l),
(95,589,l),
(95,589,l)
);
}
);
width = 137;
},
{
anchors = (
{
name = _top;
pos = (198,485);
}
);
layerId = m003;
shapes = (
{
closed = 1;
nodes = (
(256,610,l),
(190,787,l),
(10,787,l),
(124,588,l),
(124,588,l)
);
}
);
width = 266;
}
);
unicode = 96;
},
{
color = 11;
glyphname = acute;
lastChange = "2023-07-12 06:13:00 +0000";
layers = (
{
anchors = (
{
name = _top;
pos = (27,485);
}
);
layerId = m001;
shapes = (
{
closed = 1;
nodes = (
(127,742,l),
(66,742,l),
(10,600,l),
(42,589,l),
(42,589,l)
);
}
);
width = 137;
},
{
anchors = (
{
name = _top;
pos = (83,485);
}
);
layerId = m003;
shapes = (
{
closed = 1;
nodes = (
(256,787,l),
(76,787,l),
(10,610,l),
(142,588,l),
(142,588,l)
);
}
);
width = 266;
}
);
unicode = 180;
},
{
color = 11;
glyphname = doubleacutemod;
lastChange = "2023-07-12 06:13:00 +0000";
layers = (
{
layerId = m001;
shapes = (
{
closed = 1;
nodes = (
(127,742,l),
(66,742,l),
(10,600,l),
(42,589,l),
(42,589,l),
(42,589,l)
);
},
{
closed = 1;
nodes = (
(255,742,l),
(194,742,l),
(138,600,l),
(170,589,l),
(170,589,l),
(170,589,l)
);
}
);
width = 265;
},
{
layerId = m003;
shapes = (
{
closed = 1;
nodes = (
(256,787,l),
(76,787,l),
(10,610,l),
(142,588,l),
(142,588,l),
(142,588,l)
);
},
{
closed = 1;
nodes = (
(503,787,l),
(323,787,l),
(257,610,l),
(389,588,l),
(389,588,l),
(389,588,l)
);
}
);
width = 513;
}
);
unicode = 733;
},
{
color = 11;
glyphname = circumflex;
lastChange = "2023-07-12 06:13:00 +0000";
layers = (
{
anchors = (
{
name = _top;
pos = (137,485);
}
);
layerId = m001;
shapes = (
{
closed = 1;
nodes = (
(220,589,l),
(261,603,l),
(156,742,l),
(116,742,l),
(10,599,l),
(51,589,l),
(137,707,l),
(137,707,l)
);
}
);
width = 271;
},
{
anchors = (
{
name = _top;
pos = (240,485);
}
);
layerId = m003;
shapes = (
{
closed = 1;
nodes = (
(292,588,l),
(465,608,l),
(291,787,l),
(184,787,l),
(10,608,l),
(187,588,l),
(240,650,l),
(240,650,l)
);
}
);
width = 475;
}
);
unicode = 710;
},
{
color = 11;
glyphname = caron;
lastChange = "2023-07-12 06:13:00 +0000";
layers = (
{
anchors = (
{
name = _top;
pos = (137,485);
}
);
layerId = m001;
shapes = (
{
closed = 1;
nodes = (
(51,742,l),
(10,732,l),
(116,589,l),
(156,589,l),
(261,728,l),
(220,742,l),
(137,624,l),
(137,624,l)
);
}
);
width = 271;
},
{
anchors = (
{
name = _top;
pos = (240,485);
}
);
layerId = m003;
shapes = (
{
closed = 1;
nodes = (
(187,787,l),
(10,767,l),
(184,588,l),
(291,588,l),
(465,767,l),
(292,787,l),
(240,725,l),
(240,725,l)
);
}
);
width = 475;
}
);
unicode = 711;
},
{
color = 11;
glyphname = breve;
lastChange = "2023-07-12 06:13:00 +0000";
layers = (
{
anchors = (
{
name = _top;
pos = (140,485);
}
);
layerId = m001;
shapes = (
{
closed = 1;
nodes = (
(229.913,601,o),
(270,666.28,o),
(270,731,c),
(229,731,l),
(229,681.667,o),
(196,640,o),
(140,640,cs),
(84,640,o),
(51,684.333,o),
(51,731,c),
(10,731,l),
(10,666.601,o),
(52.901,601,o),
(140,601,cs)
);
}
);
width = 280;
},
{
anchors = (
{
name = _top;
pos = (190,485);
}
);
layerId = m003;
shapes = (
{
closed = 1;
nodes = (
(302.215,590.04,o),
(370,665.402,o),
(370,777,c),
(241,777,l),
(241,743.667,o),
(222,721,o),
(190,721,cs),
(158,721,o),
(139,743.667,o),
(139,777,c),
(10,777,l),
(10,664.804,o),
(78.692,590.061,o),
(190,588,cs)
);
}
);
width = 380;
}
);
unicode = 728;
},
{
color = 11;
glyphname = ring;
lastChange = "2023-07-12 06:13:00 +0000";
layers = (
{
anchors = (
{
name = _top;
pos = (99,485);
}
);
layerId = m001;
shapes = (
{
closed = 1;
nodes = (
(48.861,759,o),
(10,720.977,o),
(10,675,cs),
(10,628.333,o),
(51,594,o),
(99,594,cs),
(147.426,594,o),
(187,628.158,o),
(187,675,cs),
(187,723.23,o),
(147.567,759,o),
(99,759,cs)
);
},
{
closed = 1;
nodes = (
(69.667,624,o),
(49,645.667,o),
(49,675,cs),
(49,705.667,o),
(69.667,728,o),
(99,728,cs),
(128.333,728,o),
(148,705.667,o),
(148,675,cs),
(148,645.667,o),
(128.333,624,o),
(99,624,cs)
);
}
);
width = 197;
},
{
anchors = (
{
name = _top;
pos = (133,485);
}
);
layerId = m003;
shapes = (
{
closed = 1;
nodes = (
(66.122,826,o),
(10,774.924,o),
(10,709,cs),
(10,641,o),
(66.333,594,o),
(133,594,cs),
(202.013,594,o),
(256,642.757,o),
(256,709,cs),
(256,774.924,o),
(199.878,826,o),
(133,826,cs)
);
},
{
closed = 1;
nodes = (
(119,679,o),
(105,693,o),
(105,709,cs),
(105,725,o),
(119,737,o),
(135,737,cs),
(151,737,o),
(163,725,o),
(163,709,cs),
(163,693,o),
(151,679,o),
(135,679,cs)
);
}
);
width = 266;
}
);
unicode = 730;
},
{
color = 11;
glyphname = tilde;
lastChange = "2023-07-12 06:13:00 +0000";
layers = (
{
anchors = (
{
name = _top;
pos = (150,485);
}
);
layerId = m001;
shapes = (
{
closed = 1;
nodes = (
(248.333,668.333,o),
(234,646,o),
(206,646,cs),
(188.667,646,o),
(172.667,656.333,o),
(158,675,cs),
(143.333,693.667,o),
(121,703,o),
(93,703,cs),
(52.965,703,o),
(10,679.519,o),
(10,612,c),
(49,612,l),
(51.667,642.667,o),
(64.667,665,o),
(94,665,cs),
(111.333,665,o),
(128.667,655.667,o),
(146,637,cs),
(163.333,618.333,o),
(183.333,608,o),
(206,608,cs),
(253.716,608,o),
(289,638.965,o),
(289,699,c),
(251,699,l),
(251,699,l),
(251,699,l)
);
}
);
width = 299;
},
{
anchors = (
{
name = _top;
pos = (195,485);
}
);
layerId = m003;
shapes = (
{
closed = 1;
nodes = (
(259,737.667,o),
(247.667,726,o),
(237,726,cs),
(219.667,726,o),
(206,733.333,o),
(194,740,cs),
(178,749.333,o),
(160.667,760,o),
(134,760,cs),
(48,760,o),
(10,688,o),
(10,600,c),
(136,600,l),
(136,612,o),
(148.333,629,o),
(163,629,cs),
(181.667,629,o),
(193.333,620.333,o),
(208,611,cs),
(221.333,603,o),
(238.333,595,o),
(261,595,cs),
(327.717,595,o),
(381,643.176,o),
(381,755,c),
(259,755,l),
(259,755,l),
(259,755,l)
);
}
);
width = 391;
}
);
unicode = 732;
},
{
color = 11;
glyphname = macron;
lastChange = "2023-07-12 06:13:00 +0000";
layers = (
{
anchors = (
{
name = _top;
pos = (130,485);
}
);
layerId = m001;
shapes = (
{
closed = 1;
nodes = (
(251,640,l),
(245,677,l),
(10,677,l),
(10,640,l),
(10,640,l),
(10,640,l)
);
}
);
width = 261;
},
{
anchors = (
{
name = _top;
pos = (155,485);
}
);
layerId = m003;
shapes = (
{
closed = 1;
nodes = (
(300,613,l),
(290,756,l),
(10,756,l),
(10,613,l),
(10,613,l),
(10,613,l)
);
}
);
width = 310;
}
);
unicode = 175;
},
{
color = 11;
glyphname = cedilla;
lastChange = "2023-07-12 06:13:00 +0000";
layers = (
{
layerId = m001;
shapes = (
{
closed = 1;
nodes = (
(113.875,-77,o),
(154,-107.611,o),
(154,-138,cs),
(154,-163.333,o),
(125.333,-185,o),
(84,-185,cs),
(62.667,-185,o),
(37,-176.333,o),
(25,-171,c),
(10,-202,l),
(27.333,-212.667,o),
(63,-221,o),
(87,-221,cs),
(154.531,-221,o),
(196,-185.512,o),
(196,-136,cs),
(196,-98.053,o),
(162.557,-60.593,o),
(105,-51,c),
(130,13,l),
(89,13,l),
(55,-77,l),
(55,-77,l),
(55,-77,l),
(55,-77,l)
);
}
);
width = 206;
},
{
layerId = m003;
shapes = (
{
closed = 1;
nodes = (
(92.847,-98.285,o),
(135,-106.837,o),
(135,-132,cs),
(135,-144,o),
(121.333,-150,o),
(104,-150,cs),
(85.333,-150,o),
(61.333,-140.333,o),
(48,-135,c),
(10,-221,l),
(43.333,-246.333,o),
(87.333,-262,o),
(126,-262,cs),
(203.269,-262,o),
(267,-214.584,o),
(267,-142,cs),
(267,-104.317,o),
(245.985,-54.035,o),
(199,-39,c),
(219,13,l),
(93,13,l),
(50,-94,l),
(50,-94,l),
(50,-94,l),
(50,-94,l)
);
}
);
width = 277;
}
);
unicode = 184;
},
{
color = 11;
glyphname = ogonekmod;
lastChange = "2023-07-12 06:13:00 +0000";
layers = (
{
layerId = m001;
shapes = (
{
closed = 1;
nodes = (
(33.916,-27.737,o),
(10,-73.889,o),
(10,-111,cs),
(10,-165.938,o),
(53.143,-207,o),
(115,-207,cs),
(148.333,-207,o),
(177.667,-194.333,o),
(195,-177,c),
(173,-150,l),
(157,-163.333,o),
(139.333,-171,o),
(118,-171,cs),
(92.667,-171,o),
(56,-152,o),
(56,-112,cs),
(56,-67.859,o),
(73.901,-31.199,o),
(109,0,c),
(72,4,l),
(72,4,l),
(72,4,l),
(72,4,l)
);
}
);
width = 205;
},
{
layerId = m003;
shapes = (
{
closed = 1;
nodes = (
(20.009,-24.982,o),
(10,-69.618,o),
(10,-93,cs),
(10,-164.818,o),
(57.953,-240,o),
(158,-240,cs),
(211.333,-240,o),
(258.333,-219.667,o),
(281,-193,c),
(220,-91,l),
(201.333,-108.333,o),
(189.333,-111,o),
(176,-111,cs),
(158.667,-111,o),
(147,-95,o),
(147,-79,cs),
(147,-55.595,o),
(165.222,-13.37,o),
(179,5,c),
(35,5,l),
(35,5,l),
(35,5,l),
(35,5,l)
);
}
);
width = 291;
}
);
unicode = 731;
},
